<svg xmlns="http://www.w3.org/2000/svg" viewBox="0 0 450 332"><defs><style>.cls-1{fill:none;}.cls-2,.cls-7{fill:#f2e8c5;}.cls-2{stroke:#000;}.cls-2,.cls-8{stroke-miterlimit:10;}.cls-3{fill:#f2aa87;}.cls-4{fill:#d88868;}.cls-5{fill:#fff;}.cls-6{fill:#e0dfde;}.cls-8{fill:#f8f8f8;stroke:#f8f8f8;}.cls-9{fill:#63b57f;}</style></defs><g id="Calque_1" data-name="Calque 1"><path d="M200,45.7c-59.09,9.81-104,69.66-103,141.05,1,69.72,45.6,126.64,103,136.17,0-.62.05-1.24.06-1.86C143.45,311.65,99.48,255.5,98.45,186.72,97.4,116.28,141.74,57.25,200,47.56L200,45.7"/><path d="M215.65,50.47l-2,0c-63.37,1.29-113.85,62.25-112.74,136.15,1.09,73.11,52.25,131.5,114.7,131.5.07.61.13,1.22.19,1.84-63.3,0-115.17-59.2-116.28-133.31C98.36,111.76,149.53,50,213.77,48.66l2.07,0c-.06.62-.12,1.23-.19,1.84"/><path d="M215.13,55l-2,0c-61.21,1.25-110,60.12-108.89,131.5,1,70.61,50.47,127,110.78,127,.08.61.15,1.22.22,1.83-61.17,0-111.28-57.2-112.35-128.81C101.83,114.21,151.27,54.5,213.35,53.24c.66,0,1.33,0,2,0-.07.61-.14,1.21-.22,1.82"/><path d="M214.55,59.56c-.63,0-1.27,0-1.9,0-59.07,1.2-106.12,58-105.09,126.9,1,68.15,48.71,122.57,106.92,122.57.08.6.16,1.2.23,1.8-59,0-107.42-55.21-108.46-124.34-1-69.88,46.69-127.51,106.61-128.73.64,0,1.29,0,1.93,0l-.24,1.8"/><path d="M213.91,64l-1.84,0C155.12,65.21,109.76,120,110.75,186.4c1,65.71,47,118.18,103.09,118.18.09.6.17,1.19.26,1.79-57,0-103.62-53.26-104.62-119.93-1-67.41,45-123,102.83-124.18l1.86,0c-.08.6-.17,1.19-.26,1.79"/><path d="M213.21,68.44l-1.77,0c-54.86,1.12-98.56,53.89-97.6,117.87.94,63.29,45.24,113.84,99.3,113.84.1.58.19,1.17.29,1.76-54.89,0-99.85-51.32-100.82-115.57-1-65,43.39-118.53,99.09-119.66l1.8,0c-.1.59-.19,1.18-.29,1.76"/><path d="M212.45,72.81c-.57,0-1.13,0-1.7,0C158,73.9,115.9,124.68,116.82,186.25c.91,60.91,43.54,109.55,95.56,109.55.11.58.21,1.16.31,1.74-52.84,0-96.12-49.4-97-111.26-.93-62.53,41.77-114.1,95.39-115.19l1.73,0c-.1.58-.21,1.16-.31,1.74"/><path d="M211.63,77.11l-1.63,0c-50.76,1-91.19,49.85-90.31,109.05.88,58.55,41.86,105.32,91.88,105.32l.33,1.72c-50.82,0-92.45-47.52-93.34-107-.9-60.14,40.17-109.75,91.74-110.8H212c-.11.57-.22,1.14-.34,1.71"/><path d="M210.76,81.36l-1.57,0c-48.75,1-87.57,47.88-86.72,104.72.84,56.23,40.19,101.15,88.23,101.15.12.56.23,1.12.35,1.69-48.82,0-88.82-45.65-89.68-102.81C120.51,128.35,160,80.7,209.52,79.69l1.59,0c-.11.57-.23,1.13-.35,1.69"/><path d="M209.83,85.55h-1.51c-46.76,1-84,45.94-83.19,100.47.81,53.94,38.56,97,84.64,97,.13.56.25,1.11.38,1.67-46.86,0-85.25-43.82-86.07-98.67-.83-55.46,37-101.19,84.59-102.16l1.54,0c-.13.56-.25,1.12-.38,1.67"/><path d="M208.84,89.68l-1.44,0c-44.81.91-80.49,44-79.71,96.26.77,51.69,36.94,93,81.1,93,.13.55.27,1.09.4,1.64-44.92,0-81.72-42-82.51-94.58-.8-53.16,35.51-97,81.09-97.94h1.47c-.13.55-.26,1.1-.4,1.64"/><path d="M207.81,93.75h-1.39c-42.88.88-77,42.12-76.28,92.13.74,49.46,35.36,89,77.61,89l.42,1.63c-43,0-78.25-40.22-79-90.58-.76-50.9,34-92.88,77.65-93.77h1.41l-.42,1.62"/><path d="M206.72,97.75h-1.33c-41,.83-73.63,40.26-72.91,88.06.7,47.28,33.79,85.05,74.18,85.05.15.52.3,1.05.44,1.59-41.13,0-74.83-38.46-75.55-86.62-.72-48.67,32.52-88.82,74.26-89.67h1.35c-.15.53-.3,1.06-.44,1.59"/><path d="M205.57,101.68l-1.26,0c-39.12.79-70.28,38.42-69.6,84.05.67,45.13,32.26,81.18,70.81,81.18.16.52.31,1,.47,1.57-39.29,0-71.48-36.73-72.16-82.73-.7-46.49,31-84.83,70.92-85.65H206c-.16.53-.31,1-.47,1.57"/><path d="M204.38,105.54h-1.2c-37.3.76-67,36.64-66.35,80.13.64,43,30.75,77.39,67.5,77.39l.48,1.53c-37.46,0-68.16-35-68.82-78.89-.66-44.34,29.62-80.92,67.65-81.69h1.22l-.48,1.53"/><path d="M203.13,109.34H202c-35.5.72-63.77,34.87-63.15,76.26.61,40.95,29.27,73.66,64.25,73.66.17.5.33,1,.5,1.51-35.68,0-64.92-33.37-65.54-75.14-.64-42.23,28.21-77.06,64.42-77.8h1.17l-.51,1.51"/><path d="M201.84,113.05l-1.09,0c-33.73.68-60.61,33.13-60,72.48.58,38.92,27.82,70,61.07,70l.52,1.47c-33.94,0-61.74-31.73-62.33-71.46-.6-40.16,26.83-73.28,61.26-74h1.11c-.17.49-.34,1-.52,1.47"/><path d="M200.5,116.7h-1c-32,.66-57.51,31.45-56.95,68.78.55,36.92,26.39,66.42,57.94,66.42l.54,1.44c-32.22,0-58.62-30.12-59.18-67.84-.57-38.13,25.47-69.58,58.17-70.24h1l-.54,1.44"/><path d="M199.11,120.27h-1c-30.32.62-54.47,29.78-53.94,65.14.52,35,25,62.92,54.88,62.92.19.47.38.94.56,1.42-30.54,0-55.56-28.56-56.1-64.31-.54-36.15,24.15-66,55.14-66.59h1c-.18.48-.37,1-.56,1.42"/><path d="M197.67,123.76h-.92c-28.67.58-51.5,28.16-51,61.59.49,33.07,23.64,59.49,51.89,59.49l.58,1.38c-28.9,0-52.57-27-53.08-60.84-.51-34.2,22.84-62.41,52.17-63h.94c-.19.46-.38.92-.58,1.38"/><path d="M196.19,127.17h-.87c-27,.55-48.6,26.58-48.13,58.12.47,31.21,22.31,56.14,49,56.14l.6,1.36c-27.29,0-49.65-25.52-50.13-57.47-.49-32.3,21.57-58.94,49.27-59.51h.89l-.6,1.35"/><path d="M194.67,130.5h-.82c-25.48.52-45.77,25-45.33,54.73.44,29.4,21,52.87,46.12,52.87l.61,1.32c-25.72,0-46.79-24.05-47.25-54.16-.45-30.44,20.34-55.55,46.44-56.08h.84c-.2.44-.4.88-.61,1.32"/><path d="M193.1,133.74h-.77c-23.94.49-43,23.52-42.59,51.44.41,27.62,19.74,49.68,43.33,49.68q.31.63.63,1.29c-24.19,0-44-22.63-44.44-50.95-.43-28.63,19.13-52.25,43.68-52.75h.8l-.64,1.29"/><path d="M191.49,136.9h-.72c-22.45.45-40.33,22-39.94,48.22.39,25.9,18.51,46.58,40.63,46.58.22.42.44.83.65,1.25-22.7,0-41.3-21.23-41.7-47.81-.4-26.86,18-49,41-49.5h.74l-.65,1.25"/><path d="M334.77,181.89c-1.13-75.63-54.06-136-118.66-136,.06-.62.11-1.24.16-1.86,65.47,0,119.11,61.21,120.26,137.86l-1.76,0"/><path d="M330.36,182c-1.1-73.11-52.26-131.5-114.71-131.5.07-.61.13-1.22.19-1.84,63.31,0,115.17,59.2,116.28,133.31l-1.76,0"/><path d="M325.92,182.05c-1.06-70.61-50.47-127-110.79-127,.08-.61.15-1.21.22-1.82,61.17,0,111.28,57.19,112.35,128.8l-1.78,0"/><path d="M321.47,182.13c-1-68.15-48.71-122.57-106.92-122.57l.24-1.8c59,0,107.43,55.21,108.46,124.34l-1.78,0"/><path d="M317,182.21C316,116.5,270,64,213.91,64c.09-.6.18-1.19.26-1.79,57,0,103.62,53.26,104.62,119.94l-1.8,0"/><path d="M312.51,182.28c-.94-63.29-45.24-113.84-99.3-113.84.1-.58.19-1.17.29-1.76,54.88,0,99.85,51.32,100.81,115.57l-1.8,0"/><path d="M308,182.36c-.91-60.91-43.54-109.55-95.56-109.55.1-.58.21-1.16.31-1.74,52.84,0,96.12,49.4,97.05,111.26l-1.8,0"/><path d="M303.51,182.43c-.88-58.55-41.86-105.32-91.88-105.32.12-.57.23-1.14.34-1.71,50.81,0,92.45,47.51,93.34,107l-1.8,0"/><path d="M299,182.51c-.85-56.23-40.2-101.15-88.23-101.15.12-.56.24-1.12.35-1.69,48.83,0,88.83,45.65,89.68,102.81l-1.8,0"/><path d="M294.47,182.58c-.81-53.94-38.56-97-84.64-97,.13-.55.25-1.11.38-1.67,46.86,0,85.25,43.82,86.07,98.67l-1.81,0"/><path d="M289.94,182.65c-.77-51.68-36.94-93-81.1-93,.14-.54.27-1.09.4-1.64,44.92,0,81.72,42,82.51,94.59l-1.81,0"/><path d="M285.42,182.73c-.74-49.47-35.36-89-77.61-89l.42-1.62c43,0,78.25,40.21,79,90.57l-1.81,0"/><path d="M280.9,182.79c-.7-47.28-33.8-85-74.18-85,.14-.53.29-1.06.44-1.59,41.13,0,74.83,38.45,75.55,86.61l-1.81,0"/><path d="M276.38,182.86c-.67-45.13-32.26-81.18-70.81-81.18.16-.52.31-1,.47-1.57,39.28,0,71.47,36.73,72.16,82.73l-1.82,0"/><path d="M271.88,182.93c-.64-43-30.75-77.39-67.5-77.39l.48-1.53c37.47,0,68.17,35,68.82,78.89l-1.8,0"/><path d="M267.38,183c-.61-40.95-29.27-73.66-64.25-73.66l.51-1.51c35.68,0,64.91,33.37,65.54,75.14l-1.8,0"/><path d="M262.91,183.06c-.58-38.92-27.82-70-61.07-70,.18-.49.35-1,.52-1.47,33.94,0,61.74,31.73,62.34,71.46l-1.79,0"/><path d="M258.44,183.13c-.55-36.93-26.4-66.43-57.94-66.43l.54-1.44c32.22,0,58.62,30.12,59.18,67.84l-1.78,0"/><path d="M254,183.19c-.53-35-25-62.92-54.89-62.92.19-.47.38-.94.56-1.42,30.54,0,55.56,28.56,56.1,64.31l-1.77,0"/><path d="M249.57,183.25c-.5-33.07-23.64-59.49-51.9-59.49.2-.46.39-.92.58-1.38,28.9,0,52.57,27,53.08,60.84l-1.76,0"/><path d="M245.16,183.31c-.47-31.21-22.31-56.14-49-56.14l.6-1.35c27.3,0,49.65,25.51,50.13,57.46l-1.76,0"/><path d="M240.79,183.37c-.44-29.4-21-52.87-46.12-52.87.21-.44.41-.88.61-1.32,25.73,0,46.8,24,47.25,54.16l-1.74,0"/><path d="M236.43,183.42c-.41-27.62-19.74-49.68-43.33-49.68l.64-1.29c24.19,0,44,22.63,44.44,51l-1.75,0"/><path d="M232.12,183.48c-.39-25.9-18.51-46.58-40.63-46.58l.65-1.25c22.7,0,41.31,21.23,41.7,47.81l-1.72,0"/><path d="M227.84,183.53c-.37-24.22-17.32-43.56-38-43.56l.66-1.22c21.26,0,38.67,19.88,39,44.76l-1.7,0"/><path d="M223.59,183.58C223.26,161,207.44,143,188.15,143l.68-1.18c19.85,0,36.11,18.56,36.46,41.79l-1.7,0"/><path d="M219.38,183.63c-.31-21-15-37.79-33-37.79.24-.38.47-.76.7-1.15,18.48,0,33.63,17.29,33.95,38.92l-1.68,0"/><path d="M215.22,183.68c-.29-19.49-13.93-35.05-30.58-35.05.24-.37.48-.74.71-1.11,17.17,0,31.23,16,31.53,36.14l-1.66,0"/><path d="M211.1,183.73c-.27-18-12.88-32.4-28.27-32.4l.73-1.07c15.88,0,28.9,14.85,29.18,33.45l-1.64,0"/><path d="M207,183.78c-.25-16.6-11.86-29.85-26-29.85l.75-1c14.65,0,26.66,13.7,26.92,30.86l-1.63,0"/><path d="M203,183.82c-.23-15.23-10.89-27.39-23.9-27.39l.76-1c13.47,0,24.5,12.59,24.74,28.36l-1.6,0"/><path d="M199,183.86c-.21-13.92-10-25-21.84-25l.78-1c12.33,0,22.43,11.53,22.65,26l-1.59,0"/><path d="M195.1,183.9c-.18-12.66-9-22.78-19.86-22.78l.78-.9c11.24,0,20.45,10.51,20.64,23.67H195.1"/><path d="M191.24,183.94c-.17-11.47-8.2-20.62-18-20.62l.8-.87c10.19,0,18.55,9.54,18.73,21.47l-1.54,0"/><path d="M187.44,184c-.15-10.33-7.38-18.58-16.21-18.58.28-.27.55-.55.81-.82,9.21,0,16.75,8.6,16.91,19.38l-1.51,0"/><path d="M183.7,184c-.14-9.25-6.61-16.64-14.51-16.64l.82-.77c8.26,0,15,7.72,15.17,17.4H183.7"/><path d="M180,184c-.13-8.23-5.89-14.8-12.92-14.8l.83-.74c7.38,0,13.42,6.9,13.55,15.53H180"/><path d="M176.42,184.07C176.31,176.8,171.22,171,165,171l.85-.69c6.53,0,11.88,6.11,12,13.76h-1.43"/><path d="M172.87,184.1c-.09-6.38-4.56-11.47-10-11.47l.86-.65c5.75,0,10.47,5.38,10.57,12.11h-1.42"/><path d="M169.41,184.13c-.08-5.55-4-10-8.71-10l.87-.59c5,0,9.13,4.69,9.22,10.57h-1.38"/><path d="M166,184.15c-.07-4.78-3.42-8.6-7.51-8.6l.88-.55c4.35,0,7.9,4.06,8,9.14H166"/><path d="M215.57,318.14l2,0C281,316.83,331.46,255.87,330.36,182l1.76,0c1.12,74.91-50.05,136.71-114.29,138l-2.07,0c-.06-.62-.12-1.23-.19-1.84"/><path d="M215.05,313.57l2,0c61.2-1.25,110-60.12,108.89-131.5l1.78,0c1.08,72.39-48.36,132.09-110.43,133.36l-2,0c-.07-.61-.14-1.22-.22-1.83"/><path d="M214.48,309.05c.63,0,1.26,0,1.9,0,59.07-1.2,106.12-58,105.09-126.9l1.78,0c1.05,69.88-46.68,127.51-106.6,128.73-.65,0-1.29,0-1.94,0-.07-.6-.15-1.2-.23-1.8"/><path d="M213.84,304.58c.61,0,1.22,0,1.83,0C272.63,303.4,318,248.62,317,182.21l1.8,0c1,67.4-45,123-102.83,124.17l-1.86,0c-.09-.6-.17-1.19-.26-1.79"/><path d="M213.14,300.17l1.77,0c54.86-1.11,98.56-53.89,97.6-117.87l1.8,0c1,64.95-43.39,118.53-99.09,119.66l-1.79,0c-.1-.59-.19-1.18-.29-1.76"/><path d="M212.38,295.8h1.7c52.8-1.08,94.85-51.86,93.93-113.43l1.8,0c.94,62.53-41.77,114.1-95.39,115.19l-1.73,0c-.1-.58-.2-1.16-.31-1.74"/><path d="M211.57,291.5c.54,0,1.09,0,1.63,0,50.76-1,91.19-49.85,90.31-109l1.8,0c.9,60.14-40.18,109.75-91.75,110.8l-1.66,0-.33-1.72"/><path d="M210.7,287.25l1.57,0c48.74-1,87.57-47.88,86.72-104.72l1.8,0c.87,57.78-38.6,105.43-88.14,106.44l-1.6,0c-.12-.57-.23-1.13-.35-1.69"/><path d="M209.77,283.06h1.51c46.76-1,84-45.93,83.19-100.47l1.81,0c.83,55.46-37,101.2-84.6,102.16l-1.53,0c-.13-.56-.25-1.11-.38-1.67"/><path d="M208.79,278.93h1.44c44.81-.92,80.5-44,79.71-96.27l1.81,0c.8,53.15-35.51,97-81.09,97.93h-1.47c-.13-.55-.27-1.09-.4-1.64"/><path d="M207.75,274.86h1.38c42.88-.88,77-42.12,76.29-92.12l1.81,0c.76,50.9-34,92.88-77.65,93.77l-1.41,0-.42-1.63"/><path d="M206.66,270.87l1.32,0c41-.83,73.64-40.26,72.92-88.06l1.81,0c.73,48.67-32.52,88.82-74.26,89.67l-1.35,0c-.14-.54-.29-1.07-.44-1.59"/><path d="M205.52,266.93h1.26c39.13-.8,70.29-38.43,69.6-84.06l1.82,0c.69,46.49-31.06,84.83-70.93,85.65H206c-.16-.53-.31-1.05-.47-1.57"/><path d="M204.33,263.07h1.2c37.3-.76,67-36.64,66.35-80.13l1.8,0c.67,44.35-29.62,80.92-67.64,81.69h-1.23l-.48-1.53"/><path d="M203.09,259.27h1.14c35.5-.72,63.77-34.87,63.15-76.26l1.8,0c.63,42.23-28.21,77.06-64.42,77.8h-1.17c-.17-.5-.33-1-.5-1.51"/><path d="M201.8,255.56l1.09,0c33.73-.68,60.61-33.13,60-72.48l1.79,0c.6,40.16-26.83,73.28-61.27,74h-1.11l-.52-1.47"/><path d="M200.46,251.91h1c32-.65,57.51-31.44,56.95-68.77l1.78,0c.57,38.13-25.47,69.58-58.17,70.24H201l-.54-1.44"/><path d="M199.07,248.34h1c30.32-.62,54.47-29.78,53.95-65.14l1.77,0c.54,36.15-24.15,66-55.14,66.59h-1c-.18-.48-.37-.95-.56-1.42"/><path d="M197.64,244.85h.92c28.67-.58,51.51-28.16,51-61.59l1.76,0c.51,34.2-22.84,62.41-52.17,63h-.94l-.58-1.38"/><path d="M196.16,241.44H197c27.05-.55,48.6-26.57,48.13-58.12l1.76,0c.49,32.3-21.57,58.94-49.27,59.51h-.89l-.6-1.36"/><path d="M194.64,238.11h.82c25.48-.51,45.77-25,45.33-54.73l1.74,0c.46,30.44-20.33,55.55-46.44,56.08h-.84l-.61-1.32"/><path d="M193.07,234.87h.77c23.94-.49,43-23.52,42.59-51.44l1.75,0c.42,28.63-19.13,52.25-43.68,52.75h-.8q-.31-.66-.63-1.29"/><path d="M191.46,231.71h.73c22.44-.45,40.32-22,39.93-48.22l1.72,0c.41,26.87-18,49-41,49.5h-.74c-.21-.42-.43-.83-.65-1.25"/><path d="M189.81,228.64h.68c21-.42,37.71-20.62,37.35-45.1l1.7,0c.38,25.15-16.8,45.9-38.37,46.34h-.69l-.67-1.22"/><path d="M188.12,225.66h.63c19.59-.4,35.19-19.24,34.84-42.08l1.7,0c.35,23.49-15.7,42.87-35.84,43.28h-.65l-.68-1.18"/><path d="M186.39,222.77H187c18.21-.37,32.72-17.89,32.4-39.14l1.68,0c.33,21.88-14.61,39.92-33.37,40.3h-.6l-.7-1.15"/><path d="M184.62,220h.55c16.89-.35,30.35-16.6,30.05-36.3l1.66,0c.3,20.32-13.57,37.07-31,37.42h-.56c-.23-.37-.47-.74-.71-1.11"/><path d="M182.81,217.28h.51c15.61-.32,28.05-15.34,27.78-33.55l1.64,0c.28,18.8-12.56,34.31-28.68,34.64h-.52l-.73-1.07"/><path d="M181,214.68h.46c14.38-.3,25.84-14.13,25.59-30.9l1.63,0c.26,17.34-11.59,31.65-26.46,32h-.48l-.74-1"/><path d="M179.09,212.18h.42c13.2-.27,23.72-13,23.49-28.36l1.6,0c.24,15.94-10.65,29.09-24.32,29.37h-.44l-.75-1"/><path d="M177.17,209.78h.39c12.06-.25,21.67-11.85,21.46-25.92l1.59,0c.22,14.6-9.75,26.63-22.26,26.89h-.41c-.25-.32-.51-.63-.77-.95"/><path d="M175.22,207.49h.36c11-.23,19.72-10.79,19.52-23.59h1.56c.2,13.3-8.88,24.27-20.29,24.5H176l-.78-.9"/><path d="M173.24,205.3h.32c9.94-.2,17.85-9.76,17.68-21.35l1.54,0c.18,12.07-8.07,22-18.41,22.24H174l-.79-.86"/><path d="M171.22,203.21h.29c9-.18,16.09-8.79,15.93-19.23l1.51,0c.17,10.9-7.27,19.88-16.62,20.07H172l-.81-.82"/><path d="M169.18,201.24h.25c8-.17,14.41-7.88,14.27-17.23h1.48c.15,9.77-6.53,17.84-14.91,18H170l-.82-.77"/><path d="M167.1,199.38h.23c7.14-.14,12.82-7,12.7-15.33h1.46c.13,8.73-5.83,15.92-13.31,16.07h-.25c-.27-.25-.55-.49-.83-.73"/><path d="M165,197.62h.21c6.3-.13,11.33-6.19,11.22-13.55h1.43c.11,7.73-5.17,14.11-11.8,14.25h-.21l-.85-.69"/><path d="M162.86,196H163c5.54-.11,9.94-5.43,9.84-11.88h1.42c.1,6.81-4.55,12.42-10.39,12.54h-.18l-.86-.64"/><path d="M160.7,194.47h.15c4.81-.1,8.65-4.73,8.56-10.34h1.38c.09,5.94-4,10.84-9.06,10.94h-.17l-.86-.59"/><path d="M158.51,193.07h.13c4.15-.08,7.45-4.07,7.38-8.91h1.35c.08,5.14-3.43,9.38-7.84,9.47h-.14l-.88-.54"/><path d="M156.29,191.79h.12c3.54-.07,6.36-3.47,6.3-7.61H164c.07,4.4-2.94,8-6.72,8.11h-.12c-.29-.17-.59-.33-.89-.49"/><path class="cls-1" d="M155.88,191.49c0-.16-.07-.32-.1-.49l-.11,0Z"/><path class="cls-1" d="M154.88,179.23l.06,0q.17-.54.36-1v-.05l-.22-.06c0,.06-.05.12-.08.19C155,178.6,154.93,178.91,154.88,179.23Z"/><path class="cls-1" d="M156.91,193.28c0,.09.09.16.13.24h0c-.05-.13-.11-.25-.16-.39h-.05Z"/><path class="cls-1" d="M154,188.84c0-.42-.07-.84-.11-1.27a15,15,0,0,1-.35-3,15.15,15.15,0,0,1,.34-3.4c0-.25,0-.49.07-.74l-.26-.09c-.08.27-.14.54-.2.82-.09,1.26-.13,2.55-.11,3.85,0,.87.06,1.73.12,2.58q.17.69.39,1.35A.41.41,0,0,0,154,188.84Z"/><path class="cls-1" d="M157,193.61a.71.71,0,0,1-.14-.1l.21.28s0-.1-.05-.15Z"/><path class="cls-1" d="M156.74,192.8c0-.05,0-.11-.07-.17l.06.17Z"/><path class="cls-1" d="M157.28,194h0l0-.1A.36.36,0,0,0,157.28,194Z"/><path class="cls-1" d="M157.13,193.87v0l0,0Z"/><path class="cls-1" d="M155.71,179.84l.18-1c-.07.33-.12.67-.18,1Z"/><path class="cls-1" d="M155.87,177.14c-.06.15-.14.3-.2.45l.1,0C155.8,177.45,155.84,177.3,155.87,177.14Z"/><path class="cls-1" d="M155.89,192.5l.17.07-.24-.35C155.84,192.31,155.87,192.4,155.89,192.5Z"/><path class="cls-1" d="M156.39,192.17c.09.2.18.39.28.59-.07-.19-.12-.39-.18-.58s-.22-.59-.32-.88C156.24,191.59,156.31,191.88,156.39,192.17Z"/><path class="cls-1" d="M155.34,187.46l0,.17.09-.12c0-.11,0-.22,0-.33a23,23,0,0,1-.18-2.51,23.85,23.85,0,0,1,.17-3.29.39.39,0,0,1-.08-.1,34,34,0,0,0-.15,3.51Q155.22,186.14,155.34,187.46Z"/><path class="cls-1" d="M156.15,177.68l.19-.73c-.08.24-.16.48-.23.72Z"/><path class="cls-1" d="M154.7,189.49v0Z"/><path class="cls-1" d="M156.34,191.66c-.07-.24-.13-.49-.19-.73h0C156.18,191.18,156.26,191.42,156.34,191.66Z"/><path class="cls-1" d="M155.79,189.21c0-.14,0-.29-.07-.44h0C155.73,188.92,155.76,189.07,155.79,189.21Z"/><path class="cls-1" d="M155.46,190.4l.16-.05c-.13-.4-.24-.81-.35-1.22h0C155.32,189.56,155.39,190,155.46,190.4Z"/><path class="cls-1" d="M154.61,190.9l-.05,0,.09.53.45.55c0-.13,0-.25-.07-.38A7.74,7.74,0,0,1,154.61,190.9Z"/><path class="cls-1" d="M155.63,178.26l-.17,0c-.07.42-.14.84-.2,1.26h0C155.38,179.06,155.5,178.66,155.63,178.26Z"/><path class="cls-1" d="M155.38,192.26l.26.13-.32-.42Z"/><path class="cls-1" d="M156,178.4l-.05,0c-.08.41-.16.83-.22,1.25Q155.82,179,156,178.4Z"/><path class="cls-1" d="M156.29,192.67l.1,0-.16-.27Z"/><path class="cls-1" d="M156.42,193.15l.1.07c0-.06-.09-.1-.12-.15A.24.24,0,0,0,156.42,193.15Z"/><path class="cls-1" d="M155.6,191.17l.15.7c.12.22.24.43.37.63-.05-.18-.1-.37-.14-.55S155.72,191.44,155.6,191.17Z"/><path class="cls-1" d="M156.4,176.44l-.24.89c.06-.17.11-.34.18-.5h0l0,0,.12-.3q.09-.33.21-.66C156.58,176,156.49,176.24,156.4,176.44Z"/><path class="cls-1" d="M155.18,179c0,.12-.06.25-.1.37l0,0Z"/><path class="cls-1" d="M154.27,190.62c0-.16,0-.31-.07-.46l-.18-.39-.26.09,0,.21c.11.19.21.37.33.56h.15Z"/><path class="cls-1" d="M153.64,188.83a1.5,1.5,0,0,1,0,.2l.05,0A1.34,1.34,0,0,1,153.64,188.83Z"/><path class="cls-1" d="M156,190.21c-.1-.39-.19-.78-.27-1.18.07.4.14.8.22,1.2Z"/><path class="cls-1" d="M156,192.75l.23.25c0-.06,0-.11-.05-.16Z"/><path class="cls-1" d="M156.78,175.8c-.07.17-.14.33-.2.5s-.09.29-.13.44h0c.08-.23.15-.46.24-.68h0a1.12,1.12,0,0,1,.05-.13l0-.13Z"/><path class="cls-1" d="M156.36,191.56c0-.05,0-.12-.05-.17l-.06-.19C156.29,191.32,156.33,191.44,156.36,191.56Z"/><path class="cls-1" d="M154.81,190.3l-.3-.72-.12.06c0,.18,0,.38.07.56l.17.39.22,0C154.84,190.47,154.82,190.38,154.81,190.3Z"/><path class="cls-1" d="M153.45,189.92l-.38.05c.16.24.32.48.5.71,0-.23,0-.45-.08-.68A.3.3,0,0,1,153.45,189.92Z"/><path class="cls-1" d="M156.39,191.66c.06.22.13.45.2.68s.12.31.19.47h0l0-.11s-.05-.1-.07-.16Z"/><path class="cls-1" d="M155.47,177.28l-.15.28h.1A2.74,2.74,0,0,1,155.47,177.28Z"/><path class="cls-1" d="M157.33,174.5s0,0,0-.05l.05-.07,0-.06,0,0a.83.83,0,0,1-.08.12Z"/><path class="cls-1" d="M155.84,178.34l-.09,0c-.07.38-.14.77-.2,1.16C155.64,179.09,155.74,178.72,155.84,178.34Z"/><path class="cls-1" d="M156.71,175.09h0a1.9,1.9,0,0,0-.19.21l.16-.13Z"/><path class="cls-1" d="M156.21,175.59l-.24.19,0,.1Z"/><path class="cls-1" d="M155.75,176l-.12.12.11-.07Z"/><path class="cls-1" d="M155.13,176.51h0l-.31.19-.09.08,0,.19A6,6,0,0,1,155.13,176.51Z"/><path class="cls-1" d="M155,191.16s0-.06,0-.09l-.06,0Z"/><path class="cls-1" d="M154.37,177.35l.06-.32c-.18.17-.34.34-.5.52s-.05.33-.07.49Q154.1,177.68,154.37,177.35Z"/><path class="cls-1" d="M155.31,176.66c.11-.15.21-.3.33-.44l-.26.13h0C155.35,176.45,155.33,176.56,155.31,176.66Z"/><path class="cls-1" d="M156.25,175.61c-.07.09-.15.17-.23.26l.18-.1C156.22,175.72,156.23,175.67,156.25,175.61Z"/><path class="cls-1" d="M157.26,174.57l0-.06,0,0-.06,0-.09.12v0Z"/><path class="cls-1" d="M156.53,175.39l-.11.07a.19.19,0,0,1,0,.08Z"/><path class="cls-1" d="M154.71,179.07s0,0,0,.05h0Z"/><path class="cls-1" d="M154,184.93c0,.89.07,1.78.13,2.65.08.35.15.69.24,1l.17-.12c0-.3-.06-.6-.08-.9a16.68,16.68,0,0,1,0-6.47c0-.16,0-.33,0-.49l-.24-.1c0,.19-.09.4-.13.6C154.06,182.38,154,183.65,154,184.93Z"/><path class="cls-1" d="M157,175l.06-.16-.22.27L157,175Z"/><path class="cls-1" d="M155.85,190.27c-.12-.42-.23-.84-.32-1.27.06.44.14.88.22,1.31Z"/><path class="cls-1" d="M156.92,174.91l-.07.07,0,0Z"/><path class="cls-1" d="M157.18,174.85h0l0,0,.08-.17.05-.09h0C157.27,174.67,157.22,174.76,157.18,174.85Z"/><path class="cls-1" d="M155.31,190.43c-.14-.35-.26-.71-.37-1.08l-.06,0c.05.33.09.66.15,1l.06.14.22-.05Z"/><path class="cls-1" d="M151.41,184.47c0,.13,0,.26,0,.38,0-.41,0-.82,0-1.24C151.43,183.9,151.41,184.18,151.41,184.47Z"/><path class="cls-1" d="M157.23,174.71l.07-.11h0A.93.93,0,0,0,157.23,174.71Z"/><path class="cls-1" d="M153.48,178.61c0-.23.07-.45.1-.68-.18.23-.35.47-.51.71l.37.05A.3.3,0,0,0,153.48,178.61Z"/><path class="cls-1" d="M155.47,191.35l-.06-.31h-.09C155.36,191.15,155.42,191.25,155.47,191.35Z"/><path class="cls-1" d="M152.37,179.87l.13-.23Z"/><path class="cls-1" d="M154.15,190.68l.17.25,0-.19Z"/><path class="cls-1" d="M156.91,175.33l-.06.15.05,0c0-.13.11-.25.16-.38h0Z"/><path class="cls-1" d="M156.66,176l.08-.21h0C156.71,175.88,156.68,176,156.66,176Z"/><path class="cls-1" d="M155.54,189.7c0-.23-.08-.46-.11-.69l-.05,0C155.43,189.27,155.48,189.49,155.54,189.7Z"/><polygon class="cls-1" points="157.49 174.26 157.48 174.27 157.48 174.26 157.49 174.26"/><path class="cls-1" d="M157.17,174.69l0,0v0Z"/><path class="cls-1" d="M157.56,174.15h0v0Z"/><path class="cls-1" d="M152.45,187.52a11.17,11.17,0,0,1-.46-3,11.5,11.5,0,0,1,.46-3.4c0-.32,0-.64.07-1l-.24,0a7.74,7.74,0,0,0-.36.95c-.09,1.32-.13,2.66-.11,4,0,.82.05,1.63.1,2.43a10.56,10.56,0,0,0,.66,1.62C152.52,188.59,152.48,188.06,152.45,187.52Z"/><path class="cls-1" d="M155.43,179.6l.09-.62c-.05.19-.09.39-.14.58A.1.1,0,0,1,155.43,179.6Z"/><path class="cls-1" d="M155.42,182.42c0,.11,0,.22,0,.35h0c0-.43.06-.86.1-1.29h0C155.47,181.79,155.44,182.1,155.42,182.42Z"/><path class="cls-1" d="M154.55,177.74l.06,0c.14-.23.27-.47.42-.69s.05-.24.07-.37c-.16.18-.31.37-.45.56S154.58,177.56,154.55,177.74Z"/><path class="cls-1" d="M156.49,176.09l.13-.25-.06,0C156.54,175.93,156.52,176,156.49,176.09Z"/><path class="cls-1" d="M157.17,193.76v0l.14.25h0l-.05-.07-.08-.19Z"/><path class="cls-1" d="M156,177.66c0-.2.09-.4.13-.6-.07.19-.15.38-.21.58Z"/><path class="cls-1" d="M157.09,193.55h0Z"/><path class="cls-1" d="M157.48,194.34v0h0Z"/><path class="cls-1" d="M154.93,184.84c0,.91.07,1.82.15,2.72,0,.12,0,.24.07.36a1.83,1.83,0,0,1,.13-.16l0-.26a22.36,22.36,0,0,1-.23-2.86,20.74,20.74,0,0,1,.23-3.46l-.16-.15v.06A35.73,35.73,0,0,0,154.93,184.84Z"/><path class="cls-1" d="M156.78,175.51l.12-.35h0l-.23.39.12-.05Z"/><path class="cls-1" d="M156.12,176.59l-.18.78c.12-.31.24-.61.37-.91s.09-.34.14-.51C156.34,176.16,156.22,176.37,156.12,176.59Z"/><path class="cls-1" d="M155.63,192.51a.57.57,0,0,0,.11.11v-.05Z"/><path class="cls-1" d="M155.93,189.93v0Z"/><path class="cls-1" d="M156.8,175.22l0,0,0,.07Z"/><path class="cls-1" d="M156.64,175.32l-.25.36.16-.07C156.57,175.51,156.61,175.42,156.64,175.32Z"/><path class="cls-1" d="M155.76,189.68c0-.27-.09-.55-.14-.83l0,0C155.64,189.15,155.7,189.42,155.76,189.68Z"/><path class="cls-1" d="M154.55,184.88c0,.91.06,1.81.14,2.71,0,.22.09.45.14.67l.15-.16c0-.17,0-.35,0-.53a20.48,20.48,0,0,1-.28-3,21,21,0,0,1,.27-3.49c0-.06,0-.12,0-.18a1.37,1.37,0,0,0-.21-.15l-.06.33C154.58,182.35,154.53,183.61,154.55,184.88Z"/><path class="cls-1" d="M155.63,179.76c0-.27.08-.54.13-.81l-.18.78Z"/><path class="cls-1" d="M157.06,174.93l.07-.05s0,0,0-.08.05-.11.08-.17h0l-.15.23Z"/><path class="cls-1" d="M154.69,191.65l0,.19a.39.39,0,0,1,.1.08l.31.19h0A6.25,6.25,0,0,1,154.69,191.65Z"/><path class="cls-1" d="M153.85,190.56c0,.17.05.34.08.51a6,6,0,0,0,.5.51c0-.1,0-.2-.05-.3C154.19,191.05,154,190.81,153.85,190.56Z"/><path class="cls-1" d="M156.55,193l-.16-.08.24.36h0Z"/><path class="cls-1" d="M157.43,194.24l-.05-.09,0,0v0a1,1,0,0,0,.08.11l0,0Z"/><path class="cls-1" d="M157.06,193.68l0,.07.14.21,0,0-.07-.16-.06-.09Z"/><path class="cls-1" d="M154.38,179l.13.06c.09-.25.2-.48.3-.71a2,2,0,0,1,0-.26l-.22,0c-.06.12-.11.25-.17.37S154.41,178.78,154.38,179Z"/><path class="cls-1" d="M156.75,193.37l.05,0a.41.41,0,0,1-.07-.11S156.74,193.34,156.75,193.37Z"/><path class="cls-1" d="M157.25,194l-.08-.08v0l.08.12.06.05,0,0Z"/><path class="cls-1" d="M157.55,194.45h0l0,0Z"/><path class="cls-1" d="M156,176.63c0-.16.07-.33.12-.5q-.2.3-.36.6c-.05.25-.11.49-.16.74C155.72,177.19,155.85,176.91,156,176.63Z"/><path class="cls-1" d="M156.39,175.9l-.1,0c0,.09,0,.17-.07.26C156.28,176.1,156.34,176,156.39,175.9Z"/><path class="cls-1" d="M155.4,182.77c0,.44,0,1,0,1.95,0,.5.06,1.08.1,1.66,0,.33.06.66.08,1a5.85,5.85,0,0,0,.79-3.15,4.47,4.47,0,0,0-.82-2.72c0,.55-.08,1-.11,1.28Z"/><path class="cls-1" d="M156,192.84l.22.17-.25-.26Z"/><path class="cls-1" d="M156.51,193.3l.19.21h0l0-.08Z"/><path class="cls-1" d="M155.16,191.06h0l.12.6c.12.2.26.39.4.58l-.09-.45C155.43,191.56,155.29,191.32,155.16,191.06Z"/><path class="cls-1" d="M156.85,193.63l.06.06-.08-.09Z"/><path class="cls-1" d="M155.45,186.52c0-.47-.06-.94-.08-1.41,0-.14,0-.27,0-.4v-.35c0-.34,0-.6,0-.88a.45.45,0,0,1,0-.11,2.18,2.18,0,0,1,0-.25c0-.24,0-.47,0-.7s0-.62.07-.95v0c0,.16,0,.32,0,.48-.08.93-.11,1.87-.1,2.82,0,.78.06,1.54.13,2.3,0,.13,0,.25,0,.37l0,0c0-.14,0-.27,0-.4S155.46,186.67,155.45,186.52Z"/><path class="cls-1" d="M152.92,189.26l.16,0c-.07-.15-.13-.31-.2-.47C152.9,188.93,152.91,189.1,152.92,189.26Z"/><path class="cls-1" d="M154.31,177.69l-.16.25.14-.07C154.3,177.81,154.3,177.75,154.31,177.69Z"/><path class="cls-1" d="M153.38,189.14c0-.52-.09-1-.13-1.58a13.2,13.2,0,0,1-.4-3.05,13.67,13.67,0,0,1,.39-3.41c0-.29,0-.58.08-.88l-.25-.05c-.11.3-.21.61-.29.92-.09,1.3-.13,2.61-.11,3.94,0,.84.06,1.67.11,2.5a10.67,10.67,0,0,0,.56,1.62Z"/><path class="cls-1" d="M152.35,184.49v0Z"/><path class="cls-1" d="M156.62,192.77a2.12,2.12,0,0,1-.11-.21l.06.2Z"/><path class="cls-1" d="M155.16,189.54c0-.1,0-.2,0-.3l0,0C155.11,189.36,155.13,189.45,155.16,189.54Z"/><path class="cls-1" d="M155.17,177.55c.12-.25.25-.5.39-.73s.07-.31.11-.46c-.14.18-.28.37-.41.57l-.12.62Z"/><path class="cls-1" d="M155.72,179.84a6.28,6.28,0,0,1,0,8.92c0,.05,0,.09,0,.14l0-.14h0l0,.14c.07.44.18.86.27,1.29a6.73,6.73,0,0,0,0-11.77c-.1.45-.2.9-.28,1.36A.13.13,0,0,0,155.72,179.84Z"/><path class="cls-1" d="M156.16,191.57c0-.2-.1-.41-.14-.62l-.09,0C156,191.17,156.08,191.37,156.16,191.57Z"/><path class="cls-1" d="M157.09,175.06l0,0,0,0Z"/><path class="cls-1" d="M156.13,192c.1.21.21.42.32.63l-.15-.54c-.12-.28-.24-.56-.35-.85C156,191.53,156.06,191.78,156.13,192Z"/><path class="cls-1" d="M156.78,193.1l-.12,0c.08.13.14.26.22.39h0Z"/><path class="cls-1" d="M156.06,176l-.17.07-.06.28C155.9,176.27,156,176.15,156.06,176Z"/><path class="cls-1" d="M154,178.84c.07-.14.12-.27.19-.4l.06-.44h-.15c-.11.18-.23.36-.33.55l0,.22Z"/><path class="cls-1" d="M154.94,177.54s0-.06,0-.09l-.06.12Z"/><path d="M151.92,181.06a10.1,10.1,0,0,0-.47,2.55c0,.42,0,.83,0,1.24a10.51,10.51,0,0,0,.47,2.66c0-.8-.09-1.61-.1-2.43C151.79,183.72,151.83,182.38,151.92,181.06Z"/><path d="M152,188.68a8.65,8.65,0,0,1-.47-1.17c1.42,23.74,18.38,42.35,38.95,42.35l-.67-1.22C170.16,228.64,153.9,211.19,152,188.68Z"/><path d="M189.16,140h.68l.66-1.22h-.69c-20.4.42-36.86,19-38.27,42.28A8.09,8.09,0,0,1,152,180C153.85,157.84,169.66,140.37,189.16,140Z"/><path d="M152.52,180.13c0,.31-.05.63-.07,1,.09-.32.2-.63.31-.94Z"/><path d="M152.78,181.09a11.89,11.89,0,0,0-.43,3.35v.07a11.9,11.9,0,0,0,.43,3c-.05-.83-.09-1.66-.11-2.5C152.65,183.7,152.69,182.39,152.78,181.09Z"/><path d="M152.78,178.62h-.08s.06,0,.08,0h0a4,4,0,0,1,.24-.33c2.46-19.7,16.84-35,34.46-35.35h.64l.68-1.18h-.65c-18.34.38-33.28,16.48-35.54,37.09a2.43,2.43,0,0,1,.14-.2Z"/><path d="M152.79,190h-.09l0-.2,0,0c2.31,21,17.68,37.08,36.16,37.08l-.68-1.18c-17.76,0-32.56-15.29-35.07-35.35l-.24-.32Z"/><path d="M152.74,189.3h-.06l.09.16C152.83,189.4,152.87,189.32,152.74,189.3Z"/><path d="M152.74,189.3l.18,0c0-.16,0-.33,0-.5a10.07,10.07,0,0,1-.43-1.24c0,.54.07,1.07.12,1.61l.09.16Z"/><path d="M153.86,178c0-.16,0-.33.07-.49-.12.12-.24.25-.35.38s-.07.45-.1.68C153.6,178.41,153.73,178.23,153.86,178Z"/><path d="M154,177.36c2.77-17.66,15.89-31.19,31.87-31.52h.59c.24-.38.47-.76.7-1.15h-.61c-16.61.34-30.22,14.54-32.89,33Z"/><path d="M153.6,190.92c2.71,18.79,16.72,33,33.49,33l-.7-1.15c-16.12,0-29.61-13.53-32.43-31.51Z"/><path d="M153.79,178.54a1.24,1.24,0,0,0-.1.2l.07,0Z"/><path d="M153.69,189.87l.1.2,0-.21Z"/><path d="M153.53,181.13a13.57,13.57,0,0,0,0,6.43c-.06-.85-.11-1.71-.12-2.58C153.4,183.68,153.44,182.39,153.53,181.13Z"/><path d="M153.49,190c0,.23,0,.45.08.68s.24.26.36.39c0-.17-.05-.34-.08-.51S153.6,190.2,153.49,190Z"/><path d="M153.32,180.22c0,.3-.06.59-.08.88.07-.28.15-.57.23-.84Z"/><path d="M153.64,188.83c-.15-.41-.28-.84-.39-1.27,0,.53.08,1.06.13,1.58l.28-.11A1.5,1.5,0,0,0,153.64,188.83Z"/><path d="M154.32,190.93l.33.48-.09-.53-.27-.14Z"/><path d="M154.44,191.66c2.93,16.84,15.69,29.43,30.89,29.43-.23-.37-.47-.74-.71-1.11-14.61,0-26.9-12-29.89-28.1l-.16-.11A1.5,1.5,0,0,0,154.44,191.66Z"/><path d="M154.7,177l0-.19c-.1.09-.21.17-.3.26l-.06.32A4.24,4.24,0,0,1,154.7,177Z"/><path d="M153.93,187.57c0,.43.07.85.11,1.27l.19-.1Q154.07,188.17,153.93,187.57Z"/><path d="M154.27,190.62l.15,0c-.07-.14-.14-.3-.22-.44C154.23,190.31,154.24,190.46,154.27,190.62Z"/><path d="M154.55,177.74c0-.18.07-.35.1-.53a5.85,5.85,0,0,0-.34.48c0,.06,0,.12,0,.18Z"/><path d="M154.27,178l-.06.44c.07-.14.14-.29.22-.43Z"/><path d="M154.16,181.13a16,16,0,0,0-.32,3.42,15.71,15.71,0,0,0,.33,3c-.06-.87-.11-1.76-.13-2.65C154,183.65,154.06,182.38,154.16,181.13Z"/><path d="M154.74,176.72c2.94-15.82,14.88-27.79,29.36-28.09h.54c.24-.37.48-.74.71-1.11h-.56c-15.06.3-27.47,12.89-30.35,29.42a.69.69,0,0,0,.13-.11Z"/><path d="M154.38,191.28c0,.1,0,.2.05.3l.29.26,0-.19C154.59,191.53,154.48,191.41,154.38,191.28Z"/><path d="M154.46,190.2c0-.18-.05-.38-.07-.56l-.17.07Z"/><path d="M154,180.4c0,.25-.05.49-.07.74.05-.24.09-.48.15-.71Z"/><path d="M154.46,178.39c-.08.17-.16.34-.23.52l.15.06C154.41,178.78,154.44,178.58,154.46,178.39Z"/><path d="M155,177.54h.19l.12-.62c-.11.17-.2.35-.31.52s0,.06,0,.09Z"/><path d="M155.17,176.48l0,0h0Z"/><path d="M154.53,180.63c0,.16,0,.33,0,.49a3.4,3.4,0,0,1,.09-.46Z"/><path d="M155,191.58c0,.13.05.25.07.38s.17.2.26.29h0l-.06-.29C155.22,191.84,155.12,191.72,155,191.58Z"/><path d="M155.13,192.11h0l0,0Z"/><path d="M154.88,179.23c.05-.32.08-.63.13-.94-.1.25-.21.51-.3.78v.05Z"/><path d="M182.33,151.33h.5l.73-1.07H183c-13.62.27-24.9,11.38-27.9,26.16l.26-.18C158.44,162.15,169.27,151.6,182.33,151.33Z"/><path d="M154.85,190.55h.07l-.11-.24C154.82,190.38,154.84,190.47,154.85,190.55Z"/><path d="M154.85,178.06a2,2,0,0,0,0,.26,2.6,2.6,0,0,0,.1-.25Z"/><path d="M154.68,181.11a18,18,0,0,0-.29,3.47,18.61,18.61,0,0,0,.3,3c-.08-.9-.13-1.8-.14-2.71C154.53,183.61,154.58,182.35,154.68,181.11Z"/><path d="M155.05,191.07h-.11s0,.06,0,.09a5.24,5.24,0,0,0,.3.51l-.12-.6Z"/><path d="M154.5,187.59c0,.3.05.6.08.9l.09-.09C154.61,188.13,154.55,187.86,154.5,187.59Z"/><path d="M155.31,176.66c0-.1,0-.21.07-.31l-.28.3c0,.13,0,.25-.07.37Z"/><path d="M183.54,218.35l-.73-1.07c-13.18,0-24.32-10.56-27.41-24.92l-.25-.17C158.21,207.23,169.79,218.35,183.54,218.35Z"/><path d="M154.7,189.51c.1.29.21.57.33.85-.06-.32-.1-.65-.15-1l-.18.11Z"/><path d="M155.87,176a.46.46,0,0,0,.07-.07l0-.1-.05,0-.17.16V176Z"/><path d="M155.83,176.39l.06-.28-.07,0-.15.22c0,.15-.08.3-.11.46Z"/><path d="M155.42,177.56h.12a.47.47,0,0,0,.05-.1c0-.25.11-.49.16-.74-.1.18-.19.36-.28.55A2.74,2.74,0,0,0,155.42,177.56Z"/><path d="M154.94,187.57c0,.18,0,.36,0,.53,0,0,0,0,.05,0Z"/><path d="M155,180.93c0,.06,0,.12,0,.18l0-.18Z"/><path d="M155.86,192.65l-.13-.08v.05c.06.06.11.12.17.17l.07.05,0-.09Z"/><path d="M155.31,190.45h0v0Z"/><path d="M155.26,189.14l-.14.1c0,.1,0,.2,0,.3.09.29.19.58.29.87h0C155.39,190,155.32,189.56,155.26,189.14Z"/><path d="M180.52,153.93H181l.75-1h-.48c-12.22.25-22.39,10-25.49,23l.21-.18C159.1,163.33,168.84,154.17,180.52,153.93Z"/><path d="M155.08,187.56c-.08-.9-.14-1.81-.15-2.72a35.73,35.73,0,0,1,.15-3.75,20.1,20.1,0,0,0,0,6.47Z"/><path d="M155.76,192.68c3.14,13.31,13.61,23,26,23l-.74-1c-11.8,0-21.81-9.17-25-21.81l0,0Z"/><path d="M155.54,191h-.13l.06.31c.09.17.18.35.28.52l-.15-.7Z"/><path d="M155.57,191.8l.09.45a1.77,1.77,0,0,0,.16.22l.07,0c0-.1,0-.19-.07-.28Z"/><path d="M155.12,179.38l.14.09c.06-.42.13-.84.2-1.26h0c-.09.26-.19.52-.27.78Z"/><path d="M155.31,178.16v.05l0-.05Z"/><path d="M156,192c0,.18.09.37.14.55l.08.13.09,0-.06-.23C156.14,192.28,156.06,192.11,156,192Z"/><path d="M156.26,192.86l-.06,0s0,.1.05.16l.09.1.08.05a.24.24,0,0,1,0-.08Z"/><path d="M155.77,177.61h.07c0-.08.07-.16.1-.25l.18-.78c-.09.18-.16.36-.25.55S155.8,177.45,155.77,177.61Z"/><path d="M155.28,187.76v0a2,2,0,0,0,0-.24Z"/><path d="M155.43,189c0,.23.07.46.11.69s.12.41.19.62h0c-.08-.43-.16-.87-.22-1.31V189Z"/><path d="M155.78,191c0,.17.06.33.1.49s.16.36.25.54c-.07-.25-.13-.5-.18-.76,0-.09-.07-.19-.11-.28Z"/><path d="M156.25,175.75l.15-.21a.19.19,0,0,0,0-.08l-.08,0-.09.1c0,.06,0,.11-.05.16Z"/><path d="M156.46,175.33c3.15-10.82,11.86-18.69,22.22-18.9h.42l.76-1h-.44c-10.88.23-20,8.61-23.14,20.06l.07-.06Z"/><path d="M156.27,193.1c3.2,11.67,12.57,20.07,23.57,20.07l-.75-1c-10.47,0-19.42-7.88-22.63-18.89l-.11-.13Z"/><path d="M155.12,184.65a25.77,25.77,0,0,0,.22,2.81q-.12-1.32-.15-2.67a34,34,0,0,1,.15-3.51h0A23.51,23.51,0,0,0,155.12,184.65Z"/><path d="M156.22,176.2c0-.09.05-.17.07-.26l-.08,0a1.3,1.3,0,0,0-.1.15c-.05.17-.08.34-.12.5Z"/><path d="M156.71,193.45l0,0,0,.08.14.12,0,0Z"/><path d="M156.86,174.94C160,165.66,167.7,159,176.8,158.83h.38l.78-1h-.41c-9.58.2-17.67,7.31-20.83,17.19l.09-.09Z"/><path d="M156.49,192.74l.08,0-.06-.2-.21-.44.15.54Z"/><path d="M156.57,175.6c.06-.1.11-.2.17-.29l0-.07-.12.07h0c0,.1-.07.19-.09.29Z"/><path d="M155.62,188.85c0,.28.09.56.14.83l.15.56h0c-.08-.4-.15-.8-.22-1.2a2.25,2.25,0,0,0-.05-.22Z"/><path d="M156.49,175.87l0,.08c0,.17-.1.34-.14.51l.18-.37c0-.08,0-.16.07-.23Z"/><path d="M155.76,179c0,.27-.09.54-.13.81l0,0,0-.17c.06-.42.14-.84.22-1.25h0C155.85,178.56,155.81,178.76,155.76,179Z"/><path d="M156.71,193.53c3.22,10.07,11.54,17.2,21.23,17.2-.25-.32-.51-.63-.77-.95-9.2,0-17.1-6.65-20.31-16.11l-.05,0Z"/><path d="M155.46,187.51v0c0-.11,0-.21,0-.31C155.44,187.29,155.44,187.4,155.46,187.51Z"/><path d="M156,191c0,.21.09.42.14.62l.23.6c-.08-.29-.15-.58-.22-.87l-.12-.35Z"/><path d="M156,177.66h0l.11-.33.24-.89c-.09.2-.17.41-.25.62S156.06,177.46,156,177.66Z"/><path d="M155.46,187.05c-.07-.76-.11-1.52-.13-2.3,0-.95,0-1.89.1-2.82a25,25,0,0,0-.13,2.76C155.32,185.49,155.38,186.27,155.46,187.05Z"/><path d="M156.71,175.16l.12-.14,0,0-.14.11,0,.09Z"/><path d="M156.57,193h0l.09.28.11.08s0-.06,0-.09S156.62,193.1,156.57,193Z"/><path d="M155.74,188.9c0-.05,0-.09,0-.14h0Z"/><path d="M155.73,179.78v.06h0A.13.13,0,0,1,155.73,179.78Z"/><path d="M155.49,187c0-.16,0-.32,0-.47C155.46,186.67,155.47,186.83,155.49,187Z"/><path d="M155.5,181.48h0c0,.33-.06.59-.07.95C155.44,182.1,155.47,181.79,155.5,181.48Z"/><path d="M155.36,184.72c0-.92,0-1.51,0-1.95,0,.65-.05,1.29,0,1.95Z"/><path d="M155.36,183.48v-.11A.45.45,0,0,0,155.36,183.48Z"/><path d="M155.36,184.72c0-.13,0-.25,0-.36v.35c0,.13,0,.26,0,.4,0-.13,0-.26,0-.38Z"/><path d="M155.54,187.36h0c0-.32,0-.65-.08-1C155.49,186.71,155.51,187,155.54,187.36Z"/><path d="M155.42,182.42c0,.23,0,.46,0,.7,0-.11,0-.22,0-.35S155.41,182.53,155.42,182.42Z"/><path d="M155.72,188.76h0c0,.15,0,.3.07.44s.08.48.14.72v0l.06.23h0c-.09-.43-.2-.85-.27-1.29Z"/><path d="M156.34,177.12l0-.12s0,0,0,0S156.35,177.1,156.34,177.12Z"/><path d="M155.89,178.83l-.18,1h0v-.06c.08-.46.18-.91.28-1.36h0C156,178.55,155.93,178.69,155.89,178.83Z"/><path d="M156.15,190.93c.06.24.12.49.19.73s.16.45.25.68c-.07-.23-.14-.46-.2-.68v0l0-.06c0-.12-.07-.24-.11-.36s-.06-.18-.08-.28Z"/><path d="M156.9,193.45l.09,0c-.08-.13-.14-.26-.21-.39h0Z"/><path d="M155.4,182.77c0-.32.06-.73.11-1.28h0C155.46,181.91,155.43,182.34,155.4,182.77Z"/><path d="M156.85,175.48l.06-.15s0,.11-.08.16Z"/><path d="M156.91,193.28l-.06-.15h0S156.88,193.23,156.91,193.28Z"/><path d="M155.49,187c0,.13,0,.26,0,.4v0C155.52,187.24,155.5,187.12,155.49,187Z"/><path d="M157.13,193.92l.05.06v0Z"/><path d="M157.19,174.59c3.1-7.82,9.82-13.3,17.69-13.46h.36l.78-.9h-.37c-8.36.17-15.48,6.12-18.6,14.53l.1-.12Z"/><path d="M156.34,177l-.19.73h0c.08-.29.17-.58.26-.86h0Z"/><path d="M157,193.64c0,.05,0,.1.05.15h0l.12.1v0Z"/><path d="M156.68,192.79h0l-.06-.17-.18-.45c.06.19.11.39.18.58Z"/><path d="M155.36,184.72c0,.5.06,1.08.1,1.66C155.42,185.8,155.38,185.22,155.36,184.72Z"/><path d="M157.17,174.63a.1.1,0,0,1,0,.05l0,0Z"/><path d="M155.45,186.52c0-.47-.06-.94-.08-1.41C155.39,185.58,155.41,186.05,155.45,186.52Z"/><path d="M156.45,176.74c0-.15.08-.29.13-.44-.06.15-.11.31-.17.46Z"/><path d="M156.68,175.82v0q-.12.33-.21.66c.06-.16.12-.32.19-.48s.05-.14.07-.21Z"/><path d="M157,175.11l-.09,0-.12.35Z"/><path d="M157.08,174.87a.18.18,0,0,1-.05.07h0Z"/><path d="M157.13,174.75v0l-.11.09h0L157,175Z"/><polygon points="155.4 182.78 155.4 182.77 155.4 182.77 155.4 182.78"/><path d="M155.35,184.36c0-.29,0-.59,0-.88C155.35,183.76,155.35,184,155.35,184.36Z"/><path d="M157.09,193.75l0-.07,0,0Z"/><path d="M155.37,183.37c0-.08,0-.17,0-.25A2.18,2.18,0,0,0,155.37,183.37Z"/><path d="M157,193.85c3.18,8.57,10.49,14.54,19,14.54l-.78-.9c-8,0-14.87-5.5-18-13.46l0,0Z"/><path d="M155.38,183.12c0,.08,0,.17,0,.25v.11c0,.29,0,.59,0,.88,0,.11,0,.23,0,.36,0-.66,0-1.3,0-1.95h0C155.39,182.9,155.39,183,155.38,183.12Z"/><path d="M155.36,184.73c0,.12,0,.25,0,.38,0,.47,0,.94.08,1.41,0,.15,0,.31,0,.47s0,.25,0,.38h0c0-.32,0-.65-.08-1,0-.58-.08-1.16-.1-1.66h0Z"/><path d="M157.06,193.53l0,0h0l-.18-.4h0C157,193.28,157,193.4,157.06,193.53Z"/><path d="M157.32,194.15l.05,0-.07-.09Z"/><path d="M156.75,192.7l-.2-.56c0,.13.09.27.13.4S156.73,192.65,156.75,192.7Z"/><path d="M157.18,193.78v0h0Z"/><path d="M156.79,192.82s0-.08,0-.12l0,.11Z"/><path d="M157.28,194a.36.36,0,0,1,0-.09l-.06-.09.07.16Z"/><path d="M157.34,194.14v0l0,0Z"/><path d="M157.05,193.46l-.12-.3h0Z"/><path d="M157.35,194.2h0c3.1,7.11,9.42,12,16.69,12l-.79-.86c-6.83,0-12.79-4.46-15.84-11l-.05,0Z"/><path d="M156.25,191.2l.06.19-.12-.47h0C156.2,191,156.23,191.11,156.25,191.2Z"/><path d="M155.48,181.45h0c0,.16,0,.32,0,.48C155.44,181.77,155.46,181.61,155.48,181.45Z"/><path d="M155.7,179.63l0,.17,0,0c.06-.34.11-.68.18-1,0-.14.06-.28.1-.43h0Q155.82,179,155.7,179.63Z"/><path d="M156.42,176.83c0,.06,0,.11,0,.16l.05-.16Z"/><path d="M156.39,191.65c.05.17.11.33.16.49l-.24-.75c0,.05,0,.12.05.17Z"/><polygon points="156.68 192.54 156.39 191.66 156.39 191.66 156.68 192.54"/><path d="M156.19,177.7c.05-.2.09-.39.15-.58-.05.19-.12.38-.16.57Z"/><path d="M155.25,184.67a23,23,0,0,0,.18,2.51c-.08-.8-.13-1.6-.14-2.41a31.22,31.22,0,0,1,.14-3.37v0A23.85,23.85,0,0,0,155.25,184.67Z"/><path d="M156.69,176.06c-.09.22-.16.45-.24.68h0Z"/><path d="M155.67,188.8a1.85,1.85,0,0,1,0,.23c.08.4.17.79.27,1.18h0a1.55,1.55,0,0,1-.05-.23v0c-.05-.24-.1-.48-.14-.72s-.06-.29-.08-.44Z"/><path d="M155.5,187.44v0c0-.12,0-.24,0-.37C155.47,187.18,155.48,187.31,155.5,187.44Z"/><path d="M155.71,189a1.85,1.85,0,0,0,0-.23h0A2.25,2.25,0,0,1,155.71,189Z"/><path d="M155.43,187.18c0,.1,0,.2,0,.31l0-.05c0-.13,0-.26,0-.39-.08-.78-.14-1.56-.16-2.36a25,25,0,0,1,.13-2.76c0-.16,0-.32,0-.48l0,0a31.22,31.22,0,0,0-.14,3.37C155.3,185.58,155.35,186.38,155.43,187.18Z"/><path d="M155.67,179.8l0-.17,0,.17Z"/><path d="M156.38,177c0-.05,0-.1,0-.16h0c-.09.28-.18.57-.26.86h0c0-.19.11-.38.16-.57,0,0,0-.05,0-.08Z"/><path d="M156,178.41h0c0,.15-.07.29-.1.43C155.93,178.69,156,178.55,156,178.41Z"/><path d="M155.79,189.21c0,.24.09.48.14.72C155.87,189.69,155.84,189.45,155.79,189.21Z"/><path d="M156,190.2l-.06-.23a1.55,1.55,0,0,0,.05.23Z"/><path d="M156.39,191.66h0v0l0-.09,0,.06Z"/><path d="M156.25,191.2c0-.09-.05-.18-.08-.28h0C156.19,191,156.23,191.11,156.25,191.2Z"/><path d="M156.39,191.66l.29.88c0-.13-.08-.27-.13-.4s-.11-.32-.16-.49Z"/><path d="M156.39,191.66h0v0Z"/><path d="M157.37,174.4l-.05.06,0,0Z"/><path d="M156.9,175.46h0c.06-.12.12-.24.17-.36l0,0,0,0C157,175.21,157,175.33,156.9,175.46Z"/><path d="M156.93,175.45l.12-.3c0,.1-.08.2-.13.3Z"/><path d="M156.38,177h0l.06-.17h0Z"/><path d="M156.69,176.06h0l-.23.67h0c.08-.27.17-.53.27-.8a1.12,1.12,0,0,0-.05.13Z"/><path d="M156.74,175.93a.69.69,0,0,1,0-.13h0Z"/><path d="M157.23,174.71a.93.93,0,0,1,.05-.1l0,0c0,.06-.05.12-.08.17Z"/><path d="M157.34,174.47l0,0h0Z"/><polygon points="157.18 174.85 157.18 174.85 157.17 174.85 157.18 174.85"/><path d="M157.41,174.35c3-6.45,8.78-10.89,15.52-11h.32l.8-.87h-.34c-7.18.14-13.33,5-16.38,12h0Z"/><path d="M156.36,177s0,0,0,0h0Z"/><rect x="156.4" y="176.83" height="0.17"/><polygon points="156.46 176.73 156.69 176.06 156.69 176.06 156.46 176.73 156.46 176.73"/><polygon points="156.36 177.04 156.38 176.99 156.38 176.99 156.36 177.04"/><path d="M157.55,194.45h0l0,0v0c3,5.78,8.36,9.63,14.52,9.63l-.81-.82c-5.72,0-10.77-3.48-13.66-8.74v0Z"/><path d="M157.51,194.38l0,0h0a.25.25,0,0,1,0,.07l0,0,0,0Z"/><path d="M157.47,194.3a.21.21,0,0,1,0-.06l0,0Z"/><path d="M157.52,194.39h0v0h0Z"/><path d="M157.28,194l.05.07h0l-.13-.26h0C157.23,193.84,157.25,193.9,157.28,194Z"/><path d="M157.47,194.3h0l-.08-.13h0A.83.83,0,0,0,157.47,194.3Z"/><path d="M156.39,176.77c0-.09.05-.18.08-.27l-.12.3Z"/><path d="M155,184.64a22.36,22.36,0,0,0,.23,2.86c-.08-.88-.13-1.78-.15-2.69a33.47,33.47,0,0,1,.15-3.63h0A20.74,20.74,0,0,0,155,184.64Z"/><path d="M155.36,187.64h0l0-.17C155.35,187.52,155.35,187.58,155.36,187.64Z"/><path d="M155.52,188.94V189c.09.43.2.85.32,1.27h0c0-.19-.07-.39-.11-.58s-.12-.53-.17-.8Z"/><path d="M155.55,179.47l0,.21.06,0,.18-.78c0-.2.07-.4.11-.59l0,0C155.74,178.72,155.64,179.09,155.55,179.47Z"/><path d="M156.34,176.83c-.07.16-.12.33-.18.5s0,.23-.07.34h0c.07-.24.15-.48.23-.72,0,0,0-.08,0-.12Z"/><path d="M157.09,175.07h0Z"/><path d="M156.08,190.94l.09.36c.1.29.21.59.32.88l-.15-.52c-.08-.24-.16-.48-.23-.73Z"/><path d="M157.09,193.55h0a.36.36,0,0,0,0-.09l0,.08Z"/><path d="M157.05,175.15a.59.59,0,0,1,0-.08l0,0Z"/><path d="M156.66,176c0,.09,0,.19-.08.28.06-.17.13-.33.2-.5h0Z"/><path d="M156.74,192.8h0c-.07-.16-.13-.31-.19-.47,0,.09,0,.19.08.29S156.72,192.75,156.74,192.8Z"/><path d="M155.53,189v-.06h0Z"/><path d="M155.52,179.68l0-.21a1.42,1.42,0,0,1,0,.2Z"/><path d="M155.25,187.5a2,2,0,0,1,0,.24l.07-.1c0-.06,0-.12,0-.18a25.77,25.77,0,0,1-.22-2.81,23.51,23.51,0,0,1,.21-3.38.73.73,0,0,1-.08-.09,33.47,33.47,0,0,0-.15,3.63C155.12,185.72,155.17,186.62,155.25,187.5Z"/><path d="M156.17,191.3l-.09-.36h0Z"/><path d="M156.09,177.67c0-.11,0-.23.07-.34l-.11.33Z"/><path d="M155.91,190.24l-.15-.56c0,.19.07.39.11.58Z"/><path d="M155.9,178.37h0c0,.19-.07.39-.11.59C155.81,178.76,155.85,178.56,155.9,178.37Z"/><path d="M156.47,176.5c0,.09-.05.18-.08.27h0c.06-.15.11-.31.17-.46s0-.19.08-.28C156.59,176.18,156.53,176.34,156.47,176.5Z"/><path d="M156.49,192.18l.18.45c0-.1,0-.2-.08-.29s-.17-.45-.25-.68Z"/><path d="M156.34,177l0-.12h0S156.35,176.91,156.34,177Z"/><path d="M156.9,193.14l.18.4,0-.08-.13-.31Z"/><path d="M156.9,175.46h0c.05-.1.09-.2.13-.3l0-.05C157,175.22,157,175.34,156.9,175.46Z"/><path d="M157.28,194c0-.06-.05-.12-.08-.19h0Z"/><path d="M157.28,174.66c0,.05-.05.11-.08.17h0l.13-.26h0Z"/><path d="M157.51,174.23h0l0,0h0v0a.22.22,0,0,0,0,.08h0Z"/><path d="M157.51,174.23h0v0h0Z"/><path d="M157.4,174.43h0a.83.83,0,0,1,.07-.13h0A.54.54,0,0,1,157.4,174.43Z"/><path d="M157.45,174.32l0,.06a.25.25,0,0,1,0-.07Z"/><path d="M157.56,174.14c2.83-5.16,7.74-8.63,13.39-8.74h.28c.28-.27.55-.55.81-.82h-.3c-6.07.12-11.33,4-14.23,9.63l0-.05Z"/><path d="M157.2,174.83c0-.06.05-.12.08-.17l-.08.17Z"/><path d="M157.61,194.54v0h0Z"/><path d="M157.56,194.46h0l0-.07h0Z"/><path d="M170,202l-.82-.77a14,14,0,0,1-11.57-6.7C160.37,199.07,164.9,202,170,202Z"/><path d="M157.53,194.4h0Z"/><path d="M157.43,174.38l-.05.07h0Z"/><path d="M157.18,193.82l0-.08h0Z"/><path d="M157,193.52c0-.08-.09-.15-.13-.24,0,.08.06.15.08.22Z"/><path d="M157.05,175.08l-.06,0a1.43,1.43,0,0,1-.08.22Z"/><path d="M157.18,174.85c0-.09.09-.18.14-.27l0,0-.07.11S157.2,174.8,157.18,174.85Z"/><path d="M157.15,174.87l0-.07s0,0,0,.08Z"/><path d="M155.08,181.09V181h0Z"/><path d="M157.29,194l0,0-.14-.25.06.13Z"/><path d="M156.62,192.77l.06,0v0c-.1-.2-.19-.39-.28-.59l.12.39A2.12,2.12,0,0,0,156.62,192.77Z"/><polygon points="156.78 175.51 156.78 175.51 156.78 175.51 156.78 175.51"/><path d="M157.39,194.17v0l.05.09Z"/><path d="M155.11,188l0,0c0-.12-.05-.24-.07-.36Z"/><path d="M156.62,175.84l-.13.25-.09.35c.09-.2.18-.4.28-.6h-.06Z"/><path d="M155.27,189.13c.11.41.22.82.35,1.22h0c0-.21-.08-.42-.11-.64s-.11-.43-.16-.65Z"/><path d="M155.89,191l.06.29c.11.29.23.57.35.85-.05-.18-.09-.37-.14-.55s-.16-.4-.23-.6Z"/><path d="M155.11,188l0-.4a20.1,20.1,0,0,1,0-6.47V181l-.12-.09,0,.18c-.1,1.23-.16,2.48-.14,3.74,0,.92.07,1.83.15,2.72l.09.48Z"/><path d="M155.73,190.32c-.07-.21-.13-.41-.19-.62,0,.22.07.43.11.64Z"/><path d="M155.88,177.63l.06-.26c0,.09-.07.17-.1.25Z"/><path d="M156,191.27l-.06-.29h0C155.88,191.08,155.91,191.18,156,191.27Z"/><path d="M156.3,192.12l.21.44-.12-.39-.23-.6C156.21,191.75,156.25,191.94,156.3,192.12Z"/><path d="M156.31,176.46c-.05.2-.11.4-.16.6.08-.21.16-.42.25-.62l.09-.35Z"/><path d="M156.68,192.79v0Z"/><path d="M156.78,193.1c.07.13.13.26.21.39h0c0-.07-.05-.14-.08-.22s0-.11-.08-.16Z"/><path d="M156.78,175.51h0l.05,0c0-.05,0-.11.08-.16a1.43,1.43,0,0,0,.08-.22h0Z"/><polygon points="156.68 175.84 156.68 175.82 156.68 175.82 156.68 175.84"/><path d="M157.15,193.74l0,.08.06.09-.06-.13v0Z"/><path d="M157.17,174.8l0,.07,0,0h0s0-.1,0-.14Z"/><polygon points="157.52 194.39 157.51 194.38 157.51 194.38 157.52 194.39"/><path d="M157.43,194.24a.21.21,0,0,0,0,.06h0a.83.83,0,0,1-.07-.13h0Z"/><path d="M157.51,174.23h0v0Z"/><path d="M157.43,174.38l0,.06h0a.54.54,0,0,0,.07-.13h0A.25.25,0,0,0,157.43,174.38Z"/><path d="M157.56,194.45h0l0-.06v0Z"/><path d="M157.51,194.38l0,0v0h0Z"/><path d="M168.93,167.38h.26l.82-.77h-.27c-5,.1-9.45,3.05-12.14,7.5A13.92,13.92,0,0,1,168.93,167.38Z"/><path d="M157.53,174.2h0a.43.43,0,0,1,0-.07h0Z"/><polygon points="157.6 174.1 157.59 174.1 157.59 174.1 157.6 174.1"/><path d="M157.52,174.21h0Z"/><path d="M157.53,174.2l0,0h0l0,0Z"/><path d="M157.54,174.19l0,0v0h0Z"/><polygon points="157.5 194.38 157.5 194.38 157.51 194.4 157.51 194.4 157.5 194.38"/><path d="M157.57,194.47v0h0v0l0,0,0,0Z"/><path d="M167.93,200.11c-.27-.25-.55-.49-.83-.73a12.16,12.16,0,0,1-9.53-4.91l0,0A12.83,12.83,0,0,0,167.93,200.11Z"/><path d="M157.53,194.43l0,0h0v0Z"/><polygon points="157.51 194.4 157.51 194.4 157.52 194.42 157.51 194.4"/><path d="M157.57,194.48l0,0h0l0,0h0Z"/><path d="M157.57,194.47h0v0h0Z"/><path d="M156.66,175.56h0l.23-.39-.09.05-.06.09A2.41,2.41,0,0,0,156.66,175.56Z"/><path d="M157.49,174.26l0,0h0l-.06.09s0,0,0,0Z"/><path d="M157.3,194.11l0,0,0,0Z"/><path d="M157,175l0,0h0Z"/><path d="M157.42,174.35l0,.05a.25.25,0,0,1,0,.07A.83.83,0,0,0,157.42,174.35Z"/><path d="M156.45,192.66c-.11-.21-.22-.42-.32-.63,0,.14.06.27.1.41l.16.27.08,0A.24.24,0,0,1,156.45,192.66Z"/><path d="M157.3,174.51l0,.06,0,0Z"/><path d="M157.38,194.21l0,0a1,1,0,0,1-.08-.11A.25.25,0,0,1,157.38,194.21Z"/><path d="M157.49,194.36v0l0,0,.06.08v0Z"/><path d="M154.74,180.78l0,0,0,.35Z"/><path d="M157.13,193.87l0,0,.07.05-.14-.21S157.12,193.83,157.13,193.87Z"/><path d="M157,193.61l0,0v0Z"/><path d="M156.66,193.05h0a2,2,0,0,0,.07.23.41.41,0,0,0,.07.11l.08.05C156.8,193.31,156.74,193.18,156.66,193.05Z"/><path d="M157.23,174.64l-.06.05,0,.06,0,.12Z"/><path d="M154.75,188.33l-.06-.74a18.61,18.61,0,0,1-.3-3,18,18,0,0,1,.29-3.47l0-.35a.57.57,0,0,0-.13-.1,3.4,3.4,0,0,0-.09.46c-.1,1.24-.15,2.5-.13,3.78,0,.91.07,1.8.14,2.69.05.27.11.54.17.81Z"/><path d="M155.45,178.2l-.13,0,0,.05-.12.77C155.26,178.72,155.36,178.46,155.45,178.2Z"/><path d="M155.54,191l.06.14,0-.14Z"/><path d="M155.31,190.43v0l.13,0c-.1-.29-.2-.58-.29-.87C155.2,189.84,155.26,190.13,155.31,190.43Z"/><path d="M155.59,177.47a.47.47,0,0,1-.05.1h0A.43.43,0,0,0,155.59,177.47Z"/><path d="M156.12,176.59c0-.13.07-.26.1-.39l-.23.43-.12.51C156,177,156,176.77,156.12,176.59Z"/><path d="M156,192c.08.16.16.33.25.49,0-.14-.07-.27-.1-.41s-.17-.36-.25-.54C155.91,191.64,155.94,191.8,156,192Z"/><path d="M156.49,192.74l0-.08a.24.24,0,0,0,0,.08Z"/><path d="M156.73,193.28a2,2,0,0,1-.07-.23l-.09,0C156.62,193.1,156.67,193.19,156.73,193.28Z"/><path d="M156.74,175.31c-.06.09-.11.19-.17.29l.09,0A2.41,2.41,0,0,1,156.74,175.31Z"/><path d="M156.47,175.88s0,.05,0,.07l0-.08Z"/><path d="M157,174.94a.18.18,0,0,0,.05-.07l0-.12L157,175h0A.18.18,0,0,0,157,174.94Z"/><path d="M157,193.66l-.07,0v0l.16.23s0-.08,0-.12Z"/><path d="M157.31,194.09l0,0,0,0,.07.09h0a.25.25,0,0,0,0-.07Z"/><path d="M157.28,174.54l0,0,0,0a.25.25,0,0,0,0-.07h0l-.07.11Z"/><path d="M157.51,194.4s0,0,0,0a.25.25,0,0,0,0-.07Z"/><polygon points="157.55 194.45 157.55 194.45 157.52 194.42 157.55 194.45"/><path d="M157.51,174.21l0,0a.22.22,0,0,1,0-.08Z"/><path d="M157.51,194.4v0Z"/><path d="M157.51,194.4v0l0,0,0,0s0,0,0,0Z"/><path d="M157.56,174.15h0l0-.05,0,0v0Z"/><path d="M166.88,169.24h.23l.83-.74h-.24a12.85,12.85,0,0,0-10.1,5.59l0,0A12.14,12.14,0,0,1,166.88,169.24Z"/><path d="M157.54,174.18v0Z"/><path d="M157.56,174.15h0l0,0h0l0,.05Z"/><polygon points="157.56 174.15 157.56 174.15 157.56 174.15 157.56 174.15"/><polygon points="157.51 174.21 157.5 174.22 157.51 174.21 157.51 174.21"/><path d="M157.54,174.18v0l0,.05h0Z"/><path d="M165.84,198.31l-.85-.69a10.48,10.48,0,0,1-7.51-3.31l0,.07A11.13,11.13,0,0,0,165.84,198.31Z"/><path d="M157.33,194.19v0l-.06-.05Z"/><path d="M157.45,194.29l0,0,.06.09h0Z"/><path d="M157.4,194.26s0,0,0,0l-.05-.07Z"/><path d="M157.37,194.2l-.05,0v0h0l.05,0v0Z"/><path d="M157.45,194.29l0,.06,0,0,0,0v0Z"/><path d="M157.48,194.32l0,.06h0l0-.07h0Z"/><path d="M157.48,194.32v0h0Z"/><path d="M157.51,194.38h0l0-.06v0Z"/><path d="M157.49,194.35l0,0h0Z"/><path d="M157.42,194.25l0,0v0l.05.07,0,0Z"/><path d="M157.39,194.23v0h0Z"/><path d="M155.09,178.1h0a1.42,1.42,0,0,0,0,.2C155,178.22,155.06,178.16,155.09,178.1Z"/><path d="M157.19,194l.07.08-.08-.12Z"/><path d="M156.81,193.51h0l0,.09.08.09.11.1h0Z"/><path d="M157.05,174.75l0,0,0,0Z"/><path d="M156.81,175.1h0l.22-.27h0l-.11.09-.09.11A.19.19,0,0,0,156.81,175.1Z"/><path d="M157,193.82l0,0h0Z"/><path d="M156.36,175.7l0,0,.25-.36h0l-.11.07-.13.15C156.39,175.6,156.37,175.65,156.36,175.7Z"/><path d="M157.19,174.59l0,0,.09-.12Z"/><path d="M156.39,192.93l0,0c0,.05,0,.1.05.16s.08.09.12.15l.11.07Z"/><path d="M154.27,188.71c0-.37-.07-.75-.1-1.13a15.71,15.71,0,0,1-.33-3,16,16,0,0,1,.32-3.42c0-.21,0-.42.06-.63l-.15-.07c-.06.23-.1.47-.15.71-.09,1.25-.13,2.52-.11,3.81,0,.88.06,1.76.12,2.62q.13.6.3,1.17Z"/><path d="M155,178.29a1.42,1.42,0,0,1,0-.2l-.14,0a2.6,2.6,0,0,1-.1.25c0,.25-.07.5-.1.75C154.8,178.8,154.91,178.54,155,178.29Z"/><path d="M154.7,189.51c0,.26.07.53.11.79l.11.24.13,0a.77.77,0,0,1,0-.15C154.91,190.08,154.8,189.8,154.7,189.51Z"/><path d="M155.75,176.73c0-.11.05-.23.08-.34l-.27.43-.09.46C155.56,177.09,155.65,176.91,155.75,176.73Z"/><path d="M155.57,191.8l.25.42c0-.11,0-.23-.07-.35s-.19-.35-.28-.52C155.5,191.5,155.54,191.65,155.57,191.8Z"/><path d="M156.4,193.07c0-.06,0-.11-.05-.16l-.09,0Z"/><path d="M156.14,176l0,.13a1.3,1.3,0,0,1,.1-.15Z"/><path d="M156.15,192.6l0,0-.08-.13Z"/><path d="M156.4,175.54l-.15.21.11-.05S156.39,175.6,156.4,175.54Z"/><path d="M156.83,175l-.12.14.1-.06A.19.19,0,0,1,156.83,175Z"/><path d="M156.83,193.6l0-.09-.09-.06Z"/><polygon points="156.64 175.32 156.64 175.32 156.64 175.31 156.64 175.32"/><polygon points="157.03 174.81 157.03 174.82 157.03 174.82 157.03 174.81"/><path d="M157.19,194v0l-.05-.06-.09-.08h0l.12.14Z"/><path d="M157.13,174.68a.1.1,0,0,0,0-.05l0,0,0,0-.1.12h0A.6.6,0,0,0,157.13,174.68Z"/><polygon points="157.02 193.78 157.02 193.79 157.02 193.79 157.02 193.78"/><polygon points="157.35 194.21 157.35 194.21 157.34 194.2 157.35 194.21"/><path d="M157.26,194.1l-.07-.08h0l.15.16h0Z"/><path d="M157.16,194l0,0h0Z"/><path d="M157.35,194.2h0Z"/><path d="M157.33,174.43a.5.5,0,0,1-.07.08l.06,0Z"/><path d="M164.8,171h.2l.85-.69h-.22a11.18,11.18,0,0,0-8.11,3.93l0,.07A10.51,10.51,0,0,1,164.8,171Z"/><path d="M157.44,174.31l0,0,0,0Z"/><path d="M157.48,174.26h0l-.06.08,0,0Z"/><path d="M157.33,174.43v0l.05-.06,0,0,0,0-.07.07Z"/><path d="M157.48,174.26l0,.06h0l0-.06v0Z"/><path d="M157.5,174.25l0,.05h0l0-.07h0Z"/><path d="M157.5,174.25v0h0Z"/><path d="M157.47,174.3l0-.05,0,.06Z"/><path d="M157.38,174.4l0-.05.06-.08s0,0,0,0l-.05.07Z"/><path d="M157.39,174.38l0,0h0Z"/><path d="M157.26,174.51a.5.5,0,0,0,.07-.08h0l-.14.17h0Z"/><path d="M157.19,174.59h0l0,0Z"/><polygon points="157.34 174.42 157.33 174.42 157.33 174.43 157.34 174.42"/><path d="M157.14,193.89l0,.07.08.08-.09-.13Z"/><path d="M157.33,194.11l0,0-.09-.14h0A.54.54,0,0,0,157.33,194.11Z"/><path d="M157.39,194.16l0-.07a.14.14,0,0,1,0-.06h0Z"/><path d="M157.4,194.18a9.63,9.63,0,0,0,6.32,2.45l-.86-.64a9,9,0,0,1-5.53-2l0,.05A.41.41,0,0,1,157.4,194.18Z"/><polygon points="156.71 193.51 156.71 193.51 156.7 193.51 156.71 193.51"/><path d="M156.85,193.63v0c0,.06.11.1.16.15l-.11-.13Z"/><path d="M157.26,194v0l0,0Z"/><path d="M156.71,193.51h0l.1.12.05,0v0Z"/><path d="M157.14,193.89l-.12-.1.11.13,0,0Z"/><path d="M157.25,194v0l.05.07,0,0a.54.54,0,0,1-.05-.11Z"/><path d="M157.39,194.16h0a.41.41,0,0,0-.05-.09Z"/><path d="M157.35,194.09l0-.05h0A.14.14,0,0,0,157.35,194.09Z"/><path d="M157.29,194l.09.14v0h0l-.07-.13Z"/><polygon points="157.4 194.17 157.39 194.16 157.4 194.17 157.4 194.17"/><path d="M157.23,194l-.07-.05.09.13,0,0,0,0Z"/><path d="M157.28,194.07l0,0-.05-.07Z"/><path d="M157,193.79l-.11-.1.11.13,0,0Z"/><path d="M157,193.79l0,.05.09.08-.11-.13Z"/><path d="M156.52,175.31a1.9,1.9,0,0,1,.19-.21l-.17.14-.08.09v0Z"/><path d="M156.51,193.3l-.06-.05v0l.07.07.17.15Z"/><path d="M153.54,187.56a13.57,13.57,0,0,1,0-6.43c0-.29.05-.57.07-.85l-.13,0c-.08.27-.16.56-.23.84-.09,1.29-.12,2.58-.1,3.9,0,.86.05,1.71.11,2.56.11.43.24.86.39,1.27C153.6,188.41,153.57,188,153.54,187.56Z"/><path d="M154.23,178.91c.07-.18.15-.35.23-.52l.06-.38h-.09c-.08.14-.15.29-.22.43l-.06.44Z"/><path d="M154.22,189.71l-.07,0c0,.14,0,.29,0,.43s.15.3.22.44h.1c0-.14-.05-.27-.06-.4Z"/><path d="M155,191.58c.09.14.19.26.29.39,0-.1,0-.2-.06-.3a5.24,5.24,0,0,1-.3-.51C155,191.3,155,191.44,155,191.58Z"/><path d="M155,177.45c.11-.17.2-.35.31-.52s0-.18.05-.27L155,177C155,177.17,155,177.31,155,177.45Z"/><path d="M155.7,176.19l0,.17.15-.22Z"/><path d="M155.94,175.88a.46.46,0,0,1-.07.07l.07,0Z"/><path d="M156,192.75v-.05l-.08,0Z"/><path d="M155.7,192.42l.12.05a1.77,1.77,0,0,1-.16-.22A1,1,0,0,1,155.7,192.42Z"/><path d="M156.26,193.05l.08,0-.09-.1Z"/><path d="M156.35,193.16l.11.13v0Z"/><path d="M156.45,175.36v0l-.11.11A.39.39,0,0,0,156.45,175.36Z"/><path d="M156.26,175.56v.05l.09-.1Z"/><path d="M156.7,193.51l-.17-.15.18.17v0Z"/><path d="M156.71,193.51v0l.1.1Z"/><path d="M157.26,174.57l-.1.09s0,0,0,.06l0,0Z"/><path d="M157.3,174.6l.08-.15s0,0,0,.05l-.05.11Z"/><path d="M157.33,174.57a9,9,0,0,1,5.35-1.94h.18l.86-.65h-.18a9.61,9.61,0,0,0-6.13,2.45l-.06.1Z"/><path d="M156.92,174.91l.1-.12c-.05.05-.11.09-.16.15v0Z"/><path d="M157.26,174.6l0,0h0Z"/><polygon points="156.71 175.09 156.71 175.1 156.71 175.09 156.71 175.09"/><path d="M157.33,174.57s0,0,0,0l0-.05a.47.47,0,0,1-.05.1Z"/><path d="M156.71,175.09h0l.14-.11v0l-.05,0A.52.52,0,0,1,156.71,175.09Z"/><path d="M157.14,174.72s0,0,0-.06l0,0a1.47,1.47,0,0,1-.1.13Z"/><path d="M157.25,174.63l0,0,.05-.11h0l-.06.09Z"/><path d="M157.37,174.48l0,.05.06-.1h0Z"/><path d="M157.33,174.57h0l0,0S157.34,174.56,157.33,174.57Z"/><path d="M157.38,174.45l-.08.15,0,0a.47.47,0,0,0,.05-.1l0,0Z"/><path d="M157.37,174.48l0,0h0Z"/><path d="M157.23,174.64l0,0,0-.06,0,0-.09.12Z"/><path d="M157.32,174.51l0,0,0,.06Z"/><path d="M157,174.82l0-.06,0,0-.1.12Z"/><path d="M157.13,174.68a.6.6,0,0,1-.08.08l0,.06h0A1.47,1.47,0,0,0,157.13,174.68Z"/><path d="M156.81,175l-.09.09v0A.52.52,0,0,0,156.81,175Z"/><path d="M157.17,193.76h0l-.08-.16,0,0v0h0Z"/><path d="M157.15,193.68l0,.1a8.23,8.23,0,0,0,4.36,1.28l-.86-.59a7.59,7.59,0,0,1-3.61-.92v0A1.17,1.17,0,0,0,157.15,193.68Z"/><path d="M157.1,193.63a1,1,0,0,0,0-.1h0Z"/><polygon points="156.63 193.29 156.64 193.3 156.64 193.29 156.63 193.29"/><path d="M156.88,193.44l0,.06,0-.05Z"/><path d="M156.67,193.4l-.15-.18-.1-.07a.19.19,0,0,1,0,.07.27.27,0,0,1,.07.08l.17.13Z"/><path d="M157.12,193.73l-.12-.22.06.17Z"/><path d="M156.8,193.39l-.05,0s0,.09.05.13h0a.71.71,0,0,0,.14.1C156.9,193.53,156.84,193.47,156.8,193.39Z"/><path d="M156,192.86v0l-.07-.05Z"/><path d="M156.44,193.22a.19.19,0,0,0,0-.07l-.08-.05Z"/><path d="M156.27,193.08v0l.08.06A.3.3,0,0,1,156.27,193.08Z"/><path d="M156.68,193.43l0,0,0,0Z"/><path d="M156.64,193.3l.16.2s0-.09-.05-.13l-.11-.08Z"/><path d="M156.92,193.5l.11.16,0,0-.06-.17v0l-.09,0Z"/><path d="M157.17,193.76h0l-.08-.21,0,0a1,1,0,0,1,0,.1S157.15,193.71,157.17,193.76Z"/><path d="M157.2,193.77h0l0-.1Z"/><path d="M157.1,193.57v0h0Z"/><path d="M157.15,193.68a1.17,1.17,0,0,1-.05-.11l0,0Z"/><path d="M157.2,193.77h0l0-.09,0-.07Z"/><path d="M157,193.51l.12.22h0l-.05-.11-.06-.11,0,0Z"/><path d="M157,193.5h0v0Z"/><path d="M157.17,193.76s0-.09-.07-.13l.05.11Z"/><path d="M156.92,193.5l0-.06-.08-.05c0,.08.1.14.15.22h0Z"/><path d="M157,193.62l.07,0-.11-.16Z"/><path d="M156.63,193.29l-.11-.07.15.18,0-.1Z"/><polygon points="156.8 193.51 156.81 193.51 156.8 193.5 156.8 193.51"/><path d="M156.64,193.3l0,.1,0,0,.09.06h0Z"/><path d="M156.45,193.25l.06.05a.27.27,0,0,0-.07-.08Z"/><path d="M156.2,193l.07.07v0Z"/><path d="M156.34,193.1l-.08,0v0a.3.3,0,0,0,.08.08l.1.09v0Z"/><path d="M153.45,189.92a.3.3,0,0,0,0,.08v-.09Z"/><polygon points="155.38 176.35 155.38 176.35 155.38 176.35 155.38 176.35"/><path d="M153.48,178.61a.3.3,0,0,1,0,.08h0A.28.28,0,0,0,153.48,178.61Z"/><path d="M152.78,187.53a11.9,11.9,0,0,1-.43-3c0,.18,0,.36,0,.54,0,.83,0,1.65.11,2.47a10.07,10.07,0,0,0,.43,1.24C152.84,188.35,152.81,187.94,152.78,187.53Z"/><path d="M152.78,181.09c0-.31.05-.63.07-.94h-.09c-.11.31-.22.62-.31.94-.07,1.11-.11,2.23-.1,3.36A11.89,11.89,0,0,1,152.78,181.09Z"/><path d="M153.69,189.87l-.21,0V190c.11.2.24.38.36.56l-.06-.49Z"/><path d="M153.69,178.74a1.24,1.24,0,0,1,.1-.2c0-.17,0-.33.07-.5-.13.19-.26.37-.38.57a.28.28,0,0,1,0,.09Z"/><path d="M154.65,177.21a2.21,2.21,0,0,1,0-.25,4.24,4.24,0,0,0-.33.39l-.06.34A5.85,5.85,0,0,1,154.65,177.21Z"/><path d="M154.32,190.93l.06.35c.1.13.21.25.31.37a2,2,0,0,0,0-.24Z"/><path d="M155.1,176.65l.28-.3h0l-.21.13,0,0Z"/><path d="M155.1,192l0,.14,0,0,.21.13C155.27,192.16,155.19,192.06,155.1,192Z"/><path d="M155.76,175.94v0l.17-.16Z"/><path d="M155.75,192.67l.16.12c-.06,0-.11-.11-.17-.17Z"/><path d="M155.68,192.61l.08.07h0Z"/><path d="M156,192.87l.08.06-.08-.07Z"/><path d="M155.91,192.79l-.16-.12h0l.19.16,0,0h0Z"/><path d="M157.09,175.06a7.76,7.76,0,0,1,3.46-.92h.15l.87-.59h-.16a8.16,8.16,0,0,0-4.21,1.28.61.61,0,0,0,0,.12Z"/><path d="M156.76,175.24l0,0L157,175l-.14.09v0A.93.93,0,0,1,156.76,175.24Z"/><path d="M157.06,175.08a.36.36,0,0,1,0-.09.41.41,0,0,0,0,.09Z"/><path d="M157.17,174.85l-.08.21h0v0l.1-.2Z"/><path d="M156.91,175.13l0,0h0Z"/><path d="M157,175.11c0-.08.1-.15.14-.23l-.07.05A1.34,1.34,0,0,1,157,175.11Z"/><path d="M156,175.76l-.05.06.05,0Z"/><path d="M156.44,175.4l-.1.11.08,0Z"/><path d="M156.35,175.44l-.07.06v0Z"/><path d="M156.68,175.18v0l0-.05Z"/><path d="M156.8,175.11l-.16.2.12-.07A.93.93,0,0,0,156.8,175.11Z"/><path d="M157,174.94l-.12.19v0l.09,0h0a1.34,1.34,0,0,0,.07-.18Z"/><path d="M157.17,174.85c0,.05,0,.09-.07.14a.36.36,0,0,0,0,.09l0,0,.08-.21Z"/><path d="M157.1,175v0h0l.06-.11Z"/><path d="M157.15,175a.61.61,0,0,1,0-.12h0A.61.61,0,0,0,157.15,175Z"/><path d="M157.1,175l.05-.08a.61.61,0,0,1,0-.12h0Z"/><path d="M157.13,174.88c0,.08-.09.15-.14.23h0l.06,0a.41.41,0,0,1,0-.09.61.61,0,0,1,.05-.12Z"/><polygon points="156.99 175.11 156.99 175.11 156.99 175.11 156.99 175.11"/><path d="M157.1,175c0-.05.05-.09.07-.14l0,0A.61.61,0,0,0,157.1,175Z"/><path d="M156.91,175.13A.58.58,0,0,0,157,175h0l-.15.22.09-.05Z"/><path d="M156.81,175.09h0Z"/><path d="M156.64,175.31l.16-.2h0l-.1.06,0,.05,0,.11Z"/><path d="M156.27,175.53l-.06.06,0,0Z"/><path d="M155.76,175.93l-.09.07.09-.06Z"/><path d="M155.92,175.82l.05-.06h0l-.21.18h0Z"/><path d="M156.78,192.81h0a.3.3,0,0,0,0,.1A.69.69,0,0,0,156.78,192.81Z"/><path d="M155.4,192.36l0,0s0,0,0,0Z"/><path d="M156.85,193.13h.05c-.05-.11-.11-.22-.16-.34h0Z"/><path d="M159.39,193.61l-.88-.54a6.56,6.56,0,0,1-1.72-.25,3.45,3.45,0,0,1,.14.34A7,7,0,0,0,159.39,193.61Z"/><path d="M156.54,193l-.15-.25-.1,0,0,.16.06.1.16.08Z"/><path d="M156.65,193v0l.12,0h0c-.06-.11-.11-.22-.16-.33h-.05C156.6,192.85,156.62,192.94,156.65,193Z"/><path d="M155.15,192.12h0l0,.08.25.17h0Z"/><path d="M155.36,192.25l0,0h0Z"/><path d="M155.73,192.57l.13.08-.15-.17S155.72,192.54,155.73,192.57Z"/><path d="M155.91,192.6a.3.3,0,0,0,0-.1l-.07,0Z"/><path d="M156.2,192.84l.06,0-.08-.1Z"/><path d="M156.33,192.83l0-.16-.09,0Z"/><path d="M156.57,192.76l-.08,0,.16.29C156.62,192.94,156.6,192.85,156.57,192.76Z"/><path d="M156.55,193h0l0,0Z"/><path d="M156.85,193.13l-.12-.33h0l.15.33Z"/><polygon points="156.78 193.1 156.78 193.1 156.78 193.1 156.78 193.1"/><path d="M156.82,192.91l.1.24h0a3.45,3.45,0,0,0-.14-.34h0A.69.69,0,0,1,156.82,192.91Z"/><polygon points="156.9 193.15 156.9 193.15 156.9 193.14 156.9 193.15"/><path d="M156.9,193.14c0-.07-.05-.15-.08-.23a.3.3,0,0,1,0-.1h0C156.79,192.92,156.85,193,156.9,193.14Z"/><path d="M156.9,193.14h0l-.1-.24c0,.08.05.16.08.23Z"/><path d="M156.68,192.79l-.06,0c0,.11.1.22.16.33C156.74,193,156.71,192.89,156.68,192.79Z"/><path d="M156.78,193.1h0l.05,0-.15-.33h0C156.71,192.89,156.74,193,156.78,193.1Z"/><path d="M156.39,192.71l.15.25c0-.08,0-.15-.07-.22Z"/><path d="M156.66,193.05h0v0Z"/><path d="M156.49,192.74h0c0,.07.05.14.07.22l0,0,.09,0v0Z"/><path d="M156.35,192.91l0,0-.06-.1Z"/><path d="M156.2,192.63l0,0,0,.16.08.1.09,0,0-.08Z"/><path d="M155.94,192.7l.08.05-.11-.15Z"/><path d="M155.64,192.39l.07.09s0,0,0-.06Z"/><path d="M155.82,192.47l-.12-.05s0,0,0,.06l.15.17.08,0,0-.1Z"/><path d="M155.15,192.12l.25.23,0-.08,0,0Z"/><path d="M154.73,176.74v0l.09-.08Z"/><path d="M154.73,191.86l.09.06a.39.39,0,0,0-.1-.08Z"/><path d="M151.92,181.06c0-.37.05-.74.08-1.11a8.09,8.09,0,0,0-.46,1.09c0,.85-.08,1.71-.09,2.57A10.1,10.1,0,0,1,151.92,181.06Z"/><path d="M151.91,187.51a10.51,10.51,0,0,1-.47-2.66,2.08,2.08,0,0,0,0,.25c0,.81,0,1.61.09,2.41a8.65,8.65,0,0,0,.47,1.17C152,188.29,151.93,187.9,151.91,187.51Z"/><path d="M152.62,189.59a.48.48,0,0,0,.15-.12l-.09-.16h-.09c0,.15,0,.29,0,.44l0,0Z"/><path d="M152.57,189.13c0,.05,0,.11,0,.16h.07Z"/><path d="M152.81,190l.24.32c0-.11,0-.22,0-.34Z"/><path d="M153,178.64c0-.12,0-.23.05-.34a4,4,0,0,0-.24.33Z"/><path d="M152.78,178.66a2.43,2.43,0,0,0-.14.2l-.06.58A2.13,2.13,0,0,0,152.78,178.66Z"/><path d="M153.93,177.55c0-.07,0-.13,0-.19l-.34.32,0,.25C153.69,177.8,153.81,177.67,153.93,177.55Z"/><path d="M153.57,190.68l0,.24.36.34,0-.19C153.81,190.94,153.68,190.82,153.57,190.68Z"/><path d="M154.73,176.77v0l-.16.1a.69.69,0,0,1-.13.11s0,.06,0,.08S154.63,176.86,154.73,176.77Z"/><path d="M154.73,191.86v0l-.29-.26v.08a1.5,1.5,0,0,1,.13.11Z"/><path d="M154.57,191.77l.16.11v0Z"/><path d="M156.56,175.86l.06,0c0-.11.1-.22.16-.33l-.12.05v0C156.62,175.68,156.59,175.76,156.56,175.86Z"/><path d="M155.45,176.21l0,0h0Z"/><path d="M156.73,175.81h0a2.92,2.92,0,0,0,.14-.31l0,0-.05,0C156.82,175.59,156.77,175.7,156.73,175.81Z"/><path d="M158.38,175.55h.13l.88-.55h-.14a6.93,6.93,0,0,0-2.32.45c0,.12-.09.23-.14.35A6.44,6.44,0,0,1,158.38,175.55Z"/><path d="M156.78,175.8s0,0,0-.05l0,.05Z"/><path d="M155.17,176.48a2.39,2.39,0,0,1,.23-.22h0l-.26.18s0,0,0,.07Z"/><path d="M155.74,176l0,.08.15-.16Z"/><path d="M155.91,176l-.09.13.07,0A.36.36,0,0,0,155.91,176Z"/><path d="M156.2,175.77a.29.29,0,0,1,0,.09l.07-.11Z"/><path d="M156.34,175.77a2.39,2.39,0,0,0-.13.21l.08,0C156.31,175.88,156.32,175.82,156.34,175.77Z"/><path d="M156.65,175.59l-.16.28h.07C156.59,175.76,156.62,175.68,156.65,175.59Z"/><path d="M156.68,175.82h0c0-.11.09-.22.12-.33h0Z"/><path d="M156.88,175.5l0,0h0Z"/><path d="M156.8,175.75s0,0,0,.05h0c.05-.12.1-.23.14-.35h0Z"/><path d="M156.74,175.81h0l0-.05c0-.08,0-.17.08-.25A2.92,2.92,0,0,1,156.74,175.81Z"/><path d="M156.8,175.75l.12-.3h0l0,0C156.85,175.58,156.83,175.67,156.8,175.75Z"/><path d="M156.62,175.84h.06c0-.11.06-.21.1-.32h0C156.72,175.62,156.67,175.73,156.62,175.84Z"/><path d="M156.78,175.51c0,.11-.07.21-.1.32h0l.15-.33Z"/><path d="M156.39,175.68l0,0,0,.07A.41.41,0,0,0,156.39,175.68Z"/><path d="M156.18,175.86l-.12.18.08,0S156.17,175.91,156.18,175.86Z"/><path d="M156.21,176a2.39,2.39,0,0,1,.13-.21l0-.07-.11.05-.07.11s0,.1,0,.14Z"/><path d="M155.72,176.11a1,1,0,0,1-.08.11l.06,0Z"/><path d="M156,175.87l-.08,0,0,.1Z"/><path d="M155.82,176.14l.09-.13,0-.1-.07,0-.15.16,0,.08Z"/><path d="M155.4,176.26a2.39,2.39,0,0,0-.23.22l.21-.13A.29.29,0,0,1,155.4,176.26Z"/><path d="M154.73,176.74v0l-.17.12Z"/><path d="M162.71,184.17H164c-.06-4.36-3.11-7.84-6.83-7.84l-.72.4a1,1,0,0,1,0,.1C159.86,176.92,162.65,180.14,162.71,184.17Z"/><path d="M156.3,176.83h0v0Z"/><path d="M156.45,176.74h0l0,.08A.31.31,0,0,0,156.45,176.74Z"/><path d="M156.39,176.83h0l0-.08,0,0Z"/><path d="M156.42,176.83h0l0-.1h0a.31.31,0,0,1,0,.08Z"/><path d="M156.42,176.83Z"/><path d="M156.43,176.83h0a1,1,0,0,0,0-.1h0Z"/><rect x="156.45" y="176.73" height="0.11"/><path d="M156.34,176.83h0v-.06l0,0Z"/><path d="M156.39,176.83l0-.07h0v.06Z"/><path d="M155.79,178.07a2,2,0,0,1,0,.24l.09,0c0-.1.06-.21.1-.32s.05-.24.08-.36l-.08,0Z"/><path d="M156,178l-.09.36.05,0c0-.16.08-.32.13-.48a2,2,0,0,1,.05-.24h0C156.07,177.79,156,177.9,156,178Z"/><path d="M155.17,177.55h0v.06Z"/><path d="M156,178.42a6.35,6.35,0,0,1,3.46,5.78h1.29a6.6,6.6,0,0,0-4.57-6.49c-.05.18-.1.36-.14.54A1.16,1.16,0,0,0,156,178.42Z"/><path d="M154.61,177.71l-.06,0a.19.19,0,0,1,0,.08Z"/><path d="M154.27,178h.16a1.86,1.86,0,0,0,.11-.19.19.19,0,0,0,0-.08l-.26.13S154.28,178,154.27,178Z"/><path d="M154.91,178.07l.22-.46v-.06h-.2c0,.18-.07.35-.09.52Z"/><path d="M155.47,178.15l0,0h0Z"/><path d="M155.32,178.16c.07-.19.14-.4.22-.59h-.12c0,.2-.08.4-.11.6Z"/><path d="M155.75,178.31a2,2,0,0,0,0-.24l-.06.23Z"/><path d="M155.84,177.62h-.07l-.09.48C155.73,177.94,155.78,177.78,155.84,177.62Z"/><path d="M155.92,178.38,156,178c0,.12-.08.23-.11.35Z"/><path d="M156.05,177.66h0c0,.12-.06.24-.08.36C156,177.9,156,177.78,156.05,177.66Z"/><path d="M156,178.42a1.16,1.16,0,0,1,0-.18c0,.06,0,.12-.05.17Z"/><path d="M156.1,177.92l.06-.23h0A2,2,0,0,0,156.1,177.92Z"/><path d="M156.05,178.24c0-.18.09-.36.14-.54h0C156.13,177.87,156.09,178.06,156.05,178.24Z"/><path d="M156,178.4c0-.16.07-.32.11-.48,0,.16-.09.32-.13.48Z"/><path d="M156,178.4h0s0-.11.05-.17.08-.37.13-.55h0l-.06.23C156.06,178.08,156,178.24,156,178.4Z"/><path d="M156.11,177.67h0c0,.12-.06.23-.08.35C156,177.9,156.07,177.79,156.11,177.67Z"/><path d="M155.87,178.36a3.4,3.4,0,0,1,.07-.34c0,.11-.07.22-.1.32Z"/><path d="M155.94,178a3.4,3.4,0,0,0-.07.34h0c0-.12.07-.23.11-.35s.05-.23.08-.35h0C156,177.78,156,177.9,155.94,178Z"/><path d="M155.65,178.26l0-.17-.05.17Z"/><path d="M155.94,177.64h-.06l-.09.44Z"/><path d="M155.68,178.09l0,.17.08,0,.06-.23.09-.44h0C155.78,177.78,155.73,177.94,155.68,178.09Z"/><path d="M155.45,178.2l0,0c0-.19.07-.38.1-.57h0c-.08.19-.15.4-.22.59Z"/><path d="M155.13,177.61l-.22.46.14,0C155.07,177.93,155.1,177.77,155.13,177.61Z"/><path d="M154.54,177.82a1.86,1.86,0,0,1-.11.19h.09C154.53,178,154.53,177.89,154.54,177.82Z"/><path d="M155.56,180.89c0,.22,0,.42-.05.6a4.47,4.47,0,0,1,.82,2.72h1.25a6.05,6.05,0,0,0-1.86-4.37q-.09.51-.15,1Z"/><polygon points="155.71 179.85 155.71 179.84 155.71 179.84 155.71 179.85"/><path d="M155.36,181c0,.1,0,.2,0,.29a.39.39,0,0,0,.08.1c0-.11,0-.23,0-.34,0-.43.1-.85.17-1.28l0,0C155.5,180.14,155.42,180.56,155.36,181Z"/><path d="M155.56,180.89v0h0Z"/><path d="M155.49,181.47c0-.11,0-.22,0-.35a.41.41,0,0,1,0-.11s0-.08,0-.12h0v0c0-.33.08-.66.14-1-.1.53-.17,1-.23,1.59Z"/><path d="M155.27,179.48h0v.1S155.26,179.51,155.27,179.48Z"/><path d="M155.5,181.48c0-.06,0-.12,0-.17s0,.11,0,.17Z"/><path d="M152.88,179.83c0-.35.06-.71.1-1.06-.14.23-.27.47-.4.71l-.06.65h.24Z"/><path d="M152.7,178.62h.08S152.74,178.59,152.7,178.62Z"/><path d="M152.78,178.62v0l0,0Z"/><path d="M153.47,180.26l.18-.51c0-.33.07-.66.11-1l-.07,0c-.1.19-.2.38-.29.58s-.06.6-.08.9Z"/><path d="M154.07,180.43c.07-.24.15-.48.22-.72l.09-.74-.15-.06c0,.09-.09.18-.12.27-.05.4-.09.81-.12,1.22Z"/><path d="M154.53,180.63l.05,0c.07-.34.15-.68.24-1l.06-.42-.18-.11C154.63,179.62,154.58,180.13,154.53,180.63Z"/><path d="M155,180.93c.08-.46.18-.91.29-1.36v-.1l-.14-.09c-.06.51-.12,1-.17,1.55Z"/><path d="M155.51,179.67a.27.27,0,0,0-.08-.07c-.06.48-.12,1-.17,1.47C155.33,180.6,155.41,180.13,155.51,179.67Z"/><path d="M155.34,181.28c0-.09,0-.19,0-.29l0,.28Z"/><path d="M155.67,179.8l0,0c-.07.43-.12.85-.17,1.28C155.52,180.62,155.59,180.21,155.67,179.8Z"/><polygon points="155.56 180.88 155.56 180.89 155.56 180.89 155.56 180.88"/><path d="M155.57,180.86q.06-.51.15-1h0l-.15,1Z"/><path d="M155.52,181.31c0-.07,0-.13,0-.19,0,.13,0,.24,0,.35h0C155.51,181.42,155.51,181.36,155.52,181.31Z"/><path d="M155.56,180.89s0,.08,0,.12,0-.07,0-.1Z"/><path d="M155.71,179.86c-.06.33-.1.66-.14,1l.15-1h0Z"/><path d="M155.56,180.89v0Z"/><path d="M155.54,181.07c0,.08,0,.16,0,.24s0,.11,0,.17h0c0-.18,0-.38.05-.6v0Z"/><path d="M155.55,181a.41.41,0,0,0,0,.11v-.05S155.55,181,155.55,181Z"/><path d="M155.54,181.07v.05c0,.06,0,.12,0,.19C155.53,181.23,155.53,181.15,155.54,181.07Z"/><path d="M155.56,180.91s0,.07,0,.1,0,0,0,.06Z"/><path d="M155.57,180.89v0h0v0Z"/><path d="M155.43,181.4l0-.36c0,.11,0,.23,0,.34Z"/><path d="M155.48,181.45c.06-.54.13-1.06.23-1.59h0l0,0c-.08.55-.14,1.09-.2,1.65Z"/><path d="M155.46,181l0,.36,0,0c.06-.56.12-1.1.2-1.65h0C155.59,180.21,155.52,180.62,155.46,181Z"/><path d="M155.71,179.85h0Z"/><path d="M155.25,181.18v-.11a.41.41,0,0,0,0,.11Z"/><path d="M155.58,179.73l-.06,0c-.06.43-.11.87-.16,1.31C155.42,180.56,155.5,180.14,155.58,179.73Z"/><path d="M155.26,181.07v.11a.73.73,0,0,0,.08.09l0-.28c0-.44.1-.88.16-1.31h0C155.41,180.13,155.33,180.6,155.26,181.07Z"/><path d="M155.25,179.57c-.11.45-.21.9-.29,1.36l.12.09C155.13,180.54,155.18,180.05,155.25,179.57Z"/><path d="M154.82,179.65c-.09.33-.17.67-.24,1a.57.57,0,0,1,.13.1C154.75,180.39,154.78,180,154.82,179.65Z"/><path d="M154.29,179.71c-.07.24-.15.48-.22.72l.15.07C154.24,180.23,154.26,180,154.29,179.71Z"/><path d="M153.65,179.75l-.18.51.13,0C153.62,180.11,153.63,179.93,153.65,179.75Z"/><path d="M154.15,178.88c0,.1,0,.2,0,.3,0-.09.08-.18.12-.27Z"/><path d="M152.85,180.15l0-.32-.12.31Z"/><path d="M153.47,178.7c0,.2-.05.41-.07.62.09-.2.19-.39.29-.58Z"/><path d="M153.07,178.64H153s0,.08,0,.13Z"/><path d="M152.58,179.44a1.67,1.67,0,0,1-.08.2l.08-.16Z"/><path d="M153,178.77c0-.05,0-.09,0-.13h-.19l0,0a2.13,2.13,0,0,1-.2.78v0C152.71,179.24,152.84,179,153,178.77Z"/><path d="M155.14,191.07h0a.05.05,0,0,1,0,0Z"/><path d="M155.75,190.31c0,.07,0,.14,0,.21s.09.3.14.45l.09,0-.06-.28c0-.13-.08-.27-.11-.4Z"/><path d="M155.93,190.23l.09.42.09.28h0l-.09-.36c0-.12-.05-.24-.08-.36Z"/><path d="M154.56,190.88l.05,0-.06-.09Z"/><path d="M156,190.19c0,.11.05.22.07.32l.11.41c2.65-.67,4.61-3.45,4.57-6.73h-1.29A6.37,6.37,0,0,1,156,190.19Z"/><path d="M154.42,190.6l-.15,0a.5.5,0,0,0,0,.12l.27.14v-.07C154.51,190.74,154.46,190.68,154.42,190.6Z"/><path d="M154.92,190.54h-.07l.09.52h.2v0C155.06,190.86,155,190.7,154.92,190.54Z"/><path d="M155.31,190.45c0,.2.06.4.1.59h.13c-.08-.19-.15-.38-.22-.58Z"/><path d="M155.45,190.41l0,.05v-.06Z"/><path d="M155.79,190.52c0-.07,0-.14,0-.21h0Z"/><path d="M155.84,191l-.17-.51c0,.18.07.35.11.52Z"/><path d="M156.05,191l-.09-.28.06.28Z"/><path d="M156,190.65l-.09-.42h0C155.94,190.38,156,190.51,156,190.65Z"/><path d="M156.17,190.92l-.11-.35.09.36Z"/><path d="M156.08,190.51c0-.1,0-.21-.07-.32h0C156,190.3,156.05,190.41,156.08,190.51Z"/><path d="M156.17,190.92h0l-.11-.41Z"/><path d="M156.06,190.57c0-.12-.05-.24-.07-.37h0C156,190.33,156,190.45,156.06,190.57Z"/><path d="M156,190.2c0,.13,0,.25.07.37l.11.35h0l-.09-.41c0-.1-.06-.21-.08-.31Z"/><path d="M156.11,190.93l-.09-.28.06.29Z"/><path d="M156,190.67l-.09-.41h0C155.88,190.4,155.92,190.54,156,190.67Z"/><path d="M155.87,190.26l.09.41.09.28h0l-.06-.29c0-.14-.08-.27-.11-.41Z"/><path d="M155.93,191c-.05-.15-.09-.3-.14-.45,0,.16.06.31.1.46Z"/><path d="M155.67,190.48a.59.59,0,0,1,0-.14h0S155.65,190.44,155.67,190.48Z"/><path d="M155.65,190.34a.59.59,0,0,0,0,.14l.17.51h0c0-.15-.07-.3-.1-.46l-.06-.2Z"/><path d="M155.47,190.46l0-.05-.13,0c.07.2.14.39.22.58h0C155.53,190.84,155.5,190.65,155.47,190.46Z"/><path d="M155.14,191l-.09-.51-.13,0C155,190.7,155.06,190.86,155.14,191Z"/><path d="M154.55,190.81l0-.21h-.1C154.46,190.68,154.51,190.74,154.55,190.81Z"/><polygon points="154.05 190.63 154.05 190.63 154.05 190.63 154.05 190.63"/><path d="M153.34,189.15a1.22,1.22,0,0,0,.07.17l0-.18Z"/><path d="M155.37,187.63c.06.42.13.84.22,1.25l0,0c-.06-.44-.12-.89-.16-1.34Z"/><path d="M155.62,188.12h0c0-.16,0-.34-.05-.51v0C155.58,187.76,155.6,188,155.62,188.12Z"/><rect x="155.67" y="188.12" height="0.65" transform="matrix(0.99, -0.15, 0.15, 0.99, -27.11, 26.17)"/><path d="M155.15,187.92c.06.38.14.76.23,1.13l.05,0c-.06-.41-.11-.83-.15-1.25A1.83,1.83,0,0,0,155.15,187.92Z"/><path d="M155.54,187.36l0,.25c.05.38.09.77.15,1.15a6.09,6.09,0,0,0,1.86-4.55h-1.25A5.85,5.85,0,0,1,155.54,187.36Z"/><path d="M155.62,188.12h0c0-.24-.06-.49-.09-.73l0,0c.05.46.12.91.2,1.35h0c0-.22-.07-.43-.1-.65Z"/><path d="M155.26,189.14h0s0,0,0-.08S155.26,189.11,155.26,189.14Z"/><path d="M152.92,189.26l-.18,0c.13,0,.09.1,0,.17a3.81,3.81,0,0,0,.23.4C153,189.67,152.94,189.47,152.92,189.26Z"/><path d="M152.66,189.29l0,0h0Z"/><path d="M152.7,190h.11l-.15-.2Z"/><path d="M153.66,189l-.28.11,0,.18a5.68,5.68,0,0,0,.28.55h.07C153.73,189.58,153.69,189.31,153.66,189Z"/><path d="M154.23,188.74l-.19.1c0,.2.05.39.08.59l.1.28.17-.07-.09-.7C154.28,188.87,154.25,188.8,154.23,188.74Z"/><path d="M154.67,188.4l-.09.09c0,.33.08.67.12,1l.18-.11c0-.12,0-.24,0-.36S154.72,188.61,154.67,188.4Z"/><path d="M155,188.05s0,0-.05,0c0,.39.09.76.14,1.14l.14-.1s0-.06,0-.09C155.17,188.72,155.09,188.39,155,188.05Z"/><path d="M155.43,189l.09-.06c-.09-.4-.17-.8-.23-1.21v0C155.32,188.18,155.37,188.6,155.43,189Z"/><path d="M155.62,188.85l0,0c-.08-.43-.13-.88-.19-1.32v0C155.5,188,155.56,188.41,155.62,188.85Z"/><path d="M155.62,188.12h0l.1.64h0c-.06-.38-.1-.77-.15-1.15C155.59,187.78,155.6,188,155.62,188.12Z"/><path d="M155.56,187.57v0l0-.25h0A1.49,1.49,0,0,1,155.56,187.57Z"/><polygon points="155.62 188.12 155.62 188.12 155.62 188.12 155.62 188.12"/><polygon points="155.62 188.12 155.62 188.12 155.62 188.12 155.62 188.12"/><path d="M155.72,188.77h0l-.1-.64C155.65,188.34,155.68,188.55,155.72,188.77Z"/><path d="M155.54,187.37v0c0,.24.05.49.09.73,0-.17,0-.36-.06-.55S155.54,187.44,155.54,187.37Z"/><polygon points="155.62 188.12 155.62 188.12 155.62 188.12 155.62 188.12"/><path d="M155.56,187.57a1.49,1.49,0,0,0,0-.21h0C155.54,187.44,155.56,187.5,155.56,187.57Z"/><path d="M155.67,188.8l0,0c-.08-.44-.15-.89-.2-1.35v0C155.55,187.9,155.61,188.35,155.67,188.8Z"/><path d="M155.47,187.49c.06.44.11.89.19,1.32h0c-.06-.45-.12-.9-.17-1.36Z"/><path d="M155.52,188.94l.07-.06c-.09-.41-.16-.83-.22-1.25h0C155.4,188.08,155.46,188.51,155.52,188.94Z"/><path d="M155.29,187.74c.06.41.14.81.23,1.21h0c-.06-.43-.12-.86-.16-1.3Z"/><path d="M155.25,189.05s0,0,0,.08l.11-.08c-.09-.37-.17-.75-.23-1.13l0,0C155.15,188.32,155.2,188.69,155.25,189.05Z"/><path d="M155.25,189.05c-.05-.36-.1-.73-.14-1.09l-.08.09C155.09,188.39,155.17,188.72,155.25,189.05Z"/><path d="M154.84,189l-.09-.69-.08.07C154.72,188.61,154.78,188.81,154.84,189Z"/><path d="M154.3,188.94l0-.23,0,0C154.25,188.8,154.28,188.87,154.3,188.94Z"/><path d="M154.15,189.73l.07,0-.1-.28Z"/><path d="M153.48,189.91l.21,0a5.68,5.68,0,0,1-.28-.55C153.43,189.52,153.45,189.71,153.48,189.91Z"/><path d="M153,190h.06a.36.36,0,0,1-.07-.1S153,189.94,153,190Z"/><path d="M152.59,189.29v0h.09l0,0Z"/><path d="M152.77,189.47a.48.48,0,0,1-.15.12l0,.2.15.2.2,0s0-.06,0-.1A3.81,3.81,0,0,1,152.77,189.47Z"/><path class="cls-2" d="M123.56,58V313H277.74V58ZM275,303.88H136V68.32H275Z"/><polygon class="cls-3" points="272.37 65.99 361.9 52.63 361.5 327 269.24 313.65 272.37 65.99"/><rect class="cls-4" x="361.5" y="52.63" width="8.5" height="274.37"/><rect class="cls-5" x="274.7" y="188" width="66.77" height="4.86"/><polyline class="cls-5" points="341.47 188 345.72 181.32 345.72 170.41 349.36 170.39 349.36 192.85 341.47 192.85"/><polygon class="cls-6" points="274.7 188 280.38 181.62 280.38 170.39 283.41 170.39 283.41 188 274.7 188"/><ellipse class="cls-7" cx="314.76" cy="120.62" rx="20.03" ry="27.92"/><rect class="cls-8" x="155" y="41" width="123" height="16"/><rect class="cls-8" x="71" y="68" width="52" height="217"/><rect class="cls-8" x="158" y="314" width="109" height="17.5"/><rect class="cls-9" x="169.69" y="18" width="61.91" height="29.14"/></g></svg>