<svg xmlns="http://www.w3.org/2000/svg" viewBox="0 0 1516 292"><defs><style>.cls-1{fill:#191817;}.cls-2{fill:#111110;}.cls-11,.cls-2{stroke:#f4efe4;}.cls-10,.cls-11,.cls-13,.cls-14,.cls-2,.cls-3,.cls-4,.cls-5,.cls-6{stroke-miterlimit:10;}.cls-12,.cls-3,.cls-4{fill:#f4efe4;}.cls-3{stroke:#191817;}.cls-4,.cls-5{stroke:#020202;}.cls-11,.cls-5,.cls-6{fill:none;}.cls-6{stroke:#232221;}.cls-7{fill:#232221;}.cls-8{fill:#1d1e2f;}.cls-9{fill:#fff;}.cls-10{fill:#90b4e3;}.cls-10,.cls-13,.cls-14{stroke:#050505;}.cls-13{fill:#f1a8b5;}.cls-14{fill:#f1b2b6;}</style></defs><g id="banner_light" data-name="banner light"><rect class="cls-1" x="894.6" y="9.79" width="10.96" height="10.81" transform="translate(378.15 -718.26) rotate(53.6)"/><rect class="cls-2" x="293.11" y="108.86" width="7.05" height="6.95" transform="translate(211.01 -193.08) rotate(53.6)"/><rect class="cls-3" x="173.31" y="158.17" width="16.13" height="15.9" transform="translate(149.23 -77.72) rotate(40)"/><rect class="cls-4" x="1397.96" y="184.16" width="10.96" height="10.81" transform="translate(723.13 -1052.52) rotate(53.6)"/><polygon class="cls-5" points="1486.92 -20.38 1315.46 57.93 1217.88 -75.77 1389.34 -154.07 1486.92 -20.38"/><polygon class="cls-5" points="1460.59 20.96 1263.58 36.51 1244.21 -117.11 1441.22 -132.65 1460.59 20.96"/><rect class="cls-6" x="427.11" y="104.58" width="58.91" height="58.65" transform="translate(63.79 -134.63) rotate(18.01)"/><rect class="cls-6" x="391.14" y="126.98" width="49.41" height="49.2" transform="translate(67.26 -121.17) rotate(18.01)"/><rect class="cls-6" x="362.57" y="146.39" width="39.16" height="38.99" transform="translate(70.03 -110.05) rotate(18.01)"/><rect class="cls-6" x="48.59" y="109.47" width="48.55" height="48.34" transform="matrix(0.84, -0.54, 0.54, 0.84, -61.03, 61.24)"/><rect class="cls-7" x="67.61" y="128.51" width="10.51" height="10.46" transform="translate(-61.09 61.26) rotate(-33)"/></g><g id="geometric"><path class="cls-8" d="M432.2-22S314.58-12,259.54,10.22,245.63,38.55,325.07,29,682.14-15.86,707.78-19,835.17-34.07,823.36,7.43s11.76,47.49,68.73,40.7,176.52-26.25,176.52-26.25,119.64-25.1,139.5,20.19-119,58.37-119,58.37-81.49,3.89-120.56,4.34c-31.4.36-56.69,25.49.17,23.47s101.67-2.22,225.76-26.69,342.81-77.47,346.74-83.36,0,133,0,133-578,74.3-759.79,43.11c-304.68-52.29-64.84-67.46-106.25-87.11C649.44,101,617,95.92,589.69,86.15c-12.32-4.4-18.15-14.47-12.09-22C583,57.4,560.16,51,488.36,54.47c-115.11,5.63-221,28.43-254,34.68S54.49,114-10,49.28l.78-71.6Z"/><path class="cls-9" d="M350.71-22.09s-144.58,25.71-154,47.92,72.79,15,72.79,15S393.25,31.51,512.16,15,813.29-36.76,786.25,28.87,943,51.84,943,51.84s197.15-45.17,223.88-3.71-160.09,42.13-190.13,44-86.67,7-60.69,39.31S1236,106.3,1288.22,95.27,1510,48.9,1523.69,41.1s5.35,95.81,5.35,95.81S1215.89,178,1068.21,184.52c-171.89,7.6-205.44,10.77-356-19.06-40.29-8-70.63-25.61-34.69-36.78,37.56-11.67,38.29-23.23,12.5-28.59-20.56-4.28-76.56-13-85.16-22.34-4.86-5.31-.78-12.51,6.25-17,13.07-8.31,51.5-22.76-59.79-20.62-130.45,2.52-307.79,34-332.8,36.36S60,101-9.19,34.76V-22.32Z"/><path class="cls-10" d="M289.72-22.13s-103.79,24-111.3,38.57S167,49.33,225.18,48.91,364.66,42.45,469,27.16s294.15-43.9,262.51,13.06S891.86,72.66,891.86,72.66s206.52-49.75,201.79-12.84-204.75,7-230.92,42.5,85.47,47.33,85.47,47.33,68.15,20.18,331.39-35.35,244.1-62.68,244.1-62.68V126s-330.08,43.07-428.14,46c-105.61,3.18-228.13,13.63-348.45-15.18s131.95-45.27-96.1-76c-53.13-7.15,31-42.69-11.64-47.59s-186.77,5.1-267.07,14.84S200.63,73.57,144.36,69.07,26.38,49.73-10,14.76l.78-37.08Z"/><path class="cls-8" d="M229.89-23.21S52.28,36.86,210.42,55.18c0,0-179.76,8.72-227.42-80.18Z"/><path class="cls-8" d="M581.07,22.58S714.67,2.47,710,27.05s-22.89,50.5,56.64,60.53S965.05,66.7,965.05,66.7s77.19-17.85,74.35.06S851.12,72,817.27,101.56,929.92,160.4,929.92,160.4s-85,3.8-160.17-12.06S877.5,95.25,664.28,72.39C639.28,69.71,770.93,7.84,581.07,22.58Z"/><path class="cls-8" d="M1523.69,72.49S1260.4,136.72,1176.8,152.8c0,0,325.8-33.05,358.39-39.2Z"/><polygon class="cls-11" points="93.51 36.78 81.17 37.91 79.95 26.72 92.3 25.59 93.51 36.78"/><polygon class="cls-12" points="1227.4 181.96 1222.39 175.72 1229.08 171.19 1234.09 177.42 1227.4 181.96"/><polygon class="cls-8" points="1301.55 14.94 1298.33 10.93 1302.63 8.02 1305.85 12.03 1301.55 14.94"/><polygon class="cls-13" points="776.99 111.76 800.24 114.17 806.61 123.21 817.05 124.54 828.89 143.76 810.5 132.42 801.68 131.24 796.16 123.58 776.99 111.76"/><polygon class="cls-14" points="776.99 111.76 786.11 131 790.79 137.29 799 142.36 807.19 144 828.89 143.76 810.5 132.42 801.68 131.24 796.16 123.58 776.99 111.76"/><polygon class="cls-8" points="719.19 251.05 714.19 244.81 720.88 240.27 725.88 246.51 719.19 251.05"/><polygon class="cls-12" points="1457.41 111.81 1452.41 105.57 1459.1 101.03 1464.1 107.27 1457.41 111.81"/><polygon class="cls-12" points="757.41 182.24 752.41 176 759.1 171.47 764.1 177.71 757.41 182.24"/></g></svg>