<svg xmlns="http://www.w3.org/2000/svg" viewBox="0 0 399 358"><defs><style>.cls-1{fill:#1d1e2f;}.cls-2{fill:#fff;}.cls-2,.cls-3{stroke:#1d1e2f;stroke-miterlimit:10;}.cls-3{fill:none;}</style></defs><g id="Calque_1" data-name="Calque 1"><rect class="cls-1" x="90.55" y="131.65" width="158" height="158" transform="translate(257.78 -44.95) rotate(57.87)"/><rect class="cls-2" x="103.32" y="143.27" width="134.41" height="134.41" transform="translate(212.65 -57.12) rotate(47.96)"/><rect class="cls-1" x="115.81" y="156.19" width="109.64" height="109.64" transform="matrix(-0.56, 0.83, -0.83, -0.56, 441.09, 188.93)"/><rect class="cls-2" x="127.38" y="167.67" width="86.25" height="86.25" transform="translate(418.88 102.08) rotate(105.33)"/><rect class="cls-1" x="137.38" y="177.67" width="66.25" height="66.25" transform="translate(368.17 25.22) rotate(85.78)"/></g><g id="deco"><rect class="cls-3" x="298.08" y="71.33" width="59.63" height="59.63" transform="translate(76.48 -132.39) rotate(25.75)"/><rect class="cls-3" x="302.81" y="75.52" width="50.73" height="50.73" transform="translate(39.98 -85.71) rotate(15.83)"/><rect class="cls-3" x="307.63" y="80.35" width="41.37" height="41.37" transform="translate(441.69 -223.23) rotate(92.17)"/><rect class="cls-3" x="311.96" y="84.72" width="32.55" height="32.55" transform="translate(330.06 -242.42) rotate(73.2)"/><rect class="cls-3" x="315.73" y="88.49" width="25" height="25" transform="translate(215.01 -223.23) rotate(53.65)"/></g></svg>