<svg xmlns="http://www.w3.org/2000/svg" viewBox="0 0 399 358"><defs><style>.cls-1{fill:#f4efe4;}.cls-2{fill:none;stroke:#1d1e2f;stroke-miterlimit:10;}.cls-3{fill:#1d1e2f;}</style></defs><g id="deco"><rect class="cls-1" x="232.82" y="37.13" width="11.33" height="11.62" transform="translate(32.31 -84.38) rotate(21.49)"/><rect class="cls-2" x="133.23" y="75.96" width="17" height="17" transform="translate(110.53 -77.55) rotate(48.31)"/><rect class="cls-3" x="230.23" y="210.96" width="17" height="17" transform="translate(243.83 -104.77) rotate(48.31)"/><rect class="cls-2" x="111.79" y="200.74" width="17" height="17" transform="translate(349.22 132.8) rotate(101.43)"/><polygon class="cls-3" points="253.37 127.23 250.15 123.22 254.45 120.3 257.67 124.31 253.37 127.23"/><polygon class="cls-3" points="310.37 63.23 307.15 59.22 311.45 56.3 314.67 60.31 310.37 63.23"/><polygon class="cls-3" points="42.37 163.23 39.15 159.22 43.45 156.3 46.67 160.31 42.37 163.23"/><rect class="cls-3" x="149.9" y="272.49" width="11.33" height="11.62" transform="translate(280.75 -14.92) rotate(52.32)"/><rect class="cls-2" x="202.24" y="317.95" width="11.33" height="11.62" transform="translate(133.06 -53.66) rotate(21.49)"/><rect class="cls-3" x="230.24" y="27.95" width="11.33" height="11.62" transform="translate(28.77 -84.08) rotate(21.49)"/></g></svg>