<svg xmlns="http://www.w3.org/2000/svg" viewBox="0 0 768 300"><defs><style>.cls-1,.cls-2,.cls-5{fill:#f4efe4;}.cls-1{stroke:#0f0e0d;}.cls-1,.cls-2,.cls-3,.cls-5,.cls-6{stroke-miterlimit:10;}.cls-2{stroke:#1c1b19;}.cls-3,.cls-4{fill:#1c1b19;}.cls-3,.cls-6{stroke:#f4efe4;}.cls-5{stroke:#111110;}.cls-6{fill:#020202;}</style></defs><g id="chambres"><rect class="cls-1" x="565.16" y="120.71" width="4.99" height="4.92" transform="translate(329.91 -406.81) rotate(53.6)"/><rect class="cls-2" x="44.06" y="83.37" width="11.42" height="11.26" transform="translate(-8.59 5.38) rotate(-5.7)"/><rect class="cls-3" x="741.28" y="199.26" width="4.99" height="4.92" transform="translate(464.73 -516.63) rotate(53.6)"/><rect class="cls-4" x="650.29" y="54.98" width="7.76" height="7.65" transform="translate(313.27 -502.61) rotate(53.6)"/><rect class="cls-5" x="648.26" y="165.31" width="11.42" height="11.26" transform="translate(-13.74 65.75) rotate(-5.7)"/><rect class="cls-4" x="67.88" y="224.15" width="4.99" height="4.92" transform="translate(211 35.48) rotate(53.6)"/><rect class="cls-2" x="96.53" y="154.91" width="11.42" height="11.26" transform="translate(-15.43 10.94) rotate(-5.7)"/><rect class="cls-2" x="673.59" y="276.35" width="11.42" height="11.26" transform="translate(-24.63 68.81) rotate(-5.7)"/><rect class="cls-6" x="159.21" y="58.18" width="7.76" height="7.65" transform="translate(116.21 -106.06) rotate(53.6)"/><rect class="cls-4" x="31.6" y="157.55" width="4.99" height="4.92" transform="translate(142.64 37.61) rotate(53.6)"/></g></svg>