<svg xmlns="http://www.w3.org/2000/svg" viewBox="0 0 573 300"><defs><style>.cls-1,.cls-4,.cls-6{fill:#f4efe4;}.cls-1{stroke:#1c1b19;}.cls-1,.cls-3,.cls-4,.cls-5,.cls-6{stroke-miterlimit:10;}.cls-2,.cls-5{fill:#1c1b19;}.cls-3{fill:#020202;}.cls-3,.cls-5{stroke:#f4efe4;}.cls-4{stroke:#0f0e0d;}.cls-6{stroke:#111110;}</style></defs><g id="chambres"><rect class="cls-1" x="33.45" y="123.44" width="11.42" height="11.26" transform="translate(-12.62 4.52) rotate(-5.7)"/><rect class="cls-2" x="51.27" y="275.21" width="4.99" height="4.92" transform="translate(245.35 69.61) rotate(53.6)"/><rect class="cls-1" x="76.92" y="175.98" width="11.42" height="11.26" transform="translate(-17.62 9.1) rotate(-5.7)"/><rect class="cls-3" x="142.6" y="109.25" width="7.76" height="7.65" transform="translate(150.56 -71.93) rotate(53.6)"/><rect class="cls-2" x="14.98" y="208.61" width="4.99" height="4.92" transform="translate(176.99 71.74) rotate(53.6)"/><rect class="cls-4" x="447.01" y="103.4" width="4.99" height="4.92" transform="translate(267.94 -318.75) rotate(53.6)"/><rect class="cls-5" x="505.13" y="219.96" width="4.99" height="4.92" transform="translate(385.38 -318.15) rotate(53.6)"/><rect class="cls-2" x="532.14" y="37.67" width="7.76" height="7.65" transform="translate(251.31 -414.56) rotate(53.6)"/><rect class="cls-6" x="530.11" y="148" width="11.42" height="11.26" transform="translate(-12.6 53.94) rotate(-5.7)"/><rect class="cls-1" x="555.44" y="259.04" width="11.42" height="11.26" transform="translate(-23.5 57) rotate(-5.7)"/></g></svg>