<svg xmlns="http://www.w3.org/2000/svg" viewBox="0 0 958 436"><defs><style>.cls-1,.cls-8{fill:#1d1e2f;}.cls-11,.cls-2,.cls-3,.cls-4,.cls-5{fill:#fff;}.cls-2,.cls-3,.cls-9{stroke:#1d1e2f;}.cls-10,.cls-11,.cls-2,.cls-3,.cls-4,.cls-5,.cls-8,.cls-9{stroke-miterlimit:10;}.cls-2,.cls-5,.cls-9{stroke-width:2px;}.cls-4,.cls-5{stroke:#2b2c49;}.cls-11,.cls-4,.cls-8{stroke-width:3px;}.cls-6{fill:#b3a0c3;}.cls-7{fill:#909fce;}.cls-10,.cls-8{stroke:#fff;}.cls-10,.cls-9{fill:none;}.cls-11{stroke:#050505;}.cls-12{fill:#f2aa87;}</style></defs><g id="guy"><ellipse class="cls-1" cx="766" cy="73" rx="159" ry="23"/><polygon class="cls-2" points="648.97 100 659.64 96.51 663.74 86.21 658.06 77.59 665.94 86.26 663.74 93.36 672 88.8 680.6 77.59 673.04 65.76 680.92 73.65 684.08 71.28 684.08 78.64 691.96 79.17 698.91 70.04 687.23 67.29 703 67.34 694.36 82.18 682.42 82.88 674.07 91.16 679.57 93.36 684.39 91.16 677.61 96.88 670.62 93.36 662 102.03 653.22 107.74 648.97 100"/><rect class="cls-1" x="454.87" y="286.93" width="18.39" height="18.39" transform="translate(77.64 -95.95) rotate(12.87)"/><rect class="cls-1" x="401.76" y="320.79" width="11.24" height="11.24" transform="translate(82.96 -82.56) rotate(12.87)"/><path class="cls-1" d="M653.91,111.82l1.06-9.74-17.4-12-12.39-3.32-19.85,15.66s-8.34,17.49-6.93,25.82c1.47,8.76,3.13,3.34,3.13,3.34l5.35,5.86L630,157.7l13.7-10.44,5.61-8.49Z"/><ellipse class="cls-3" cx="634.71" cy="120.75" rx="23.29" ry="20" transform="matrix(0.26, -0.97, 0.97, 0.26, 353.55, 702.47)"/><path class="cls-1" d="M652.36,111s-4.13.6-5.31,7.09,4.85,5.87,6.38,5.13,1.53-4.15,1.53-4.15l-1.05-7.27Z"/><polygon class="cls-1" points="643.65 147.26 689 174 729 154 726 161 691 200 658.87 185.22 656 211 662 234 694 277 683 273 685 287 666.96 282.08 674 299 649.96 287.75 642.83 294.99 636.99 288.95 630 309 625.52 295.56 612 311 604.13 294.48 597.52 302.46 594.91 297.79 590.67 304.04 586.96 298.66 585.6 302.68 580.06 295.83 572 304 574.41 289.43 562 302 568.31 290.5 550 301 548.56 287.08 532.23 291.22 578.2 213.52 584.92 188.49 581.4 159.95 602.7 143.3 598.93 130.09 643.65 147.26"/><polygon class="cls-1" points="613.24 116.31 648.97 135.98 636.8 147.98 611.11 134.82 613.24 116.31"/><path class="cls-4" d="M599.05,214.67a31,31,0,0,1-4-3.87,33.06,33.06,0,0,1,25.78-10.59,33.69,33.69,0,0,1,24.73,12.09,30.9,30.9,0,0,1-3.65,3.53S622,230.16,599.05,214.67Z"/><path class="cls-5" d="M620.37,219.89a6,6,0,0,1-3.75-1.76c-.66-.55-1.08-.88-1.49-.9a3.57,3.57,0,0,1-3.35-3.25c-.29-1.72.24-3.85,1.73-4.72a4.7,4.7,0,0,1,.9-3.12c1.55-2.19,2.86-2.57,4.74-2.52l.73,0a4.07,4.07,0,0,1,2.85,1.44c.4.42.51.54,1.09.55a7,7,0,0,1,5.12,2.54l.09.1.06.12a7.08,7.08,0,0,1,.12,7,4.39,4.39,0,0,1-4,2.17h0l-.3,0h-.47l-.08.14a4,4,0,0,1-3.08,2.17A4.39,4.39,0,0,1,620.37,219.89Z"/><path class="cls-6" d="M627.56,209.24a5.31,5.31,0,0,0-3.79-1.86c-2.42-.07-2.13-1.89-4-2s-2.63-.12-3.95,1.76.23,3-1.28,3.53-1.63,4.75.63,4.81,3.22,3.06,5.85,2.62,1.12-2.58,4.08-2.32S629.22,212.25,627.56,209.24Z"/><path class="cls-7" d="M620.47,216.41c-.48,0-.92-.37-1.62-.95a5.81,5.81,0,0,0-3.53-1.7,2.1,2.1,0,0,1,0-1.52,2.73,2.73,0,0,0,1.66-3,1.4,1.4,0,0,1,.25-1.12c.76-1.08.92-1.07,1.8-1.05l.64,0c.17,0,.18,0,.52.37a4.56,4.56,0,0,0,3.51,1.62,3.57,3.57,0,0,1,2.39,1.1,3.67,3.67,0,0,1,.13,3.33.93.93,0,0,1-.89.51h-.09l-.44,0a3.4,3.4,0,0,0-3.45,1.9c-.22.39-.22.39-.63.46Z"/><circle class="cls-1" cx="620.69" cy="212" r="1.74"/><line class="cls-8" x1="589.88" y1="196.25" x2="596.61" y2="203.17"/><line class="cls-8" x1="604.63" y1="191.18" x2="607.1" y2="197.48"/><line class="cls-8" x1="621.23" y1="185.75" x2="620.91" y2="196.64"/><line class="cls-8" x1="652.41" y1="197.67" x2="645.28" y2="204.18"/><line class="cls-8" x1="637.99" y1="191.73" x2="635.14" y2="197.87"/><line class="cls-9" x1="767" y1="83" x2="599.94" y2="408.16"/><line class="cls-9" x1="834" y1="91" x2="679.5" y2="413.5"/><line class="cls-9" x1="731.45" y1="151.26" x2="802.17" y2="159.74"/><line class="cls-9" x1="707.52" y1="197.7" x2="780.19" y2="206.52"/><line class="cls-9" x1="680.84" y1="249.48" x2="755.49" y2="259.1"/><line class="cls-9" x1="654.09" y1="301.39" x2="730.55" y2="312.17"/><line class="cls-9" x1="625.99" y1="356.04" x2="704.62" y2="367.38"/><polygon class="cls-1" points="578.86 287.38 579 416 586 416 615 288 578.86 287.38"/><polygon class="cls-2" points="615.24 98.33 587.24 86.71 587.24 60.8 582.56 84.36 566.5 73.5 596.24 42.91 566.5 66.91 568.87 52.95 550.5 44.5 562.5 53.5 559.5 75.5 587.24 93.53 572.14 98.33 565.6 98.33 575.5 102.5 593 97.89 607.45 107.74 615.24 102.69 615.24 98.33"/><path class="cls-2" d="M642.12,123.68s6.38,8.82,15.38,7.82c5.76-.64-6.7,12.06-21.71,6a11.46,11.46,0,0,1-3.37-2.11,22.94,22.94,0,0,0-10.91-5.33c-8-1.59-6.44-13.16-6.44-13.16"/><circle class="cls-1" cx="628.64" cy="114.87" r="7.12"/><polygon class="cls-1" points="654.5 267.78 714 385 701 380 615 283 654.5 267.78"/><line class="cls-9" x1="755.75" y1="104.78" x2="824.7" y2="111.68"/><line class="cls-10" x1="760.39" y1="95.8" x2="780.19" y2="55.07"/><line class="cls-10" x1="834" y1="93.79" x2="846.25" y2="65.76"/><path class="cls-11" d="M501.85,178.77l-82.32-25.64A72.83,72.83,0,0,0,432.47,133a53.23,53.23,0,0,0,4.24-20.63C436.71,55.84,343.34,10,228.17,10S19.62,55.84,19.62,112.38,113,214.76,228.17,214.76c59.7,0,113.54-12.32,151.56-32.06h0Z"/></g><g id="door"><path class="cls-12" d="M105.69-100.33l-1.31,3.56c-.48,1.23-1,2.46-1.48,3.68-1,2.44-2.16,4.85-3.4,7.21A63.38,63.38,0,0,1,95.38-79a29.85,29.85,0,0,1-5.52,6.22A13.83,13.83,0,0,1,86-70.47a9.14,9.14,0,0,1-4.94.4,10.52,10.52,0,0,1-4.43-2.13,18.18,18.18,0,0,1-3.14-3.26,30,30,0,0,1-2.35-3.6q-.52-.93-1-1.86l-.87-1.75a31.32,31.32,0,0,1-1.84-3.9,17.83,17.83,0,0,1-.62-2.29l-.42-1.92a300.5,300.5,0,0,0-8.24-30.12c-3.34-9.74-7.26-19.34-12.63-27.55a40.81,40.81,0,0,0-9.16-10.31,16.83,16.83,0,0,0-5.19-2.71,11.24,11.24,0,0,0-5.1-.36c-3.38.53-6.93,2.73-10.13,5.8a56.48,56.48,0,0,0-8.6,11c-5.06,8.31-8.93,17.68-12.2,27.27l-10,30c-3.4,10-6.89,20.09-10.76,30.13A238.9,238.9,0,0,1-39.22-27.66a103,103,0,0,1-9.63,14.57A59.52,59.52,0,0,1-55.34-6.2,41.3,41.3,0,0,1-63.86-.26a34.41,34.41,0,0,1-5.2,2.16,31.27,31.27,0,0,1-5.72,1.21,31.52,31.52,0,0,1-11.47-.78A41,41,0,0,1-96-1.6a57.49,57.49,0,0,1-8-5.35c-.63-.51-1.49-1.21-2.12-1.83s-1.32-1.3-1.94-2a44.35,44.35,0,0,1-3.25-4,64.93,64.93,0,0,1-4.94-8,122.94,122.94,0,0,1-6.85-15.83c-3.76-10.5-6.62-20.91-9.32-31.26s-5.13-20.66-7.55-30.89-4.9-20.38-7.6-30.37-5.6-19.84-9-29.29-7.42-18.52-12.49-25.94a39,39,0,0,0-8.22-9.05,16.71,16.71,0,0,0-8.84-3.63,23.11,23.11,0,0,0-10.51,2,56.52,56.52,0,0,0-11.47,6.61,146.52,146.52,0,0,0-21.56,20l-5.37,5.89-5.47,5.89c-3.69,3.9-7.42,7.77-11.24,11.56-7.65,7.58-15.59,14.94-24,21.91a193.5,193.5,0,0,1-27,19.19,108.12,108.12,0,0,1-15.55,7.44,64.33,64.33,0,0,1-17.75,4.14,41.28,41.28,0,0,1-19.34-3,41.21,41.21,0,0,1-15.44-11.75,62.61,62.61,0,0,1-9.22-15.37,105.12,105.12,0,0,1-5.35-16.1A190.22,190.22,0,0,1-390.31-173c-.39-5.38-.62-10.75-.73-16.11,0-2.66-.09-5.39-.07-8l0-7.86c0-5.24-.07-10.47-.21-15.71s-.29-10.46-.58-15.68c-.6-10.42-1.36-20.88-3.33-31.08-.49-2.55-1.09-5.07-1.76-7.56a47.65,47.65,0,0,0-2.55-7.26,16.7,16.7,0,0,0-4.34-6.12,6.14,6.14,0,0,0-3.37-1.42,5.57,5.57,0,0,0-3.65,1,5.92,5.92,0,0,1,3.65-1.59,6.79,6.79,0,0,1,4,1.06,18.06,18.06,0,0,1,5.58,6,64.06,64.06,0,0,1,6.39,14.85c1.6,5.13,2.87,10.33,4,15.56s2.07,10.48,2.86,15.75c1.62,10.53,2.78,21.11,3.7,31.7l.66,7.94.55,7.81c.41,5.17.93,10.32,1.6,15.43a188,188,0,0,0,6.1,29.85,91.26,91.26,0,0,0,5.3,13.64A48.41,48.41,0,0,0-359-119.42a25.19,25.19,0,0,0,9.77,6.87,25.17,25.17,0,0,0,11.69,1.22,47.4,47.4,0,0,0,12.82-3.55A89.51,89.51,0,0,0-312-121.55c4.17-2.58,8.23-5.47,12.22-8.52s7.89-6.28,11.72-9.63c7.65-6.72,15-13.92,22.13-21.38q5.35-5.58,10.58-11.34l5.18-5.8,5.17-5.9c7.26-8.25,15-16.31,24.41-23.33a77.62,77.62,0,0,1,15.8-9.27,50.44,50.44,0,0,1,9.57-3,40.59,40.59,0,0,1,10.75-.73A37.37,37.37,0,0,1-173.65-218a41,41,0,0,1,9.36,5.23,59.07,59.07,0,0,1,13.17,14.07,108.72,108.72,0,0,1,8.68,15.27c2.44,5.15,4.55,10.33,6.46,15.52,3.82,10.36,6.87,20.76,9.62,31.15,5.47,20.75,9.93,41.43,14.85,61.65,2.49,10.07,5.13,20,8.38,29.45a111.66,111.66,0,0,0,5.47,13.27c2,4,4.41,7.58,6.61,9.35a28.23,28.23,0,0,0,9.87,5.67,11.32,11.32,0,0,0,4.2.43,11.44,11.44,0,0,0,4.13-1.2,29.07,29.07,0,0,0,8.95-7.47,84.76,84.76,0,0,0,8.1-11.58A241.89,241.89,0,0,0-42.46-64.42c4.06-9.5,7.83-19.25,11.56-29.06l11.29-29.58a145.36,145.36,0,0,1,15-29.68A69.65,69.65,0,0,1,7-166a40.09,40.09,0,0,1,7.82-5.35,27.76,27.76,0,0,1,9.81-2.94,23.75,23.75,0,0,1,10.48,1.39,28.67,28.67,0,0,1,8.5,5,50.44,50.44,0,0,1,11,13.84,103.35,103.35,0,0,1,6.89,15.13c1.89,5.13,3.48,10.31,4.83,15.52a271.71,271.71,0,0,1,6.1,31.47l.27,2A10.13,10.13,0,0,0,73-88.35,26.36,26.36,0,0,0,74.22-85l.4,1,.34.88c.23.57.46,1.15.72,1.7a25.43,25.43,0,0,0,1.69,3.19c1.24,2,2.82,3.64,4.59,4.17s3.91-.09,5.9-1.42a27.17,27.17,0,0,0,5.49-5.06A62.78,62.78,0,0,0,98-86.77c1.44-2.18,2.79-4.43,4.07-6.73.64-1.14,1.27-2.3,1.89-3.47l.9-1.75.44-.89.22-.44.11-.22C105.65-100.35,105.75-100.47,105.69-100.33Z"/></g></svg>