<svg xmlns="http://www.w3.org/2000/svg" viewBox="0 0 958 436"><defs><style>.cls-1,.cls-4,.cls-6,.cls-7{fill:#fff;}.cls-1,.cls-10,.cls-11,.cls-12,.cls-2,.cls-3,.cls-4,.cls-7{stroke:#191918;}.cls-1,.cls-12,.cls-2,.cls-3,.cls-4,.cls-7,.cls-8,.cls-9{stroke-miterlimit:10;}.cls-1,.cls-9{stroke-width:3px;}.cls-12,.cls-2,.cls-5{fill:#1d1e2f;}.cls-3,.cls-8,.cls-9{fill:none;}.cls-3{stroke-width:4px;}.cls-12,.cls-4{stroke-width:2px;}.cls-8,.cls-9{stroke:#fff;}.cls-10{fill:#b3a0c3;}.cls-10,.cls-11{stroke-width:0;}.cls-11{fill:#909fce;}</style></defs><g id="guy"><path class="cls-1" d="M496.46,170.87l-82.32-24a68.05,68.05,0,0,0,12.95-18.79,47.12,47.12,0,0,0,4.23-19.28C431.32,56,338,13.21,222.78,13.21S14.23,56,14.23,108.85,107.6,204.5,222.78,204.5c59.7,0,113.54-11.51,151.56-29.95h0Z"/><ellipse class="cls-2" cx="700" cy="65.5" rx="183.5" ry="23"/><path class="cls-3" d="M773,85.5V391.69s85.5,8.81,37.5,13.81-46,14-32,16"/><circle class="cls-2" cx="774" cy="389" r="5.5"/><rect class="cls-2" x="418.38" y="320.68" width="18.39" height="18.39" transform="translate(84.24 -86.97) rotate(12.87)"/><rect class="cls-2" x="473.27" y="285.54" width="11.24" height="11.24" transform="translate(76.9 -99.37) rotate(12.87)"/></g><g id="deco"><path class="cls-4" d="M658.18,234.28V284s-21.19-50.53-13-62.76l7.79,7.21Z"/><polygon class="cls-5" points="658.18 234.28 658.18 284 653 228.65 658.18 234.28"/><polyline class="cls-5" points="641.86 43.36 616.02 142.25 627.16 167.74 652.77 177.14 642.29 193.35 641.12 219.88 651.6 231.66 669.04 240.41 689.11 231.66 703.17 213.98 700.63 191.01 690.95 177.03 713.27 165.02 724.87 142.25 704.49 42"/><path class="cls-6" d="M648.92,206.13c0-9.75,4.61-13.42,17.48-9.32a11.49,11.49,0,0,0,6.89,0c13.12-4.13,19.06-.47,19.06,9.3,0,10.58-9.72,19.15-21.71,19.15S648.92,216.71,648.92,206.13Z"/><polygon class="cls-6" points="683.61 195.15 670.45 185.75 657.07 195.15 666.35 200.15 678.06 200.15 683.61 195.15"/><circle class="cls-5" cx="682.01" cy="207.64" r="4.77"/><circle class="cls-5" cx="658.86" cy="207.64" r="4.77"/><line class="cls-7" x1="697.07" y1="200.15" x2="712.52" y2="202.88"/><line class="cls-7" x1="693.91" y1="195.15" x2="710.15" y2="192.95"/><line class="cls-7" x1="647.17" y1="202.88" x2="631.63" y2="204.92"/><line class="cls-7" x1="647.17" y1="196.84" x2="636.47" y2="195.15"/><path class="cls-4" d="M682,234.76v47.88s19.24-45.63,15.06-61l-8,10Z"/><path class="cls-5" d="M688.14,232.68s-2.73,38.77-6.13,46.69V234.76Z"/><line class="cls-8" x1="630.45" y1="86.5" x2="643.09" y2="43.47"/><line class="cls-8" x1="704" y1="42.5" x2="714.59" y2="88.5"/><line class="cls-9" x1="772.5" y1="86.5" x2="772.5" y2="44.37"/><path class="cls-4" d="M692.65,116.33a31.29,31.29,0,0,1,4.06,3.91A33.48,33.48,0,0,1,670.6,131a34.15,34.15,0,0,1-25.06-12.24,31.76,31.76,0,0,1,3.7-3.58S669.42,100.64,692.65,116.33Z"/><path class="cls-4" d="M671.05,111a6,6,0,0,1,3.8,1.78c.67.56,1.1.9,1.51.91a3.62,3.62,0,0,1,3.39,3.3c.29,1.74-.23,3.9-1.75,4.78a4.69,4.69,0,0,1-.91,3.15c-1.57,2.22-2.9,2.61-4.8,2.56l-.74,0a4,4,0,0,1-2.88-1.45,1.24,1.24,0,0,0-1.11-.56,7,7,0,0,1-5.19-2.57l-.09-.1-.06-.12a7.17,7.17,0,0,1-.12-7.06,4.44,4.44,0,0,1,4-2.2h0l.3,0h.48l.08-.14a4,4,0,0,1,3.12-2.2A4.48,4.48,0,0,1,671.05,111Z"/><path class="cls-10" d="M663.77,121.83a5.38,5.38,0,0,0,3.84,1.88c2.45.07,2.15,1.91,4,2s2.66.13,4-1.77-.23-3,1.3-3.58,1.65-4.81-.64-4.88-3.26-3.09-5.93-2.64-1.13,2.61-4.12,2.35S662.09,118.78,663.77,121.83Z"/><path class="cls-11" d="M671,114.57c.48,0,.94.37,1.64,1a5.94,5.94,0,0,0,3.58,1.72,2.15,2.15,0,0,1,0,1.54,2.75,2.75,0,0,0-1.68,3,1.42,1.42,0,0,1-.26,1.13c-.77,1.09-.93,1.09-1.82,1.06l-.65,0c-.17,0-.18,0-.53-.37a4.64,4.64,0,0,0-3.55-1.65,3.58,3.58,0,0,1-2.43-1.11,3.72,3.72,0,0,1-.12-3.37.93.93,0,0,1,.9-.51h.09l.44,0a3.43,3.43,0,0,0,3.5-1.93c.22-.39.22-.39.64-.46A.84.84,0,0,1,671,114.57Z"/><circle class="cls-2" cx="670.73" cy="119.03" r="1.76"/><line class="cls-12" x1="701.94" y1="134.98" x2="695.12" y2="127.97"/><line class="cls-12" x1="687" y1="140.12" x2="684.49" y2="133.74"/><line class="cls-12" x1="670.18" y1="145.62" x2="670.5" y2="134.59"/><line class="cls-12" x1="638.6" y1="133.54" x2="645.82" y2="126.95"/><line class="cls-12" x1="653.21" y1="139.56" x2="656.09" y2="133.34"/></g></svg>