<svg xmlns="http://www.w3.org/2000/svg" viewBox="0 0 958 420"><defs><style>.cls-1,.cls-10{fill:#1d1e2f;}.cls-2,.cls-3{fill:none;}.cls-2,.cls-4,.cls-5{stroke:#1d1e2f;}.cls-10,.cls-11,.cls-2,.cls-3,.cls-4,.cls-5,.cls-6,.cls-7{stroke-miterlimit:10;}.cls-2,.cls-4,.cls-7{stroke-width:2px;}.cls-10,.cls-3{stroke:#fff;}.cls-11,.cls-4,.cls-5,.cls-6,.cls-7{fill:#fff;}.cls-6,.cls-7{stroke:#2b2c49;}.cls-10,.cls-11,.cls-6{stroke-width:3px;}.cls-8{fill:#b3a0c3;}.cls-9{fill:#909fce;}.cls-11{stroke:#050505;}</style></defs><g id="guy"><ellipse class="cls-1" cx="750" cy="59" rx="159" ry="23"/><line class="cls-2" x1="751" y1="69" x2="583.94" y2="394.16"/><line class="cls-2" x1="818" y1="77" x2="663.5" y2="399.5"/><line class="cls-2" x1="715.45" y1="137.26" x2="786.17" y2="145.74"/><line class="cls-2" x1="691.52" y1="183.7" x2="764.19" y2="192.52"/><line class="cls-2" x1="664.84" y1="235.48" x2="739.49" y2="245.1"/><line class="cls-2" x1="638.09" y1="287.39" x2="714.55" y2="298.17"/><line class="cls-2" x1="609.99" y1="342.04" x2="688.62" y2="353.38"/><line class="cls-2" x1="739.75" y1="90.78" x2="808.7" y2="97.68"/><line class="cls-3" x1="744.39" y1="81.8" x2="764.19" y2="41.07"/><line class="cls-3" x1="818" y1="79.79" x2="830.25" y2="51.76"/><polygon class="cls-4" points="621.58 104.36 632.25 100.87 636.35 90.57 630.67 81.95 638.55 90.62 636.35 97.72 644.61 93.16 653.21 81.95 645.65 70.12 653.53 78.01 656.69 75.64 656.69 83 664.57 83.53 671.53 74.4 659.84 71.65 675.61 71.7 666.97 86.54 655.03 87.24 646.67 95.52 652.18 97.72 657 95.52 650.22 101.24 643.24 97.72 634.61 106.39 625.83 112.1 621.58 104.36"/><rect class="cls-1" x="433.48" y="276.29" width="18.39" height="18.39" transform="translate(74.73 -91.45) rotate(12.87)"/><rect class="cls-1" x="382.37" y="306.15" width="11.24" height="11.24" transform="translate(79.21 -78.6) rotate(12.87)"/><path class="cls-1" d="M626.52,116.18l1.06-9.74-17.4-12-12.39-3.32-19.85,15.66s-8.34,17.49-6.93,25.82c1.47,8.76,3.13,3.34,3.13,3.34l5.35,5.86,23.07,20.31,13.7-10.44,5.61-8.49Z"/><ellipse class="cls-5" cx="607.32" cy="125.11" rx="23.29" ry="20" transform="translate(329.05 679.24) rotate(-74.98)"/><path class="cls-1" d="M625,115.38s-4.13.6-5.31,7.09,4.85,5.87,6.38,5.13,1.53-4.15,1.53-4.15l-1.05-7.27Z"/><polygon class="cls-1" points="616.26 151.62 661.61 178.36 703.61 158.36 701.61 168.36 663.61 204.36 631.48 200.58 628.61 215.36 627.61 241.36 684 263 656.61 282.07 651.59 289.67 639.57 286.44 633.57 301.24 622.57 292.11 615.44 299.35 609.6 293.31 601.37 311.52 598.13 299.93 589.73 310.23 576.75 298.84 570.13 306.82 567.52 302.14 563.28 308.4 559.57 303.02 558.21 307.04 552.67 300.19 553.45 303.35 553.02 293.79 539.15 310.38 540.92 294.86 519.54 305.32 528.17 291.44 513.84 295.58 550.81 217.88 557.53 192.85 554.01 164.31 575.31 147.66 571.55 134.45 616.26 151.62"/><polygon class="cls-1" points="585.85 120.67 621.58 140.34 609.41 152.34 583.72 139.18 585.85 120.67"/><path class="cls-6" d="M571.66,219a31,31,0,0,1-4-3.87,33.06,33.06,0,0,1,25.78-10.59,33.66,33.66,0,0,1,24.73,12.09,30.9,30.9,0,0,1-3.65,3.53S594.59,234.52,571.66,219Z"/><path class="cls-7" d="M593,224.25a6,6,0,0,1-3.75-1.76c-.66-.55-1.08-.88-1.49-.9a3.57,3.57,0,0,1-3.35-3.25c-.29-1.72.24-3.85,1.73-4.73a4.69,4.69,0,0,1,.9-3.11c1.55-2.19,2.86-2.57,4.74-2.52l.73,0a4.07,4.07,0,0,1,2.85,1.44c.4.42.51.54,1.09.55a7,7,0,0,1,5.12,2.54l.09.1.06.12a7.08,7.08,0,0,1,.12,7,4.39,4.39,0,0,1-4,2.17h0l-.3,0h-.47L597,222a4,4,0,0,1-3.08,2.17A4.39,4.39,0,0,1,593,224.25Z"/><path class="cls-8" d="M600.17,213.6a5.31,5.31,0,0,0-3.79-1.86c-2.42-.07-2.13-1.89-4-2s-2.62-.12-3.95,1.76.23,3-1.28,3.53-1.63,4.75.63,4.81,3.22,3.06,5.85,2.62,1.12-2.59,4.08-2.32S601.83,216.61,600.17,213.6Z"/><path class="cls-9" d="M593.08,220.77c-.47,0-.92-.37-1.62-1a5.88,5.88,0,0,0-3.53-1.71,2.07,2.07,0,0,1,0-1.51,2.73,2.73,0,0,0,1.66-3,1.4,1.4,0,0,1,.25-1.12c.77-1.08.92-1.07,1.8-1l.64,0c.17,0,.18,0,.52.37a4.56,4.56,0,0,0,3.51,1.62,3.63,3.63,0,0,1,2.4,1.1,3.7,3.7,0,0,1,.12,3.33,1,1,0,0,1-.89.51h-.09l-.43,0a3.4,3.4,0,0,0-3.46,1.9c-.22.39-.22.39-.63.46Z"/><circle class="cls-1" cx="593.3" cy="216.36" r="1.74"/><line class="cls-10" x1="562.49" y1="200.61" x2="569.22" y2="207.53"/><line class="cls-10" x1="577.24" y1="195.54" x2="579.71" y2="201.84"/><line class="cls-10" x1="593.85" y1="190.11" x2="593.52" y2="200.99"/><line class="cls-10" x1="625.02" y1="202.03" x2="617.89" y2="208.54"/><line class="cls-10" x1="610.6" y1="196.09" x2="607.76" y2="202.23"/><polygon class="cls-1" points="663 263 696 271 677 351 668 350 670 294 615 293 663 263"/><polygon class="cls-1" points="542.93 289.42 523.49 394.25 534.4 394.75 575.39 296.45 542.93 289.42"/><polygon class="cls-4" points="587.85 102.69 559.86 91.07 559.86 65.16 555.17 88.72 539.11 77.86 568.86 47.27 539.11 71.27 541.48 57.3 523.11 48.86 535.11 57.86 532.11 79.86 559.86 97.89 544.76 102.69 538.21 102.69 548.11 106.86 565.61 102.25 580.06 112.1 587.85 107.05 587.85 102.69"/><path class="cls-4" d="M614.73,128s6.38,8.82,15.38,7.82c5.76-.64-6.7,12.06-21.71,6a11.46,11.46,0,0,1-3.37-2.11,22.85,22.85,0,0,0-10.91-5.33c-8-1.59-6.44-13.16-6.44-13.16"/><circle class="cls-1" cx="601.25" cy="119.23" r="7.12"/><path class="cls-11" d="M497.23,170.66l-82.32-23.95a67.8,67.8,0,0,0,12.94-18.79,47,47,0,0,0,4.24-19.27C432.09,55.82,338.72,13,223.55,13S15,55.82,15,108.65s93.37,95.64,208.55,95.64c59.7,0,113.54-11.51,151.56-29.95h0Z"/></g></svg>