<svg xmlns="http://www.w3.org/2000/svg" viewBox="0 0 958 436"><defs><style>.cls-1,.cls-11,.cls-3{fill:#1d1e2f;}.cls-1,.cls-10,.cls-11,.cls-2,.cls-8,.cls-9{stroke:#191918;}.cls-1,.cls-11,.cls-2,.cls-5,.cls-8{stroke-miterlimit:10;}.cls-2,.cls-7,.cls-8{fill:#fff;}.cls-11,.cls-2,.cls-5{stroke-width:3px;}.cls-4{fill:#2d2f3d;}.cls-5{fill:none;stroke:#000;}.cls-6{fill:#292a3a;}.cls-8{stroke-width:2px;}.cls-9{fill:#b3a0c3;}.cls-10,.cls-9{stroke-width:0;}.cls-10{fill:#909fce;}</style></defs><g id="guy"><rect class="cls-1" x="490.08" y="328.22" width="18.39" height="18.39" transform="translate(87.72 -102.75) rotate(12.87)"/><rect class="cls-1" x="532.97" y="370.08" width="11.24" height="11.24" transform="translate(97.24 -110.55) rotate(12.87)"/></g><g id="deco"><path class="cls-2" d="M375,204.77l92.64-28.85a82.31,82.31,0,0,1-14.57-22.64,60.1,60.1,0,0,1-4.76-23.22c0-63.64,105.08-115.22,234.7-115.22s234.7,51.58,234.7,115.22S812.63,245.28,683,245.28c-67.2,0-127.79-13.86-170.58-36.08h0Z"/><polygon class="cls-1" points="294.65 400.23 119.2 400.23 66.22 429.62 340 429.62 294.65 400.23"/><rect class="cls-1" x="119.2" y="51.02" width="175.45" height="343.38"/><rect class="cls-2" x="124.9" y="63.13" width="157.22" height="331.27"/><rect class="cls-3" x="140.85" y="73.03" width="131.02" height="314.76"/><polyline class="cls-4" points="140.85 100.11 250.78 121.72 255.34 361.98 140.85 356.55 140.85 100.11"/><ellipse class="cls-1" cx="53.02" cy="225.81" rx="9.21" ry="9.1" transform="translate(-177 195.96) rotate(-69.39)"/><polygon class="cls-2" points="74.77 9 140.85 64.25 140.85 392.54 74.77 429.51 74.77 9"/><rect class="cls-1" x="57.68" y="7" width="17.09" height="422.62"/><polygon class="cls-5" points="86.3 45.52 86.3 134.64 124.9 149.04 124.9 73.03 86.3 45.52"/><polygon class="cls-5" points="86.3 157.49 124.9 170.72 124.9 274.61 86.3 280.28 86.3 157.49"/><polygon class="cls-5" points="86.3 299.17 124.9 293.5 124.9 373.12 86.3 394.99 86.3 299.17"/><ellipse class="cls-1" cx="91.86" cy="227.78" rx="9.21" ry="9.1" transform="translate(-153.68 233.59) rotate(-69.39)"/><rect class="cls-6" x="61.1" y="231.57" width="9.11" height="23.81"/><ellipse class="cls-1" cx="81.61" cy="227.78" rx="3.42" ry="3.79"/><path class="cls-3" d="M220.6,114.68l-14.82-6.42-14.73,6.42-10.33,13-1.14,16.87,9.12,11.27-11.4,10.82-12.52,13.73L175,231.57l-21.64,55.19s-5.32,19.73,21.26,12,23.17-.12,17.47,5.29,28.49,11.9,26.21,2.16,9.11-14.07,12.53-10.82-.56,26,13.39,21.1,13.95-12.44,6-30.84l-18.41-50.86,14.92-54.46-10.19-13.73-14.81-11.9,5.7-11.91-1.14-19.48Z"/><path class="cls-7" d="M220,134.71c0,7.16-3.39,9.85-12.84,6.84a8.43,8.43,0,0,0-5.07,0c-9.63,3-14,.34-14-6.83,0-7.77,7.14-14.07,16-14.07S220,126.94,220,134.71Z"/><polygon class="cls-7" points="188.13 118.36 185.28 106.03 186.7 93.97 183.49 100.11 183.49 80.99 180.01 102.81 186.09 120.91 188.13 118.36"/><polygon class="cls-7" points="222.19 117.1 225.99 97.25 222.19 87.36 227.43 96.29 227.43 86.18 224.81 78.97 229.71 86.55 229.71 99.17 223.55 119.18 222.19 117.1"/><polygon class="cls-3" points="174.64 298.79 184.07 378.51 192.68 378.21 198.09 293.5 186.37 282.17 174.64 298.79"/><polygon class="cls-3" points="211.99 293.5 225.95 280.28 235.97 290.55 226.26 365.76 215.47 365.23 211.99 293.5"/><ellipse class="cls-3" cx="212.62" cy="132" rx="3.99" ry="3.79"/><ellipse class="cls-3" cx="195.53" cy="132" rx="3.99" ry="3.79"/><path class="cls-2" d="M184.48,209.57a30.22,30.22,0,0,1-4-3.86,33,33,0,0,1,25.77-10.59A33.71,33.71,0,0,1,231,207.2a31.57,31.57,0,0,1-3.65,3.54S207.42,225.07,184.48,209.57Z"/><path class="cls-8" d="M205.8,214.8a6.05,6.05,0,0,1-3.75-1.76c-.66-.55-1.08-.89-1.48-.9a3.56,3.56,0,0,1-3.35-3.26c-.29-1.72.23-3.85,1.72-4.72a4.74,4.74,0,0,1,.9-3.11c1.55-2.19,2.86-2.58,4.75-2.52l.72,0a4,4,0,0,1,2.85,1.44,1.22,1.22,0,0,0,1.1.55,7,7,0,0,1,5.12,2.53l.08.11.07.12a7.08,7.08,0,0,1,.11,7,4.38,4.38,0,0,1-4,2.17h-.29l-.23,0h-.25a.64.64,0,0,0-.08.14,4,4,0,0,1-3.08,2.17A6,6,0,0,1,205.8,214.8Z"/><path class="cls-9" d="M213,204.14a5.28,5.28,0,0,0-3.8-1.85c-2.42-.07-2.12-1.89-4-2s-2.63-.12-4,1.75.24,3-1.27,3.53-1.64,4.75.63,4.82,3.22,3.06,5.84,2.61,1.13-2.58,4.08-2.32S214.65,207.15,213,204.14Z"/><path class="cls-10" d="M205.91,211.31c-.48,0-.93-.37-1.62-.95a6,6,0,0,0-3.54-1.7,2.15,2.15,0,0,1,0-1.52,2.72,2.72,0,0,0,1.66-3,1.37,1.37,0,0,1,.26-1.11c.76-1.08.92-1.08,1.79-1.05l.65,0c.16,0,.17,0,.51.37a4.64,4.64,0,0,0,3.51,1.62,3.56,3.56,0,0,1,2.4,1.1,3.67,3.67,0,0,1,.12,3.33.91.91,0,0,1-.89.5h-.09l-.43,0a3.4,3.4,0,0,0-3.46,1.91c-.22.38-.22.38-.63.45A.78.78,0,0,1,205.91,211.31Z"/><circle class="cls-1" cx="206.12" cy="206.9" r="1.74"/><line class="cls-11" x1="175.31" y1="191.16" x2="182.05" y2="198.08"/><line class="cls-11" x1="190.06" y1="186.08" x2="192.53" y2="192.38"/><line class="cls-11" x1="206.67" y1="180.65" x2="206.35" y2="191.54"/><line class="cls-11" x1="237.84" y1="192.58" x2="230.71" y2="199.09"/><line class="cls-11" x1="223.42" y1="186.64" x2="220.58" y2="192.78"/></g></svg>