<svg xmlns="http://www.w3.org/2000/svg" viewBox="0 0 577.24 420.16"><defs><style>.cls-1,.cls-4{fill:none;}.cls-1{stroke:#1d1e2f;}.cls-1,.cls-2,.cls-3,.cls-4{stroke-miterlimit:10;}.cls-2,.cls-3{fill:#fff;stroke:#050505;}.cls-2{stroke-width:3px;}.cls-4{stroke:#000;}.cls-5{fill:#1d1e2f;}</style></defs><g id="door"><rect class="cls-1" x="385.76" y="156.3" width="120.94" height="120.94" transform="translate(193.55 -210.16) rotate(33.47)"/><rect class="cls-1" x="416.99" y="146.92" width="120.94" height="120.94" transform="translate(193.56 -228.94) rotate(33.47)"/><rect class="cls-2" x="370.81" y="299.5" width="80.66" height="67.14"/><polygon class="cls-2" points="239.31 299.5 212.88 299.5 213.11 322.5 185.01 322.5 185.01 344.2 157 344.2 157 366.64 370.81 366.64 370.81 344.82 397.82 344.82 397.53 323.5 426 323.5 426 300 239.31 299.5"/><line class="cls-3" x1="226.5" y1="322.5" x2="382.47" y2="322.5"/><line class="cls-3" x1="197.5" y1="343.5" x2="350.4" y2="343.5"/><rect class="cls-2" x="239.76" y="20" width="212" height="280"/><rect class="cls-4" x="215.76" y="64" width="260" height="192" transform="translate(505.76 -185.76) rotate(90)"/><circle class="cls-2" cx="344.26" cy="93.5" r="32.5"/><circle class="cls-5" cx="422.76" cy="167" r="9"/><rect class="cls-2" x="273.76" y="196" width="131" height="21"/><rect class="cls-2" x="273.76" y="236" width="131" height="44.5"/><rect class="cls-1" x="56.29" y="61" width="78.5" height="78.5" transform="translate(110.4 -37.44) rotate(49.78)"/><rect class="cls-1" x="85.66" y="60.55" width="78.5" height="78.5" transform="translate(120.46 -60.02) rotate(49.78)"/></g></svg>