<svg xmlns="http://www.w3.org/2000/svg" viewBox="0 0 577.24 420.16"><defs><style>.cls-1,.cls-4,.cls-7{fill:none;}.cls-1{stroke:#1d1e2f;}.cls-1,.cls-2,.cls-3,.cls-4,.cls-6,.cls-7{stroke-miterlimit:10;}.cls-2,.cls-6{fill:#fff;}.cls-2,.cls-3,.cls-6{stroke:#050505;}.cls-2{stroke-width:3px;}.cls-3{fill:#f2e8c5;stroke-width:2px;}.cls-4{stroke:#f2aa87;}.cls-4,.cls-7{stroke-width:4px;}.cls-5{fill:#1d1e2f;}.cls-7{stroke:#232858;}</style></defs><g id="door"><rect class="cls-1" x="369.82" y="159.01" width="120.94" height="120.94" transform="translate(192.41 -200.91) rotate(33.47)"/><rect class="cls-1" x="401.05" y="149.64" width="120.94" height="120.94" transform="translate(192.42 -219.69) rotate(33.47)"/><path class="cls-2" d="M334.12,44.28A19,19,0,1,0,296.5,40.5a19.26,19.26,0,0,0,.46,4.12A120.16,120.16,0,0,0,196.5,163.15V299.53h239V161.81A118.84,118.84,0,0,0,334.12,44.28Z"/><rect class="cls-2" x="354.81" y="299.5" width="80.66" height="67.14"/><path class="cls-3" d="M315,68.37h0a94.85,94.85,0,0,1,94.85,94.85V299.53a0,0,0,0,1,0,0h-188a0,0,0,0,1,0,0v-138A93.15,93.15,0,0,1,315,68.37Z"/><path class="cls-4" d="M241.85,300V162.75c0-41.68,32.82-75.59,73.16-75.59,41.27,0,74.84,34.69,74.84,77.33V300Z"/><polyline class="cls-4" points="221.85 163 315.98 163 409.85 163"/><line class="cls-4" x1="315.98" y1="299.5" x2="315.98" y2="163"/><line class="cls-4" x1="221.85" y1="194.71" x2="241.85" y2="194.71"/><line class="cls-4" x1="389.85" y1="194.71" x2="409.85" y2="194.71"/><line class="cls-4" x1="315.01" y1="87.16" x2="315.01" y2="68.37"/><rect class="cls-5" x="309.5" y="214.5" width="13" height="32"/><polygon class="cls-2" points="223.31 299.5 196.88 299.5 197.11 322.5 169.01 322.5 169.01 344.2 141 344.2 141 366.64 354.81 366.64 354.81 344.82 381.82 344.82 381.53 323.5 410 323.5 410 300 223.31 299.5"/><line class="cls-6" x1="210.5" y1="322.5" x2="366.47" y2="322.5"/><line class="cls-6" x1="181.5" y1="343.5" x2="334.4" y2="343.5"/><line class="cls-7" x1="196.5" y1="230.5" x2="221.85" y2="230.5"/><line class="cls-7" x1="241.85" y1="68.37" x2="257.95" y2="87.16"/><line class="cls-7" x1="204.3" y1="120.5" x2="226.46" y2="132.53"/><line class="cls-7" x1="196.5" y1="177.07" x2="221.85" y2="177.07"/><line class="cls-7" x1="434.77" y1="230.83" x2="409.41" y2="230.83"/><line class="cls-7" x1="389.41" y1="68.7" x2="373.32" y2="87.49"/><line class="cls-7" x1="426.97" y1="120.83" x2="404.81" y2="132.86"/><line class="cls-7" x1="434.77" y1="177.4" x2="409.41" y2="177.4"/><rect class="cls-1" x="38.98" y="54.77" width="78.5" height="78.5" transform="translate(99.51 -26.42) rotate(49.78)"/><rect class="cls-1" x="68.34" y="54.33" width="78.5" height="78.5" transform="translate(109.57 -49) rotate(49.78)"/></g></svg>