<svg xmlns="http://www.w3.org/2000/svg" viewBox="0 0 220 198"><defs><style>.cls-1{fill:#f2aa87;}.cls-2{fill:#232858;}.cls-3{fill:#f2e8c5;}.cls-4{fill:#b3a0c3;}</style></defs><g id="deco"><path class="cls-1" d="M98.79,49.93a19.53,19.53,0,0,1-8,.1c-7.35-1.35-29.62-3.21-39.2,20.91C40.08,100.05,10.79,93,7,60.14S19.28-4.74,74.75,6.9C125.6,17.57,118.18,45.37,98.79,49.93Z"/><path class="cls-2" d="M93,44.48a20.39,20.39,0,0,1-7,.07c-6.44-1-26-2.33-34.36,15.19-10.13,21.13-35.79,16-39.16-7.85S23.3,4.78,71.92,13.24C116.48,21,110,41.17,93,44.48Z"/><path class="cls-3" d="M86.4,40a19.51,19.51,0,0,1-5.81.05c-5.38-.72-21.67-1.72-28.67,11.16C43.47,66.79,22.05,63,19.24,45.49s9-34.64,49.58-28.42C106,22.76,100.58,37.6,86.4,40Z"/><path class="cls-1" d="M79.32,35.68a20.08,20.08,0,0,1-4.65,0c-4.3-.43-17.34-1-22.94,6.73C45,51.81,27.82,49.54,25.57,39s7.22-20.87,39.68-17.12C95,25.27,90.67,34.21,79.32,35.68Z"/><path class="cls-3" d="M70.05,79.66a8.71,8.71,0,0,0,9.78,8.9c6.74-.85,16-3.66,13.46-12.77-3.82-14-19.71-12.22-22.45-1.38A24.34,24.34,0,0,0,70.05,79.66Z"/><path class="cls-1" d="M78.73,83.41a3.47,3.47,0,0,1-2.5-1.07,3.43,3.43,0,0,1-1-2.51,19.39,19.39,0,0,1,.63-4.14A6,6,0,0,1,81.77,71c3.06,0,5.42,2.25,6.49,6.16.51,1.86,0,2.54-.12,2.8-.81,1.21-3.59,2.75-9,3.43Z"/><path class="cls-4" d="M125.62,150.26a19.53,19.53,0,0,1,7.95-.1c7.35,1.35,29.62,3.22,39.2-20.91,11.56-29.11,40.85-22.06,44.69,10.8s-12.33,64.89-67.8,53.24C98.81,182.62,106.23,154.82,125.62,150.26Z"/><path class="cls-2" d="M131.42,155.71a20.65,20.65,0,0,1,7-.07c6.44,1,26,2.33,34.36-15.18,10.12-21.14,35.79-16,39.16,7.84S201.1,195.41,152.49,187C107.93,179.21,114.43,159,131.42,155.71Z"/><path class="cls-3" d="M138,160.16a19.51,19.51,0,0,1,5.81-.06c5.38.72,21.67,1.72,28.67-11.16,8.45-15.54,29.87-11.77,32.68,5.77s-9,34.63-49.58,28.42C118.4,177.43,123.83,162.59,138,160.16Z"/><path class="cls-4" d="M145.08,164.51a21.35,21.35,0,0,1,4.66,0c4.3.43,17.34,1,22.94-6.73,6.76-9.36,23.91-7.09,26.16,3.48s-7.22,20.87-39.69,17.13C129.4,174.92,133.74,166,145.08,164.51Z"/><path class="cls-3" d="M144.23,134.64a8.7,8.7,0,0,0,8.9-9.78c-.85-6.74-3.66-15.94-12.77-13.46-14,3.82-12.22,19.72-1.38,22.46A24.27,24.27,0,0,0,144.23,134.64Z"/><path class="cls-4" d="M148,126a3.48,3.48,0,0,1-1.08,2.5,3.43,3.43,0,0,1-2.51,1,19.49,19.49,0,0,1-4.14-.63,6,6,0,0,1-4.69-5.88c0-3,2.25-5.42,6.17-6.49,1.85-.51,2.53-.05,2.79.12,1.21.81,2.75,3.59,3.43,9A3.4,3.4,0,0,1,148,126Z"/></g></svg>