<svg xmlns="http://www.w3.org/2000/svg" viewBox="0 0 399 358"><defs><style>.cls-1{fill:none;stroke:#f4efe4;stroke-miterlimit:10;}.cls-2{fill:#f4efe4;}</style></defs><g id="deco"><rect class="cls-1" x="135.81" y="85.14" width="17" height="17" transform="translate(118.25 -76.4) rotate(48.31)"/><rect class="cls-2" x="232.81" y="220.14" width="17" height="17" transform="translate(251.55 -103.63) rotate(48.31)"/><rect class="cls-1" x="114.37" y="209.92" width="17" height="17" transform="translate(361.31 141.27) rotate(101.43)"/><polygon class="cls-1" points="255.95 136.41 252.73 132.4 257.03 129.48 260.25 133.49 255.95 136.41"/><polygon class="cls-2" points="312.95 72.41 309.73 68.4 314.03 65.48 317.25 69.49 312.95 72.41"/><polygon class="cls-1" points="44.95 172.41 41.73 168.4 46.03 165.48 49.25 169.49 44.95 172.41"/><rect class="cls-2" x="152.48" y="281.67" width="11.33" height="11.62" transform="translate(289.02 -13.4) rotate(52.32)"/><rect class="cls-1" x="204.82" y="327.13" width="11.33" height="11.62" transform="translate(136.6 -53.97) rotate(21.49)"/><rect class="cls-2" x="232.82" y="37.13" width="11.33" height="11.62" transform="translate(32.31 -84.38) rotate(21.49)"/></g></svg>