<svg xmlns="http://www.w3.org/2000/svg" viewBox="0 0 399 358"><defs><style>.cls-1,.cls-2,.cls-3,.cls-5{fill:none;stroke-miterlimit:10;}.cls-1{stroke:#b3a0c3;}.cls-1,.cls-2,.cls-3{stroke-width:22px;}.cls-2{stroke:#f2e8c5;}.cls-3{stroke:#909fce;}.cls-4{fill:#f4efe4;}.cls-5{stroke:#f4efe4;}.cls-6{fill:#909fce;}.cls-7{fill:#f2e8c5;}</style></defs><g id="deco"><path class="cls-1" d="M222,220.31s58.73-8,66.47-56.3,72.64-27.88,70.95,14.19S328.15,243,337.72,290.58s-20.22,68.91-91.54,31.82S159,237.63,222,220.31Z"/><path class="cls-2" d="M209.25,212.57s58.74-8,66.47-56.3,72.64-27.88,71,14.19S315.45,235.21,325,282.84s-21,76.8-92.3,39.71S146.33,229.89,209.25,212.57Z"/><path class="cls-3" d="M196.84,205s58.73-8,66.47-56.3,72.64-27.88,70.95,14.2S303,227.59,312.61,275.23s-22.78,80.44-94.1,43.35S133.92,222.27,196.84,205Z"/><rect class="cls-4" x="18.05" y="26.39" width="17" height="17" transform="translate(68.71 46.89) rotate(143.15)"/><rect class="cls-5" x="11.21" y="326.23" width="17" height="17" transform="translate(338.6 231.08) rotate(75.36)"/><rect class="cls-5" x="82.84" y="209.99" width="11.48" height="11.48" transform="translate(314.68 158.61) rotate(98.15)"/><rect class="cls-5" x="98.84" y="64.99" width="11.48" height="11.48" transform="translate(189.41 -22.78) rotate(98.15)"/><path class="cls-6" d="M139.28,107s-24.72,12-21.21,34.32-28,22.69-33.28,3.92,4.47-33-6.58-52.59S76.72,53.93,113.44,60,164.5,90.33,139.28,107Z"/><path class="cls-7" d="M103.27,143.73c-1.1-.06-3.48-.59-4-2.57-1.54-5.45-1.21-10.81-.83-17,.65-10.54,1.46-23.66-7.12-38.89-2.66-4.72-2.6-7.82-2.15-8.58s3.43-2.8,11.4-2.8a65,65,0,0,1,10.45,1c18,3,25.36,10.23,26,13.08.19.91-1.33,3.35-5.26,6.09-12.94,6.66-32.45,24-28.43,49.62Z"/></g></svg>