<svg xmlns="http://www.w3.org/2000/svg" viewBox="0 0 958 436"><defs><style>.cls-1,.cls-10,.cls-6,.cls-7{fill:#fff;}.cls-2{fill:none;stroke:#fff;}.cls-10,.cls-2,.cls-6,.cls-7{stroke-miterlimit:10;}.cls-10,.cls-2,.cls-6{stroke-width:3px;}.cls-3{fill:#f2aa87;}.cls-4{fill:#db8765;}.cls-5{fill:#1d1e2f;}.cls-6,.cls-7{stroke:#2b2c49;}.cls-7{stroke-width:2px;}.cls-8{fill:#b3a0c3;}.cls-9{fill:#909fce;}.cls-10{stroke:#1d1e2f;}</style></defs><g id="guy"><path class="cls-1" d="M501.85,178.77l-82.32-25.64A72.83,72.83,0,0,0,432.47,133a53.23,53.23,0,0,0,4.24-20.63C436.71,55.84,343.34,10,228.17,10S19.62,55.84,19.62,112.38,113,214.76,228.17,214.76c59.7,0,113.54-12.32,151.56-32.06h0Z"/><ellipse class="cls-2" cx="766.26" cy="73.06" rx="159" ry="23"/><polygon class="cls-1" points="649.23 100.06 659.9 96.58 664 86.28 658.32 77.66 666.2 86.33 664 93.42 672.26 88.86 680.86 77.66 673.3 65.83 681.18 73.71 684.34 71.35 684.34 78.71 692.22 79.23 699.17 70.11 687.49 67.36 703.26 67.41 694.62 82.25 682.68 82.95 674.32 91.22 679.83 93.42 684.65 91.22 677.87 96.94 670.88 93.42 662.26 102.1 653.48 107.81 649.23 100.06"/><line class="cls-2" x1="767.26" y1="83.06" x2="600.2" y2="408.23"/><line class="cls-2" x1="834.26" y1="91.06" x2="679.76" y2="413.56"/><line class="cls-2" x1="731.71" y1="151.32" x2="802.43" y2="159.81"/><line class="cls-2" x1="707.78" y1="197.76" x2="780.45" y2="206.59"/><line class="cls-2" x1="681.1" y1="249.54" x2="755.75" y2="259.16"/><line class="cls-2" x1="654.35" y1="301.45" x2="730.81" y2="312.24"/><line class="cls-2" x1="626.25" y1="356.11" x2="704.88" y2="367.44"/><path class="cls-3" d="M654.17,111.88l1.06-9.74-17.4-12-12.39-3.33-19.85,15.66s-8.34,17.49-6.93,25.82c1.47,8.77,3.13,3.35,3.13,3.35l5.34,5.86,23.08,20.31,13.7-10.44,5.61-8.49Z"/><polygon class="cls-3" points="643.91 147.33 689.26 174.06 729.26 154.06 726.26 161.06 691.26 200.06 659.13 185.28 656.26 211.06 662.26 234.06 694.26 277.06 683.26 273.06 685.26 287.06 667.22 282.15 674.26 299.06 650.22 287.81 643.09 295.06 637.25 289.01 630.26 309.06 625.78 295.63 612.26 311.06 604.39 294.55 597.78 302.53 595.17 297.85 590.93 304.11 587.22 298.72 585.86 302.75 580.32 295.89 572.26 304.06 574.67 289.49 562.26 302.06 568.57 290.56 550.26 301.06 548.82 287.14 532.49 291.29 578.46 213.59 585.18 188.55 581.66 160.02 602.96 143.37 599.2 130.16 643.91 147.33"/><polygon class="cls-3" points="613.5 116.37 649.23 136.04 637.06 148.05 611.37 134.89 613.5 116.37"/><polygon class="cls-4" points="579.12 287.45 579.26 416.06 586.26 416.06 615.26 288.06 579.12 287.45"/><polygon class="cls-4" points="654.76 267.85 714.26 385.06 701.26 380.06 615.26 283.06 654.76 267.85"/><path class="cls-1" d="M654.29,126c-3.33,12.42-11.12,8.36-21.79,5.5s-20.18-3.45-16.84-15.87S630.34,95.46,641,98.33,657.62,113.58,654.29,126Z"/><path class="cls-5" d="M652.62,111.09s-4.13.59-5.31,7.08,4.85,5.87,6.38,5.13,1.53-4.15,1.53-4.15l-1.05-7.27Z"/><path class="cls-6" d="M599.31,214.73a31.19,31.19,0,0,1-4-3.86,33,33,0,0,1,25.78-10.59,33.7,33.7,0,0,1,24.73,12.08,31.57,31.57,0,0,1-3.65,3.54S622.24,230.23,599.31,214.73Z"/><path class="cls-7" d="M620.63,220a6,6,0,0,1-3.75-1.75c-.66-.55-1.08-.89-1.49-.9A3.57,3.57,0,0,1,612,214c-.29-1.72.23-3.85,1.73-4.72a4.68,4.68,0,0,1,.9-3.11c1.54-2.19,2.86-2.58,4.74-2.52l.73,0a4,4,0,0,1,2.85,1.44,1.22,1.22,0,0,0,1.09.55,6.93,6.93,0,0,1,5.12,2.53l.09.11.06.12a7.06,7.06,0,0,1,.12,7,4.39,4.39,0,0,1-4,2.17h-.3l-.23,0h-.24a.64.64,0,0,0-.08.14,4,4,0,0,1-3.08,2.17A5.11,5.11,0,0,1,620.63,220Z"/><path class="cls-8" d="M627.82,209.3a5.28,5.28,0,0,0-3.79-1.85c-2.42-.07-2.13-1.89-4-2s-2.63-.12-3.95,1.75.23,3-1.28,3.53-1.63,4.75.63,4.82,3.22,3.05,5.85,2.61,1.12-2.58,4.07-2.32S629.48,212.31,627.82,209.3Z"/><path class="cls-9" d="M620.73,216.47c-.48,0-.93-.37-1.62-.95a5.92,5.92,0,0,0-3.53-1.7,2.1,2.1,0,0,1,0-1.52,2.73,2.73,0,0,0,1.66-3,1.37,1.37,0,0,1,.25-1.11c.76-1.08.92-1.08,1.8-1.05l.64,0c.17,0,.18,0,.52.37a4.62,4.62,0,0,0,3.51,1.62,3.53,3.53,0,0,1,2.39,1.1,3.67,3.67,0,0,1,.13,3.33.93.93,0,0,1-.89.5h-.09l-.44,0a3.43,3.43,0,0,0-3.46,1.91c-.21.38-.21.38-.62.45A.84.84,0,0,1,620.73,216.47Z"/><circle class="cls-5" cx="620.95" cy="212.06" r="1.74"/><line class="cls-10" x1="590.14" y1="196.32" x2="596.87" y2="203.24"/><line class="cls-10" x1="604.89" y1="191.24" x2="607.36" y2="197.54"/><line class="cls-10" x1="621.49" y1="185.81" x2="621.17" y2="196.7"/><line class="cls-10" x1="652.67" y1="197.74" x2="645.54" y2="204.25"/><line class="cls-10" x1="638.25" y1="191.8" x2="635.4" y2="197.94"/><polygon class="cls-1" points="615.5 98.39 587.5 86.77 587.5 60.87 582.82 84.43 566.76 73.56 596.5 42.97 566.76 66.97 569.13 53.01 550.76 44.56 562.76 53.56 559.76 75.56 587.5 93.59 572.4 98.39 565.86 98.39 575.76 102.56 593.26 97.96 607.71 107.81 615.5 102.76 615.5 98.39"/><path class="cls-1" d="M642.38,123.75s6.38,8.81,15.38,7.81c5.76-.63-6.7,12.07-21.71,6a11.06,11.06,0,0,1-3.37-2.11,22.85,22.85,0,0,0-10.91-5.32c-8-1.6-6.44-13.16-6.44-13.16"/><circle class="cls-5" cx="628.9" cy="114.93" r="7.12"/><line class="cls-2" x1="756.01" y1="104.85" x2="824.96" y2="111.75"/><line class="cls-2" x1="760.65" y1="95.86" x2="780.45" y2="55.14"/><line class="cls-2" x1="833.26" y1="93.86" x2="845.51" y2="65.83"/><path class="cls-3" d="M532.49,291.29s-5.32,9.85,1.17,16.55A12.63,12.63,0,0,0,546.13,311c16.2-4.51,24.19-9.56,27.87,7,4,18,20.2,26.64,26,13s20.33-17.55,27-8,21.41,15.25,32,3,5.19-28.82,22.1-27.91,18.42-8,13.16-21L681.1,259.38l-52.52,15.15L548,282Z"/><path class="cls-4" d="M547.52,265.89s-31.19,47,14.9,40.8c0,0-28,14.71-32-5.24C530.43,301.45,524.53,299.27,547.52,265.89Z"/><path class="cls-4" d="M576.47,325.24s7.17,10.73,27.41-3.07a24.32,24.32,0,0,1,27.9.15,55.92,55.92,0,0,1,5.05,4.13c19.69,18.09,29.24-14.53,29.24-14.53S655.83,352.11,629,326c0,0-9-11.94-22,2C593,343,583.93,341.47,576.47,325.24Z"/></g><g id="door"><path class="cls-3" d="M105.69-100.33l-1.31,3.56c-.48,1.23-1,2.46-1.48,3.68-1,2.44-2.16,4.85-3.4,7.21A63.38,63.38,0,0,1,95.38-79a29.85,29.85,0,0,1-5.52,6.22A13.83,13.83,0,0,1,86-70.47a9.14,9.14,0,0,1-4.94.4,10.52,10.52,0,0,1-4.43-2.13,18.18,18.18,0,0,1-3.14-3.26,30,30,0,0,1-2.35-3.6q-.52-.93-1-1.86l-.87-1.75a31.32,31.32,0,0,1-1.84-3.9,17.83,17.83,0,0,1-.62-2.29l-.42-1.92a300.5,300.5,0,0,0-8.24-30.12c-3.34-9.74-7.26-19.34-12.63-27.55a40.81,40.81,0,0,0-9.16-10.31,16.83,16.83,0,0,0-5.19-2.71,11.24,11.24,0,0,0-5.1-.36c-3.38.53-6.93,2.73-10.13,5.8a56.48,56.48,0,0,0-8.6,11c-5.06,8.31-8.93,17.68-12.2,27.27l-10,30c-3.4,10-6.89,20.09-10.76,30.13A238.9,238.9,0,0,1-39.22-27.66a103,103,0,0,1-9.63,14.57A59.52,59.52,0,0,1-55.34-6.2,41.3,41.3,0,0,1-63.86-.26a34.41,34.41,0,0,1-5.2,2.16,31.27,31.27,0,0,1-5.72,1.21,31.52,31.52,0,0,1-11.47-.78A41,41,0,0,1-96-1.6a57.49,57.49,0,0,1-8-5.35c-.63-.51-1.49-1.21-2.12-1.83s-1.32-1.3-1.94-2a44.35,44.35,0,0,1-3.25-4,64.93,64.93,0,0,1-4.94-8,122.94,122.94,0,0,1-6.85-15.83c-3.76-10.5-6.62-20.91-9.32-31.26s-5.13-20.66-7.55-30.89-4.9-20.38-7.6-30.37-5.6-19.84-9-29.29-7.42-18.52-12.49-25.94a39,39,0,0,0-8.22-9.05,16.71,16.71,0,0,0-8.84-3.63,23.11,23.11,0,0,0-10.51,2,56.52,56.52,0,0,0-11.47,6.61,146.52,146.52,0,0,0-21.56,20l-5.37,5.89-5.47,5.89c-3.69,3.9-7.42,7.77-11.24,11.56-7.65,7.58-15.59,14.94-24,21.91a193.5,193.5,0,0,1-27,19.19,108.12,108.12,0,0,1-15.55,7.44,64.33,64.33,0,0,1-17.75,4.14,41.28,41.28,0,0,1-19.34-3,41.21,41.21,0,0,1-15.44-11.75,62.61,62.61,0,0,1-9.22-15.37,105.12,105.12,0,0,1-5.35-16.1A190.22,190.22,0,0,1-390.31-173c-.39-5.38-.62-10.75-.73-16.11,0-2.66-.09-5.39-.07-8l0-7.86c0-5.24-.07-10.47-.21-15.71s-.29-10.46-.58-15.68c-.6-10.42-1.36-20.88-3.33-31.08-.49-2.55-1.09-5.07-1.76-7.56a47.65,47.65,0,0,0-2.55-7.26,16.7,16.7,0,0,0-4.34-6.12,6.14,6.14,0,0,0-3.37-1.42,5.57,5.57,0,0,0-3.65,1,5.92,5.92,0,0,1,3.65-1.59,6.79,6.79,0,0,1,4,1.06,18.06,18.06,0,0,1,5.58,6,64.06,64.06,0,0,1,6.39,14.85c1.6,5.13,2.87,10.33,4,15.56s2.07,10.48,2.86,15.75c1.62,10.53,2.78,21.11,3.7,31.7l.66,7.94.55,7.81c.41,5.17.93,10.32,1.6,15.43a188,188,0,0,0,6.1,29.85,91.26,91.26,0,0,0,5.3,13.64A48.41,48.41,0,0,0-359-119.42a25.19,25.19,0,0,0,9.77,6.87,25.17,25.17,0,0,0,11.69,1.22,47.4,47.4,0,0,0,12.82-3.55A89.51,89.51,0,0,0-312-121.55c4.17-2.58,8.23-5.47,12.22-8.52s7.89-6.28,11.72-9.63c7.65-6.72,15-13.92,22.13-21.38q5.35-5.58,10.58-11.34l5.18-5.8,5.17-5.9c7.26-8.25,15-16.31,24.41-23.33a77.62,77.62,0,0,1,15.8-9.27,50.44,50.44,0,0,1,9.57-3,40.59,40.59,0,0,1,10.75-.73A37.37,37.37,0,0,1-173.65-218a41,41,0,0,1,9.36,5.23,59.07,59.07,0,0,1,13.17,14.07,108.72,108.72,0,0,1,8.68,15.27c2.44,5.15,4.55,10.33,6.46,15.52,3.82,10.36,6.87,20.76,9.62,31.15,5.47,20.75,9.93,41.43,14.85,61.65,2.49,10.07,5.13,20,8.38,29.45a111.66,111.66,0,0,0,5.47,13.27c2,4,4.41,7.58,6.61,9.35a28.23,28.23,0,0,0,9.87,5.67,11.32,11.32,0,0,0,4.2.43,11.44,11.44,0,0,0,4.13-1.2,29.07,29.07,0,0,0,8.95-7.47,84.76,84.76,0,0,0,8.1-11.58A241.89,241.89,0,0,0-42.46-64.42c4.06-9.5,7.83-19.25,11.56-29.06l11.29-29.58a145.36,145.36,0,0,1,15-29.68A69.65,69.65,0,0,1,7-166a40.09,40.09,0,0,1,7.82-5.35,27.76,27.76,0,0,1,9.81-2.94,23.75,23.75,0,0,1,10.48,1.39,28.67,28.67,0,0,1,8.5,5,50.44,50.44,0,0,1,11,13.84,103.35,103.35,0,0,1,6.89,15.13c1.89,5.13,3.48,10.31,4.83,15.52a271.71,271.71,0,0,1,6.1,31.47l.27,2A10.13,10.13,0,0,0,73-88.35,26.36,26.36,0,0,0,74.22-85l.4,1,.34.88c.23.57.46,1.15.72,1.7a25.43,25.43,0,0,0,1.69,3.19c1.24,2,2.82,3.64,4.59,4.17s3.91-.09,5.9-1.42a27.17,27.17,0,0,0,5.49-5.06A62.78,62.78,0,0,0,98-86.77c1.44-2.18,2.79-4.43,4.07-6.73.64-1.14,1.27-2.3,1.89-3.47l.9-1.75.44-.89.22-.44.11-.22C105.65-100.35,105.75-100.47,105.69-100.33Z"/></g></svg>