<svg xmlns="http://www.w3.org/2000/svg" viewBox="0 0 577.24 420.16"><defs><style>.cls-1{fill:#1d1e2f;}.cls-2{fill:#f2e8c5;}.cls-3{fill:#f2aa87;}.cls-4{fill:#b3a0c3;}.cls-5{fill:#232858;}.cls-6{fill:#f4efe4;}.cls-7{fill:#3c4375;}.cls-10,.cls-8,.cls-9{fill:none;stroke-miterlimit:10;}.cls-8{stroke:#f2aa87;}.cls-10,.cls-8{stroke-width:4px;}.cls-9{stroke:#fff;}.cls-10{stroke:#232858;}</style></defs><g id="fonds"><rect class="cls-1" x="-28" y="-35" width="1868" height="461.16"/></g><g id="door"><path class="cls-2" d="M323.68,277.18s16.14,10.13,33.84-6.3,34-26.83,47.62-25.78S424,249.49,424,249.49s-18.89-4.39-40.3,14.72-32.31,32.89-50.17,30.15-13.16-3.06-13.16-3.06Z"/><path class="cls-3" d="M314,316.42s26.22,12.1,50.29-8.53,33-29.18,41.29-35,18.67-22.4,45.7-14.18c0,0-22.36,3.3-67.09,53.14S304,328.6,304,328.6Z"/><path class="cls-4" d="M317.25,302.64s26.9,13,49.39-6.06,17.68-21.6,36.47-32.82a66.22,66.22,0,0,1,38.28-8.82s-12.21-5-17.36-5.45-18.42-4.55-44.32,17.53C353.6,289.29,349,300.79,320.4,291.3Z"/><path class="cls-5" d="M314,316.42s27.47,13.2,56.81-10.15,35.76-36.07,47.77-42.11,19-9.4,32.7-5.49c0,0-10-9.47-40.87.39a73.16,73.16,0,0,0-25.24,17.61c-11.07,12.24-31.68,40.09-68,26Z"/><path class="cls-3" d="M434.93,266.31s4.17-4.82,9.71,7.81,14.47,25.53,26,28.92c0,0-22-32.47-24.89-45.47C435.36,263,437,265.25,434.93,266.31Z"/><path class="cls-3" d="M483.36,306.51s12.23,7.1,16.6-11.73,4.81-28.93,9.87-28.32c0,0-5.72-4.54-9.16,10.25s-8,24.37-10.63,27.37c-5.32-.09-6.7-.57-10.53-2.44S481.17,306,483.36,306.51Z"/><path class="cls-4" d="M446.76,259.93s10.91,6.24,12.27,13.64,7.65,30,23,33.37l-13.76-29.82S459.76,253.74,446.76,259.93Z"/><path class="cls-5" d="M446.91,260.05s6.22-.24,11.52,11.44,3.14,17.91,13.55,29.36c4,5.73,12.11,5.83,12.11,5.83s-10,2.88-21.93-11.17-11.23-30.2-20.58-33.08A14.19,14.19,0,0,1,446.91,260.05Z"/><path class="cls-2" d="M450.59,258.5s14.72-3.67,24.4,27.64,17.24-7.36,17.24-7.36,3.66-37.9,25.46-2.36l.53,4.37s-6.94-18.1-14.15-17S492,297.38,489.76,300.4s-4.07,2.94-10.25,1.24c0,0,1,2.27,4.58,5,0,0-6.62,5.95-17.82-29.1A30.06,30.06,0,0,0,450.59,258.5Z"/><path class="cls-4" d="M479.51,301.64s6.08,3.46,12.83-11.49c5.53-15,3.55-27.9,14.06-26.5a2.84,2.84,0,0,1,1.74.92l1.69,1.89s-4-3.21-6.24,1-5.16,22.19-5.94,25.55S487.78,305.61,479.51,301.64Z"/><path class="cls-5" d="M480.31,301.91s6.11,3.29,11.75-4.49,3.5-9.45,6.54-18.78c2.9-8.88,4.46-15.54,10.5-13a.18.18,0,0,1-.06.34c-2.21,0-7.33,1.47-8.94,15,0,0-2.65,26.16-13.62,23.61A16.36,16.36,0,0,1,480.31,301.91Z"/><polygon class="cls-6" points="283.1 250.39 281.45 246.96 285.04 245.58 286.69 249.01 283.1 250.39"/><polygon class="cls-6" points="455.08 377.21 454.02 375 456.33 374.12 457.39 376.32 455.08 377.21"/><path class="cls-2" d="M417.43,227.25s-37.87,13.06-66.27-29-56.8-71.08-85.2-75.43-40.75,0-40.75,0,40.75,0,75.46,49.32,50.49,82.68,88.36,85.58,28.4,0,28.4,0Z"/><path class="cls-3" d="M418.48,312.16s-59.43,12.28-98.87-41.39S266,195.34,251.76,179.38,224.21,124.66,165,128.61c0,0,44.18,17.41,112,140.71s156.2,72.52,156.2,72.52Z"/><path class="cls-4" d="M418.48,282.41s-61.26,13.83-98.21-35.89-25.91-52.63-59-84.54-74.16-36.27-74.16-36.27,27.37-4.35,38.14-2.9,39.86-.55,82.36,57c42.86,58,46.75,83.72,109.86,77.92Z"/><path class="cls-5" d="M418.48,312.16S356,326.09,307,264.34,251,173.5,229.3,155.41,195,127.16,165,128.61c0,0,24.91-14.63,83.46,20.25,0,0,26.46,17.75,43.29,48.07s45.76,97.12,126.75,85.48Z"/><path class="cls-3" d="M194.88,152.05s-6.23-11.83-23.58,11.38-41.76,45.36-67,46.81c0,0,60.42-56,72.58-81.23C195.58,145.12,191.22,148.92,194.88,152.05Z"/><path class="cls-3" d="M76.63,211.29s-28.4,8.71-28.4-31.91,3.93-61.51-6.71-62.66c0,0,13.87-6.57,13.87,25.34s4.73,53.67,8.72,61.09c10.94,2.34,14,2,22.72,0S81.36,211.29,76.63,211.29Z"/><path class="cls-4" d="M173.72,133.36s-25.3,7.58-31.61,22.09-29.92,57.69-62.86,57.37l42.35-54.47S150.05,114.5,173.72,133.36Z"/><path class="cls-5" d="M173.34,133.53s-12.62-3.43-29,17.95-14.94,35.15-41.71,53.65c-11,9.79-27.56,6.16-27.56,6.16S94.21,222,125.26,198.86s37.36-56.47,57.87-57.92A30.1,30.1,0,0,0,173.34,133.53Z"/><path class="cls-2" d="M166.56,128.61s-28.4-14.5-63.11,45-31.77-23.26-31.77-23.26,10.53-79.33-51-17l-3.15,8.7s22.82-33.75,37-27.95,8.73,74.37,11.89,81.62,6.93,8,20.4,7.42c0,0-3,4.19-11.78,8.14,0,0,10.73,15.33,50.33-51.08C125.38,160.21,136.58,135.87,166.56,128.61Z"/><path class="cls-4" d="M86.83,203.15S72.74,207.34,66,173.54c-4.19-33.27,6-58.79-16.16-60.93a6,6,0,0,0-4,1l-4.34,3.07s9.65-4.69,12.29,5,0,47.86,0,55.12S68,207.34,86.83,203.15Z"/><path class="cls-5" d="M85.07,203.33S71,207.16,63.15,188.56s-2.67-21-4.46-41.57C57,127.44,57,113.06,43.38,115.45a.37.37,0,0,0,0,.73c4.52,1,14.29,6.49,11.17,34.89,0,0-7,54.82,16.64,54.82A34.58,34.58,0,0,0,85.07,203.33Z"/><polygon class="cls-6" points="513.24 191.72 518.25 185.49 511.56 180.95 506.55 187.19 513.24 191.72"/><polygon class="cls-6" points="100.88 369.46 104.09 365.45 99.79 362.54 96.57 366.55 100.88 369.46"/><path class="cls-7" d="M435.47,299.53h-239V163.15A120.16,120.16,0,0,1,316.65,43h0A118.81,118.81,0,0,1,435.47,161.81Z"/><circle class="cls-7" cx="315.5" cy="40.5" r="19"/><rect class="cls-5" x="354.81" y="299.5" width="80.66" height="67.14"/><path class="cls-2" d="M315,68.37h0a94.85,94.85,0,0,1,94.85,94.85V299.53a0,0,0,0,1,0,0h-188a0,0,0,0,1,0,0v-138A93.15,93.15,0,0,1,315,68.37Z"/><path class="cls-8" d="M241.85,300V162.75c0-41.68,32.82-75.59,73.16-75.59,41.27,0,74.84,34.69,74.84,77.33V300Z"/><polyline class="cls-8" points="221.85 163 315.98 163 409.85 163"/><line class="cls-8" x1="315.98" y1="299.5" x2="315.98" y2="163"/><line class="cls-8" x1="221.85" y1="194.71" x2="241.85" y2="194.71"/><line class="cls-8" x1="389.85" y1="194.71" x2="409.85" y2="194.71"/><line class="cls-8" x1="315.01" y1="87.16" x2="315.01" y2="68.37"/><rect class="cls-5" x="309.5" y="214.5" width="13" height="32"/><polygon class="cls-7" points="223.31 299.5 196.88 299.5 197.11 322.5 169.01 322.5 169.01 344.2 141 344.2 141 366.64 354.81 366.64 354.81 344.82 381.82 344.82 381.53 323.5 410 323.5 410 300 223.31 299.5"/><line class="cls-9" x1="210.5" y1="322.5" x2="366.47" y2="322.5"/><line class="cls-9" x1="181.5" y1="343.5" x2="334.4" y2="343.5"/><line class="cls-10" x1="196.5" y1="230.5" x2="221.85" y2="230.5"/><line class="cls-10" x1="241.85" y1="68.37" x2="257.95" y2="87.16"/><line class="cls-10" x1="204.3" y1="120.5" x2="226.46" y2="132.53"/><line class="cls-10" x1="196.5" y1="177.07" x2="221.85" y2="177.07"/><line class="cls-10" x1="434.77" y1="230.83" x2="409.41" y2="230.83"/><line class="cls-10" x1="389.41" y1="68.7" x2="373.32" y2="87.49"/><line class="cls-10" x1="426.97" y1="120.83" x2="404.81" y2="132.86"/><line class="cls-10" x1="434.77" y1="177.4" x2="409.41" y2="177.4"/></g></svg>