<svg xmlns="http://www.w3.org/2000/svg" viewBox="0 0 577.24 420.16"><defs><style>.cls-1,.cls-7{fill:#1d1e2f;}.cls-2{fill:#f2e8c5;}.cls-3{fill:#f2aa87;}.cls-4{fill:#b3a0c3;}.cls-5,.cls-8{fill:#232858;}.cls-6{fill:#f4efe4;}.cls-10,.cls-12,.cls-7,.cls-8{stroke:#fcfcfc;}.cls-10,.cls-11,.cls-12,.cls-7,.cls-8,.cls-9{stroke-miterlimit:10;}.cls-12,.cls-7{stroke-width:3px;}.cls-11,.cls-12,.cls-9{fill:none;}.cls-9{stroke:#f2aa87;stroke-width:4px;}.cls-10{fill:#3c4375;}.cls-11{stroke:#fff;}</style></defs><g id="fonds"><rect class="cls-1" x="-1247.47" y="-43" width="1868" height="461.16"/></g><g id="door"><path class="cls-2" d="M331.71,293.06s18,6.21,31.54-13.8,27-33.83,40.54-35.9,19.39,0,19.39,0-19.39,0-35.91,23.47-24,39.35-42,40.73-13.52,0-13.52,0Z"/><path class="cls-3" d="M331.21,333.47s28.28,5.84,47.05-19.7,25.53-35.89,32.29-43.49,13.11-26,41.29-24.16c0,0-21,8.29-53.3,67s-74.33,34.51-74.33,34.51Z"/><path class="cls-4" d="M331.21,319.31s29.16,6.58,46.74-17.08S390.28,277.18,406,262a66.19,66.19,0,0,1,35.29-17.26s-13-2.07-18.15-1.38-19-.26-39.19,27.12c-20.39,27.6-22.24,39.84-52.28,37.08Z"/><path class="cls-5" d="M331.21,333.47s29.75,6.63,53-22.76,26.66-43.23,37-51.84,16.34-13.44,30.6-12.75c0,0-11.85-7-39.71,9.64a73.21,73.21,0,0,0-20.6,22.87c-8,14.43-21.78,46.22-60.32,40.68Z"/><path class="cls-3" d="M437.62,257.28s3-5.63,11.22,5.41,19.87,21.59,31.88,22.28c0,0-28.75-26.65-34.53-38.66C437.29,254,439.36,255.79,437.62,257.28Z"/><path class="cls-3" d="M493.89,285.47s13.52,4.14,13.52-15.19-1.88-29.27,3.19-29.82c0,0-6.6-3.12-6.6,12.06s-2.25,25.54-4.15,29.07c-5.21,1.12-6.66,1-10.81,0S491.64,285.47,493.89,285.47Z"/><path class="cls-4" d="M447.69,248.38s12,3.61,15,10.51S477,286.35,492.64,286.2l-20.15-25.93S459,239.41,447.69,248.38Z"/><path class="cls-5" d="M447.87,248.46s6-1.63,13.81,8.54,7.11,16.73,19.85,25.53c5.23,4.66,13.11,2.94,13.11,2.94s-9.12,5.07-23.89-5.92S453,252.68,443.21,252A14.27,14.27,0,0,1,447.87,248.46Z"/><path class="cls-2" d="M451.09,246.12s13.52-6.9,30,21.4,15.12-11.07,15.12-11.07-5-37.75,24.27-8.07l1.5,4.14s-10.86-16.06-17.62-13.3-4.16,35.39-5.66,38.84-3.29,3.8-9.7,3.53c0,0,1.44,2,5.6,3.88,0,0-5.1,7.29-23.95-24.31A30.06,30.06,0,0,0,451.09,246.12Z"/><path class="cls-4" d="M489,281.59s6.7,2,9.89-14.09c2-15.83-2.86-28,7.69-29a2.84,2.84,0,0,1,1.91.49l2.07,1.46s-4.59-2.23-5.85,2.4,0,22.78,0,26.23S498,283.59,489,281.59Z"/><path class="cls-5" d="M489.88,281.68s6.7,1.82,10.42-7,1.28-10,2.13-19.78c.8-9.31.82-16.15,7.28-15a.17.17,0,0,1,0,.34c-2.15.49-6.81,3.09-5.32,16.61,0,0,3.34,26.09-7.92,26.09A16.4,16.4,0,0,1,489.88,281.68Z"/><polygon class="cls-6" points="286.12 276.15 283.74 273.19 286.92 271.03 289.3 274 286.12 276.15"/><polygon class="cls-6" points="482.35 360.74 480.82 358.83 482.87 357.44 484.4 359.35 482.35 360.74"/><path class="cls-2" d="M434.83,189.69s-37.87,13.05-66.27-29-56.8-71.08-85.2-75.43-40.75,0-40.75,0,40.75,0,75.46,49.32,50.49,82.68,88.36,85.58,28.4,0,28.4,0Z"/><path class="cls-3" d="M435.88,274.6S376.45,286.87,337,233.2s-53.65-75.43-67.85-91.38-27.55-54.73-86.78-50.77c0,0,44.18,17.41,112,140.7s156.2,72.53,156.2,72.53Z"/><path class="cls-4" d="M435.88,244.85s-61.26,13.83-98.21-35.9-25.91-52.63-59-84.54-74.16-36.26-74.16-36.26,27.37-4.35,38.14-2.9,39.86-.55,82.36,57c42.86,58,46.75,83.72,109.86,77.92Z"/><path class="cls-5" d="M435.88,274.6s-62.51,13.93-111.46-47.82-56-90.84-77.72-108.93-34.34-28.25-64.32-26.8c0,0,24.91-14.63,83.46,20.24,0,0,26.46,17.76,43.29,48.08s45.76,97.12,126.75,85.48Z"/><path class="cls-3" d="M212.28,114.49s-6.23-11.84-23.58,11.37-41.76,45.37-67,46.82c0,0,60.42-56,72.58-81.23C213,107.55,208.62,111.36,212.28,114.49Z"/><path class="cls-3" d="M94,173.73s-28.4,8.7-28.4-31.91,3.93-61.51-6.71-62.67c0,0,13.87-6.56,13.87,25.35s4.73,53.67,8.72,61.08c10.94,2.35,14,2,22.72,0S98.76,173.73,94,173.73Z"/><path class="cls-4" d="M191.12,95.8s-25.3,7.58-31.61,22.08-29.92,57.7-62.86,57.38L139,120.79S167.45,76.94,191.12,95.8Z"/><path class="cls-5" d="M190.74,96s-12.62-3.43-29,17.94S146.78,149.07,120,167.57c-11,9.79-27.56,6.16-27.56,6.16s19.16,10.67,50.21-12.43,37.36-56.47,57.87-57.92A30.1,30.1,0,0,0,190.74,96Z"/><path class="cls-2" d="M184,91.05s-28.4-14.51-63.11,45-31.77-23.27-31.77-23.27,10.53-79.33-51-17l-3.15,8.7s22.82-33.76,37-28,8.73,74.38,11.89,81.63,6.93,8,20.4,7.41c0,0-3,4.19-11.78,8.15,0,0,10.73,15.32,50.33-51.08C142.78,122.65,154,98.3,184,91.05Z"/><path class="cls-4" d="M104.23,165.58s-14.09,4.19-20.8-29.6c-4.19-33.27,6-58.8-16.16-60.94a6,6,0,0,0-4,1l-4.34,3.06s9.65-4.68,12.29,5,0,47.87,0,55.12S85.41,169.77,104.23,165.58Z"/><path class="cls-5" d="M102.47,165.77S88.38,169.6,80.55,151s-2.67-21-4.46-41.56c-1.7-19.55-1.73-33.93-15.31-31.54a.36.36,0,0,0,0,.72c4.52,1,14.29,6.49,11.17,34.9,0,0-7,54.81,16.64,54.81A34.47,34.47,0,0,0,102.47,165.77Z"/><polygon class="cls-6" points="509.64 197.16 514.65 190.92 507.96 186.39 502.95 192.63 509.64 197.16"/><polygon class="cls-6" points="118.28 331.9 121.49 327.89 117.19 324.97 113.97 328.98 118.28 331.9"/><path class="cls-7" d="M350.12,44.28A19,19,0,1,0,312.5,40.5a19.26,19.26,0,0,0,.46,4.12A120.16,120.16,0,0,0,212.5,163.15V299.53h239V161.81A118.84,118.84,0,0,0,350.12,44.28Z"/><rect class="cls-8" x="370.81" y="299.5" width="80.66" height="67.14"/><path class="cls-2" d="M331,68.37h0a94.85,94.85,0,0,1,94.85,94.85V299.53a0,0,0,0,1,0,0h-188a0,0,0,0,1,0,0v-138A93.15,93.15,0,0,1,331,68.37Z"/><path class="cls-9" d="M257.85,300V162.75c0-41.68,32.82-75.59,73.16-75.59,41.27,0,74.84,34.69,74.84,77.33V300Z"/><polyline class="cls-9" points="237.85 163 331.98 163 425.85 163"/><line class="cls-9" x1="331.98" y1="299.5" x2="331.98" y2="163"/><line class="cls-9" x1="237.85" y1="194.71" x2="257.85" y2="194.71"/><line class="cls-9" x1="405.85" y1="194.71" x2="425.85" y2="194.71"/><line class="cls-9" x1="331.01" y1="87.16" x2="331.01" y2="68.37"/><rect class="cls-1" x="325.5" y="214.5" width="13" height="32"/><polygon class="cls-10" points="239.31 299.5 212.88 299.5 213.11 322.5 185.01 322.5 185.01 344.2 157 344.2 157 366.64 370.81 366.64 370.81 344.82 397.82 344.82 397.53 323.5 426 323.5 426 300 239.31 299.5"/><line class="cls-11" x1="226.5" y1="322.5" x2="382.47" y2="322.5"/><line class="cls-11" x1="197.5" y1="343.5" x2="350.4" y2="343.5"/><line class="cls-12" x1="212.5" y1="230.5" x2="237.85" y2="230.5"/><line class="cls-12" x1="257.85" y1="68.37" x2="273.95" y2="87.16"/><line class="cls-12" x1="220.3" y1="120.5" x2="242.46" y2="132.53"/><line class="cls-12" x1="212.5" y1="177.07" x2="237.85" y2="177.07"/><line class="cls-12" x1="450.77" y1="230.83" x2="425.41" y2="230.83"/><line class="cls-12" x1="405.41" y1="68.7" x2="389.32" y2="87.49"/><line class="cls-12" x1="442.97" y1="120.83" x2="420.81" y2="132.86"/><line class="cls-12" x1="450.77" y1="177.4" x2="425.41" y2="177.4"/></g></svg>