<svg xmlns="http://www.w3.org/2000/svg" xmlns:xlink="http://www.w3.org/1999/xlink" viewBox="0 0 450 332"><defs><style>.cls-1{fill:url(#Dégradé_sans_nom_9);}.cls-2{fill:url(#Dégradé_sans_nom_9-2);}.cls-3{fill:url(#Dégradé_sans_nom_9-3);}.cls-4{fill:url(#Dégradé_sans_nom_9-4);}.cls-5{fill:url(#Dégradé_sans_nom_9-5);}.cls-6{fill:url(#Dégradé_sans_nom_9-6);}.cls-7{fill:url(#Dégradé_sans_nom_9-7);}.cls-8{fill:url(#Dégradé_sans_nom_9-8);}.cls-9{fill:url(#Dégradé_sans_nom_9-9);}.cls-10{fill:url(#Dégradé_sans_nom_9-10);}.cls-11{fill:url(#Dégradé_sans_nom_9-11);}.cls-12{fill:url(#Dégradé_sans_nom_9-12);}.cls-13{fill:url(#Dégradé_sans_nom_9-13);}.cls-14{fill:url(#Dégradé_sans_nom_9-14);}.cls-15{fill:url(#Dégradé_sans_nom_9-15);}.cls-16{fill:url(#Dégradé_sans_nom_9-16);}.cls-17{fill:url(#Dégradé_sans_nom_9-17);}.cls-18{fill:url(#Dégradé_sans_nom_9-18);}.cls-19{fill:url(#Dégradé_sans_nom_9-19);}.cls-20{fill:url(#Dégradé_sans_nom_9-20);}.cls-21{fill:url(#Dégradé_sans_nom_9-21);}.cls-22{fill:url(#Dégradé_sans_nom_9-22);}.cls-23{fill:url(#Dégradé_sans_nom_9-23);}.cls-24{fill:url(#Dégradé_sans_nom_9-24);}.cls-25{fill:url(#Dégradé_sans_nom_9-25);}.cls-26{fill:url(#Dégradé_sans_nom_9-26);}.cls-27{fill:url(#Dégradé_sans_nom_9-27);}.cls-28{fill:url(#Dégradé_sans_nom_9-28);}.cls-29{fill:url(#Dégradé_sans_nom_9-29);}.cls-30{fill:url(#Dégradé_sans_nom_9-30);}.cls-31{fill:url(#Dégradé_sans_nom_9-31);}.cls-32{fill:url(#Dégradé_sans_nom_9-32);}.cls-33{fill:url(#Dégradé_sans_nom_9-33);}.cls-34{fill:url(#Dégradé_sans_nom_9-34);}.cls-35{fill:url(#Dégradé_sans_nom_9-35);}.cls-36{fill:url(#Dégradé_sans_nom_9-36);}.cls-37{fill:url(#Dégradé_sans_nom_9-37);}.cls-38{fill:url(#Dégradé_sans_nom_9-38);}.cls-39{fill:url(#Dégradé_sans_nom_9-39);}.cls-40{fill:url(#Dégradé_sans_nom_9-40);}.cls-41{fill:url(#Dégradé_sans_nom_9-41);}.cls-42{fill:url(#Dégradé_sans_nom_9-42);}.cls-43{fill:url(#Dégradé_sans_nom_9-43);}.cls-44{fill:url(#Dégradé_sans_nom_9-44);}.cls-45{fill:url(#Dégradé_sans_nom_9-45);}.cls-46{fill:url(#Dégradé_sans_nom_9-46);}.cls-47{fill:url(#Dégradé_sans_nom_9-47);}.cls-48{fill:url(#Dégradé_sans_nom_9-48);}.cls-49{fill:none;stroke:#f2e8c5;stroke-miterlimit:10;stroke-width:11px;}.cls-50{fill:#63b57f;}.cls-51{fill:#f2aa87;}.cls-52{fill:#d88868;}.cls-53{fill:#fff;}.cls-54{fill:#e0dfde;}.cls-55{fill:#f2e8c5;}.cls-56{fill:#1d1e2f;}</style><linearGradient id="Dégradé_sans_nom_9" x1="105" y1="137.51" x2="322" y2="137.51" gradientTransform="translate(238.64 194.18) rotate(146) scale(0.09)" gradientUnits="userSpaceOnUse"><stop offset="0" stop-color="#f2e8c5"/><stop offset="0.19" stop-color="#efe5c3" stop-opacity="0.99"/><stop offset="0.32" stop-color="#e6dcbb" stop-opacity="0.95"/><stop offset="0.44" stop-color="#d6cdae" stop-opacity="0.88"/><stop offset="0.55" stop-color="#bfb89c" stop-opacity="0.79"/><stop offset="0.65" stop-color="#a29c84" stop-opacity="0.67"/><stop offset="0.75" stop-color="#7f7a67" stop-opacity="0.52"/><stop offset="0.85" stop-color="#545145" stop-opacity="0.35"/><stop offset="0.94" stop-color="#25231e" stop-opacity="0.15"/><stop offset="1" stop-opacity="0"/></linearGradient><linearGradient id="Dégradé_sans_nom_9-2" x1="105" y1="243.99" x2="322" y2="243.99" xlink:href="#Dégradé_sans_nom_9"/><linearGradient id="Dégradé_sans_nom_9-3" x1="105" y1="137.51" x2="322" y2="137.51" gradientTransform="matrix(-0.06, 0.08, -0.08, -0.06, 240.83, 183.82)" xlink:href="#Dégradé_sans_nom_9"/><linearGradient id="Dégradé_sans_nom_9-4" x1="105" y1="243.99" x2="322" y2="243.99" gradientTransform="matrix(-0.06, 0.08, -0.08, -0.06, 240.83, 183.82)" xlink:href="#Dégradé_sans_nom_9"/><linearGradient id="Dégradé_sans_nom_9-5" x1="105" y1="137.51" x2="322" y2="137.51" gradientTransform="matrix(-0.02, 0.11, -0.11, -0.02, 238.77, 172.24)" xlink:href="#Dégradé_sans_nom_9"/><linearGradient id="Dégradé_sans_nom_9-6" x1="105" y1="243.99" x2="322" y2="243.99" gradientTransform="matrix(-0.02, 0.11, -0.11, -0.02, 238.77, 172.24)" xlink:href="#Dégradé_sans_nom_9"/><linearGradient id="Dégradé_sans_nom_9-7" x1="105" y1="137.51" x2="322" y2="137.51" gradientTransform="translate(231.83 161.16) rotate(80) scale(0.12)" xlink:href="#Dégradé_sans_nom_9"/><linearGradient id="Dégradé_sans_nom_9-8" x1="105" y1="243.99" x2="322" y2="243.99" gradientTransform="translate(231.83 161.16) rotate(80) scale(0.12)" xlink:href="#Dégradé_sans_nom_9"/><linearGradient id="Dégradé_sans_nom_9-9" x1="105" y1="137.51" x2="322" y2="137.51" gradientTransform="matrix(0.07, 0.11, -0.11, 0.07, 220.07, 152.64)" xlink:href="#Dégradé_sans_nom_9"/><linearGradient id="Dégradé_sans_nom_9-10" x1="105" y1="243.99" x2="322" y2="243.99" gradientTransform="matrix(0.07, 0.11, -0.11, 0.07, 220.07, 152.64)" xlink:href="#Dégradé_sans_nom_9"/><linearGradient id="Dégradé_sans_nom_9-11" x1="105" y1="137.51" x2="322" y2="137.51" gradientTransform="translate(204.4 148.75) rotate(36) scale(0.15)" xlink:href="#Dégradé_sans_nom_9"/><linearGradient id="Dégradé_sans_nom_9-12" x1="105" y1="243.99" x2="322" y2="243.99" gradientTransform="translate(204.4 148.75) rotate(36) scale(0.15)" xlink:href="#Dégradé_sans_nom_9"/><linearGradient id="Dégradé_sans_nom_9-13" x1="105" y1="137.51" x2="322" y2="137.51" gradientTransform="translate(186.65 151.27) rotate(14) scale(0.17)" xlink:href="#Dégradé_sans_nom_9"/><linearGradient id="Dégradé_sans_nom_9-14" x1="105" y1="243.99" x2="322" y2="243.99" gradientTransform="translate(186.65 151.27) rotate(14) scale(0.17)" xlink:href="#Dégradé_sans_nom_9"/><linearGradient id="Dégradé_sans_nom_9-15" x1="105" y1="137.51" x2="322" y2="137.51" gradientTransform="translate(169.4 161.25) rotate(-8) scale(0.19)" xlink:href="#Dégradé_sans_nom_9"/><linearGradient id="Dégradé_sans_nom_9-16" x1="105" y1="243.99" x2="322" y2="243.99" gradientTransform="translate(169.4 161.25) rotate(-8) scale(0.19)" xlink:href="#Dégradé_sans_nom_9"/><linearGradient id="Dégradé_sans_nom_9-17" x1="105" y1="137.51" x2="322" y2="137.51" gradientTransform="matrix(0.18, -0.1, 0.1, 0.18, 155.79, 178.72)" xlink:href="#Dégradé_sans_nom_9"/><linearGradient id="Dégradé_sans_nom_9-18" x1="105" y1="243.99" x2="322" y2="243.99" gradientTransform="matrix(0.18, -0.1, 0.1, 0.18, 155.79, 178.72)" xlink:href="#Dégradé_sans_nom_9"/><linearGradient id="Dégradé_sans_nom_9-19" x1="105" y1="137.51" x2="322" y2="137.51" gradientTransform="translate(149.04 202.37) rotate(-52) scale(0.23)" xlink:href="#Dégradé_sans_nom_9"/><linearGradient id="Dégradé_sans_nom_9-20" x1="105" y1="243.99" x2="322" y2="243.99" gradientTransform="translate(149.04 202.37) rotate(-52) scale(0.23)" xlink:href="#Dégradé_sans_nom_9"/><linearGradient id="Dégradé_sans_nom_9-21" x1="105" y1="137.51" x2="322" y2="137.51" gradientTransform="translate(151.93 229.55) rotate(-74) scale(0.25)" xlink:href="#Dégradé_sans_nom_9"/><linearGradient id="Dégradé_sans_nom_9-22" x1="105" y1="243.99" x2="322" y2="243.99" gradientTransform="translate(151.93 229.55) rotate(-74) scale(0.25)" xlink:href="#Dégradé_sans_nom_9"/><linearGradient id="Dégradé_sans_nom_9-23" x1="105" y1="137.51" x2="322" y2="137.51" gradientTransform="matrix(-0.03, -0.28, 0.28, -0.03, 166.22, 256.35)" xlink:href="#Dégradé_sans_nom_9"/><linearGradient id="Dégradé_sans_nom_9-24" x1="105" y1="243.99" x2="322" y2="243.99" gradientTransform="matrix(-0.03, -0.28, 0.28, -0.03, 166.22, 256.35)" xlink:href="#Dégradé_sans_nom_9"/><linearGradient id="Dégradé_sans_nom_9-25" x1="105" y1="137.51" x2="322" y2="137.51" gradientTransform="translate(192.1 278.01) rotate(-118) scale(0.31)" xlink:href="#Dégradé_sans_nom_9"/><linearGradient id="Dégradé_sans_nom_9-26" x1="105" y1="243.99" x2="322" y2="243.99" gradientTransform="translate(192.1 278.01) rotate(-118) scale(0.31)" xlink:href="#Dégradé_sans_nom_9"/><linearGradient id="Dégradé_sans_nom_9-27" x1="105" y1="137.51" x2="322" y2="137.51" gradientTransform="matrix(-0.27, -0.22, 0.22, -0.27, 227.77, 289.55)" xlink:href="#Dégradé_sans_nom_9"/><linearGradient id="Dégradé_sans_nom_9-28" x1="105" y1="243.99" x2="322" y2="243.99" gradientTransform="matrix(-0.27, -0.22, 0.22, -0.27, 227.77, 289.55)" xlink:href="#Dégradé_sans_nom_9"/><linearGradient id="Dégradé_sans_nom_9-29" x1="105" y1="137.51" x2="322" y2="137.51" gradientTransform="matrix(-0.37, -0.12, 0.12, -0.37, 269.33, 286.59)" xlink:href="#Dégradé_sans_nom_9"/><linearGradient id="Dégradé_sans_nom_9-30" x1="105" y1="243.99" x2="322" y2="243.99" gradientTransform="matrix(-0.37, -0.12, 0.12, -0.37, 269.33, 286.59)" xlink:href="#Dégradé_sans_nom_9"/><linearGradient id="Dégradé_sans_nom_9-31" x1="105" y1="137.51" x2="322" y2="137.51" gradientTransform="matrix(-0.43, 0.03, -0.03, -0.43, 310.91, 266.25)" xlink:href="#Dégradé_sans_nom_9"/><linearGradient id="Dégradé_sans_nom_9-32" x1="105" y1="243.99" x2="322" y2="243.99" gradientTransform="matrix(-0.43, 0.03, -0.03, -0.43, 310.91, 266.25)" xlink:href="#Dégradé_sans_nom_9"/><linearGradient id="Dégradé_sans_nom_9-33" x1="105" y1="137.51" x2="322" y2="137.51" gradientTransform="translate(345.28 227.99) rotate(154) scale(0.48)" xlink:href="#Dégradé_sans_nom_9"/><linearGradient id="Dégradé_sans_nom_9-34" x1="105" y1="243.99" x2="322" y2="243.99" gradientTransform="translate(345.28 227.99) rotate(154) scale(0.48)" xlink:href="#Dégradé_sans_nom_9"/><linearGradient id="Dégradé_sans_nom_9-35" x1="105" y1="137.51" x2="322" y2="137.51" gradientTransform="translate(364.76 174.26) rotate(132) scale(0.53)" xlink:href="#Dégradé_sans_nom_9"/><linearGradient id="Dégradé_sans_nom_9-36" x1="105" y1="243.99" x2="322" y2="243.99" gradientTransform="translate(364.76 174.26) rotate(132) scale(0.53)" xlink:href="#Dégradé_sans_nom_9"/><linearGradient id="Dégradé_sans_nom_9-37" x1="105" y1="137.51" x2="322" y2="137.51" gradientTransform="translate(362.46 110.81) rotate(110) scale(0.59)" xlink:href="#Dégradé_sans_nom_9"/><linearGradient id="Dégradé_sans_nom_9-38" x1="105" y1="243.99" x2="322" y2="243.99" gradientTransform="translate(362.46 110.81) rotate(110) scale(0.59)" xlink:href="#Dégradé_sans_nom_9"/><linearGradient id="Dégradé_sans_nom_9-39" x1="105" y1="137.51" x2="322" y2="137.51" gradientTransform="translate(333.69 46.39) rotate(88) scale(0.66)" xlink:href="#Dégradé_sans_nom_9"/><linearGradient id="Dégradé_sans_nom_9-40" x1="105" y1="243.99" x2="322" y2="243.99" gradientTransform="translate(333.69 46.39) rotate(88) scale(0.66)" xlink:href="#Dégradé_sans_nom_9"/><linearGradient id="Dégradé_sans_nom_9-41" x1="105" y1="137.51" x2="322" y2="137.51" gradientTransform="translate(277.23 -8) rotate(66) scale(0.73)" xlink:href="#Dégradé_sans_nom_9"/><linearGradient id="Dégradé_sans_nom_9-42" x1="105" y1="243.99" x2="322" y2="243.99" gradientTransform="translate(277.23 -8) rotate(66) scale(0.73)" xlink:href="#Dégradé_sans_nom_9"/><linearGradient id="Dégradé_sans_nom_9-43" x1="105" y1="137.51" x2="322" y2="137.51" gradientTransform="translate(196.43 -40.52) rotate(44) scale(0.81)" xlink:href="#Dégradé_sans_nom_9"/><linearGradient id="Dégradé_sans_nom_9-44" x1="105" y1="243.99" x2="322" y2="243.99" gradientTransform="translate(196.43 -40.52) rotate(44) scale(0.81)" xlink:href="#Dégradé_sans_nom_9"/><linearGradient id="Dégradé_sans_nom_9-45" x1="105" y1="137.51" x2="322" y2="137.51" gradientTransform="translate(99.65 -40.4) rotate(22) scale(0.9)" xlink:href="#Dégradé_sans_nom_9"/><linearGradient id="Dégradé_sans_nom_9-46" x1="105" y1="243.99" x2="322" y2="243.99" gradientTransform="translate(99.65 -40.4) rotate(22) scale(0.9)" xlink:href="#Dégradé_sans_nom_9"/><linearGradient id="Dégradé_sans_nom_9-47" x1="105" y1="137.51" x2="322" y2="137.51" gradientTransform="matrix(1, 0, 0, 1, 0, 0)" xlink:href="#Dégradé_sans_nom_9"/><linearGradient id="Dégradé_sans_nom_9-48" x1="105" y1="243.99" x2="322" y2="243.99" gradientTransform="matrix(1, 0, 0, 1, 0, 0)" xlink:href="#Dégradé_sans_nom_9"/></defs><g id="Calque_1" data-name="Calque 1"><path class="cls-1" d="M206,195.92a9,9,0,0,0,5.79,3.9,9.17,9.17,0,0,0,6.9-1.34,9.34,9.34,0,0,0,2.56-2.53,9.65,9.65,0,0,0,1.4-3.34,9.35,9.35,0,0,0-1.37-7,9.4,9.4,0,0,1,1.45,3.36,9.64,9.64,0,0,1,.05,3.67,9.5,9.5,0,0,1-1.37,3.42,9.36,9.36,0,0,1-2.57,2.64,9.5,9.5,0,0,1-3.41,1.47,9.7,9.7,0,0,1-3.72.05,9.62,9.62,0,0,1-6.15-4,.27.27,0,1,1,.44-.3Z"/><path class="cls-2" d="M221,185.58a9.26,9.26,0,0,0-2.5-2.53,9.19,9.19,0,0,0-10.19,0,9.34,9.34,0,0,0-2.56,2.53,9.65,9.65,0,0,0-1.4,3.34,9.35,9.35,0,0,0,1.37,7,9.4,9.4,0,0,1-1.45-3.36,9.64,9.64,0,0,1-.05-3.67,9.5,9.5,0,0,1,1.37-3.42,9.27,9.27,0,0,1,2.58-2.64,9.38,9.38,0,0,1,3.4-1.47,9.7,9.7,0,0,1,3.72-.05,9.62,9.62,0,0,1,6.15,4,.27.27,0,0,1-.44.3Z"/><path class="cls-3" d="M208,199.19a10.16,10.16,0,0,0,3.62,1.56,10.34,10.34,0,0,0,4,.05,10.22,10.22,0,0,0,3.7-1.47,10.31,10.31,0,0,0,4.44-6.46,10.46,10.46,0,0,0,0-4,10.25,10.25,0,0,0-4.32-6.64,10.48,10.48,0,0,1,2.93,14.5,10.64,10.64,0,0,1-14.71,3,.3.3,0,0,1,.32-.5Z"/><path class="cls-4" d="M219,182.31a10.16,10.16,0,0,0-3.62-1.56,10.34,10.34,0,0,0-4-.05,10.22,10.22,0,0,0-3.7,1.47,10.31,10.31,0,0,0-4.44,6.46,10.46,10.46,0,0,0,0,4,10.25,10.25,0,0,0,4.32,6.64,10.48,10.48,0,0,1-2.93-14.5,10.64,10.64,0,0,1,14.71-3,.3.3,0,1,1-.32.5Z"/><path class="cls-5" d="M211.3,201.75a11.29,11.29,0,0,0,13.46-8.61,11.06,11.06,0,0,0,.1-4.44,11.31,11.31,0,0,0-1.61-4.16,11.49,11.49,0,0,0-7.22-5,11.6,11.6,0,0,1,4.17,1.74,11.67,11.67,0,0,1,3.12,16.2,12,12,0,0,1-3.26,3.24,11.87,11.87,0,0,1-8.89,1.72.33.33,0,1,1,.13-.64Z"/><path class="cls-6" d="M215.7,179.75a11.29,11.29,0,0,0-13.46,8.61,11.06,11.06,0,0,0-.1,4.44,11.31,11.31,0,0,0,1.61,4.16,11.49,11.49,0,0,0,7.22,5,11.6,11.6,0,0,1-4.17-1.74,11.67,11.67,0,0,1-3.12-16.2,11.87,11.87,0,0,1,3.27-3.24,11.84,11.84,0,0,1,8.88-1.72.32.32,0,0,1,.26.39.33.33,0,0,1-.39.25Z"/><path class="cls-7" d="M215.81,203a12.53,12.53,0,0,0,4.56-1.73,12.59,12.59,0,0,0,5.58-7.82,12.73,12.73,0,0,0-9.53-15.21,13.14,13.14,0,0,0-5-.15,12.94,12.94,0,0,1,15,10.37,13.07,13.07,0,0,1-5.75,13.35,13,13,0,0,1-4.77,1.9.36.36,0,1,1-.13-.71Z"/><path class="cls-8" d="M211.19,178.5a12.53,12.53,0,0,0-4.56,1.73,12.59,12.59,0,0,0-5.58,7.82,12.73,12.73,0,0,0,9.53,15.21,13.14,13.14,0,0,0,5,.15,12.94,12.94,0,0,1-15-10.37,13.07,13.07,0,0,1,5.75-13.35,13,13,0,0,1,4.77-1.9.36.36,0,1,1,.13.71Z"/><path class="cls-9" d="M221,202.4a13.94,13.94,0,0,0,6.47-14.05,14.06,14.06,0,0,0-5.62-9.17,14.14,14.14,0,0,0-10.53-2.53,14.32,14.32,0,0,0-5.21,1.92,14.39,14.39,0,0,1,15.92.36,14.51,14.51,0,0,1,5.82,15,14.84,14.84,0,0,1-2.29,5.21,14.66,14.66,0,0,1-4.13,4,.4.4,0,1,1-.44-.68Z"/><path class="cls-10" d="M206,179.1a13.94,13.94,0,0,0-6.47,14.05,14.06,14.06,0,0,0,5.62,9.17,14.14,14.14,0,0,0,10.53,2.53,14.32,14.32,0,0,0,5.21-1.92,14.39,14.39,0,0,1-15.92-.36,14.54,14.54,0,0,1,.6-24.16.4.4,0,0,1,.56.12.41.41,0,0,1-.12.56Z"/><path class="cls-11" d="M226.06,199.64a15.42,15.42,0,0,0,2.86-11.47,15.61,15.61,0,0,0-11.65-12.81,15.81,15.81,0,0,0-11.91,1.78,15.71,15.71,0,0,0-4.56,4.15,15.9,15.9,0,0,1,10.32-6.44,16,16,0,0,1,16.23,7.33,16.22,16.22,0,0,1-.56,18,.46.46,0,0,1-.63.11.45.45,0,0,1-.11-.63Z"/><path class="cls-12" d="M200.94,181.86a15.42,15.42,0,0,0-2.86,11.47,15.61,15.61,0,0,0,11.65,12.81,15.73,15.73,0,0,0,16.47-5.93,15.9,15.9,0,0,1-10.32,6.44,16,16,0,0,1-16.23-7.33,16.22,16.22,0,0,1,.56-18,.46.46,0,0,1,.63-.11.45.45,0,0,1,.11.63Z"/><path class="cls-13" d="M230.14,194.68A17.28,17.28,0,0,0,211,173.33a17.52,17.52,0,0,0-14.5,13,17.66,17.66,0,0,1,7.94-10.93,17.81,17.81,0,0,1,19.78.79,18,18,0,0,1,6.91,18.78.5.5,0,1,1-1-.24Z"/><path class="cls-14" d="M196.86,186.82A17.28,17.28,0,0,0,216,208.17a17.52,17.52,0,0,0,14.5-13,17.66,17.66,0,0,1-7.94,10.93,17.81,17.81,0,0,1-19.78-.79,18,18,0,0,1-6.91-18.78.5.5,0,0,1,1,.24Z"/><path class="cls-15" d="M232.28,187.88a19,19,0,0,0-7.3-12.64,19.15,19.15,0,0,0-14.19-3.8,19.42,19.42,0,0,0-16.68,21.8,19.6,19.6,0,0,1,3.63-14.57,20,20,0,0,1,5.7-5.18,19.9,19.9,0,0,1,22,1.08,20.07,20.07,0,0,1,7.9,13.15.56.56,0,0,1-.47.63.55.55,0,0,1-.63-.46Z"/><path class="cls-16" d="M194.72,193.62a19.14,19.14,0,0,0,21.49,16.44,19.42,19.42,0,0,0,16.68-21.8,19.6,19.6,0,0,1-3.63,14.57,20,20,0,0,1-5.7,5.18,19.9,19.9,0,0,1-22-1.08,20.07,20.07,0,0,1-7.9-13.15.56.56,0,0,1,.47-.63.55.55,0,0,1,.63.46Z"/><path class="cls-17" d="M231.65,180a21.33,21.33,0,0,0-35.33-2.54,21.71,21.71,0,0,0-3.78,7.51,21.45,21.45,0,0,0-.63,8.4,21.67,21.67,0,0,0,2.65,8,21.82,21.82,0,0,1-2.32-16.52,22,22,0,0,1,26.87-15.77,22.15,22.15,0,0,1,13.61,10.26.62.62,0,0,1-1.07.62Z"/><path class="cls-18" d="M195.35,201.52a21.23,21.23,0,0,0,21.06,10.61,21.56,21.56,0,0,0,16-32,21.82,21.82,0,0,1,2.32,16.52,22,22,0,0,1-26.87,15.77,22.22,22.22,0,0,1-13.61-10.26.62.62,0,0,1,1.07-.63Z"/><path class="cls-19" d="M227.71,172.1a23.41,23.41,0,0,0-8.14-4.21,23.77,23.77,0,0,0-29.31,16.3,24,24,0,0,0,8.16,25.4,24.27,24.27,0,0,1-8.65-25.54,24.51,24.51,0,0,1,20.5-17.94,24.77,24.77,0,0,1,18.29,4.9.7.7,0,0,1,.12,1,.68.68,0,0,1-1,.12Z"/><path class="cls-20" d="M199.29,209.4a23.41,23.41,0,0,0,8.14,4.21,23.77,23.77,0,0,0,29.31-16.3,24,24,0,0,0-8.16-25.4,24.27,24.27,0,0,1,8.65,25.54,24.51,24.51,0,0,1-20.5,17.94,24.77,24.77,0,0,1-18.29-4.9.7.7,0,0,1-.12-1,.68.68,0,0,1,1-.12Z"/><path class="cls-21" d="M220.38,165.62a26.23,26.23,0,0,0-27.8,8.64,26.58,26.58,0,0,0,4,37.32,26.88,26.88,0,0,0,9.24,4.86,26.91,26.91,0,0,1-9.36-4.71,27.25,27.25,0,0,1,13.64-48.38,27.72,27.72,0,0,1,10.72.8.77.77,0,0,1,.53.94.76.76,0,0,1-.94.53Z"/><path class="cls-22" d="M206.62,215.88a26.23,26.23,0,0,0,27.8-8.64,26.58,26.58,0,0,0-4-37.32,26.88,26.88,0,0,0-9.24-4.86,26.91,26.91,0,0,1,9.36,4.71,27.25,27.25,0,0,1-13.64,48.38,27.72,27.72,0,0,1-10.72-.8.77.77,0,0,1-.53-.94.76.76,0,0,1,.94-.53Z"/><path class="cls-23" d="M210.12,162a29.18,29.18,0,0,0-25,20.47,29.46,29.46,0,0,0,9.45,31.31,29.65,29.65,0,0,0,21.73,6.64,29.91,29.91,0,0,1-22-6.31A30.37,30.37,0,0,1,210,160.31a.85.85,0,0,1,.19,1.68Z"/><path class="cls-24" d="M216.88,219.5a29.18,29.18,0,0,0,25-20.47,29.46,29.46,0,0,0-9.45-31.31,29.65,29.65,0,0,0-21.73-6.64,29.91,29.91,0,0,1,22,6.31,30.23,30.23,0,0,1,4.76,42.47,30.53,30.53,0,0,1-20.45,11.33.85.85,0,0,1-.19-1.68Z"/><path class="cls-25" d="M198.05,162.53a32.51,32.51,0,0,0-5.73,53.68,32.93,32.93,0,0,0,11.22,6.16,32.93,32.93,0,0,0,25.16-2.2,33.34,33.34,0,0,1-36.83-3.41,33.79,33.79,0,0,1,5.3-55.89.94.94,0,0,1,1.28.38,1,1,0,0,1-.38,1.28Z"/><path class="cls-26" d="M229,219a32.39,32.39,0,0,0,17.27-31.52,32.81,32.81,0,0,0-35.54-29.73,33.29,33.29,0,0,0-12.38,3.61,33.34,33.34,0,0,1,36.83,3.41,33.79,33.79,0,0,1-5.3,55.89.94.94,0,0,1-1.28-.38,1,1,0,0,1,.38-1.28Z"/><path class="cls-27" d="M185.84,168.11a36,36,0,0,0-4.67,39.66,36.35,36.35,0,0,0,21.1,18,36.61,36.61,0,0,0,39.13-11.07,36.69,36.69,0,0,1-11.13,9.1A37.23,37.23,0,0,1,180,208.37a37.62,37.62,0,0,1,4.23-41.6,1,1,0,1,1,1.61,1.33Z"/><path class="cls-28" d="M241.16,213.39a36,36,0,0,0,4.67-39.66,36.35,36.35,0,0,0-21.1-18,36.61,36.61,0,0,0-39.13,11.07,36.69,36.69,0,0,1,11.13-9.1A37.23,37.23,0,0,1,247,173.13a37.62,37.62,0,0,1-4.23,41.6,1,1,0,1,1-1.61-1.33Z"/><path class="cls-29" d="M175.58,178.94a40,40,0,0,0,25.32,50.59,40.61,40.61,0,0,0,51.32-25.69,41.12,41.12,0,0,1-35.63,28.56,41.73,41.73,0,0,1-43.22-54.18,1.16,1.16,0,0,1,2.22.7Z"/><path class="cls-30" d="M251.42,202.56A40,40,0,0,0,226.1,152a40.61,40.61,0,0,0-51.32,25.69,41.12,41.12,0,0,1,35.63-28.56,41.69,41.69,0,0,1,45,37.9,42.16,42.16,0,0,1-1.79,16.28,1.16,1.16,0,1,1-2.22-.7Z"/><path class="cls-31" d="M169.52,194.36a44.41,44.41,0,0,0,29.86,39.23,44.85,44.85,0,0,0,48.19-12.72,45.14,45.14,0,0,0,11.27-32.75,45.54,45.54,0,0,1-10.78,33.17,46.09,46.09,0,0,1-64.95,5A46.42,46.42,0,0,1,167,194.54a1.27,1.27,0,0,1,1.18-1.38,1.29,1.29,0,0,1,1.39,1.18Z"/><path class="cls-32" d="M257.48,187.14a44.41,44.41,0,0,0-29.86-39.23,44.85,44.85,0,0,0-48.19,12.72,45.14,45.14,0,0,0-11.27,32.75,45.54,45.54,0,0,1,10.78-33.17,46.21,46.21,0,0,1,76.18,9.23A46.54,46.54,0,0,1,260.05,187a1.27,1.27,0,0,1-1.18,1.38,1.29,1.29,0,0,1-1.39-1.18Z"/><path class="cls-33" d="M169.7,212.78a49.13,49.13,0,0,0,28,25.2,49.69,49.69,0,0,0,53.48-13.61,50.19,50.19,0,0,0,8-55.2A50.79,50.79,0,0,1,252,225.08,51.31,51.31,0,0,1,197,240a51.72,51.72,0,0,1-29.86-26,1.44,1.44,0,1,1,2.57-1.28Z"/><path class="cls-34" d="M257.3,168.72a49.13,49.13,0,0,0-28-25.2,49.69,49.69,0,0,0-53.48,13.61,50.24,50.24,0,0,0-8,55.2A50.79,50.79,0,0,1,175,156.42a51.31,51.31,0,0,1,55-14.94,51.72,51.72,0,0,1,29.86,26,1.44,1.44,0,1,1-2.57,1.28Z"/><path class="cls-35" d="M177.54,231.68a54.87,54.87,0,0,0,60.17,9.23,55.64,55.64,0,0,0,13.8-91.38,56.23,56.23,0,0,1,18.87,38.71,56.81,56.81,0,0,1-31.82,54.46,57.36,57.36,0,0,1-63.15-8.65,1.61,1.61,0,0,1-.14-2.26,1.59,1.59,0,0,1,2.25-.13Z"/><path class="cls-36" d="M249.46,149.82a54.87,54.87,0,0,0-60.17-9.23A55.64,55.64,0,0,0,175.49,232a56.23,56.23,0,0,1-18.87-38.71,56.85,56.85,0,0,1,31.82-54.47,57.38,57.38,0,0,1,63.15,8.66,1.59,1.59,0,1,1-2.11,2.39Z"/><path class="cls-37" d="M193.49,247.88A61,61,0,0,0,271.9,212a61.83,61.83,0,0,0-15.76-66.78,62.31,62.31,0,0,0-20.64-12.77,62.67,62.67,0,0,1,41.6,55.8,63.29,63.29,0,0,1-36,60.41,63.74,63.74,0,0,1-48.8,2.54,1.77,1.77,0,0,1,1.18-3.34Z"/><path class="cls-38" d="M233.51,133.62a61,61,0,0,0-78.41,35.87,61.83,61.83,0,0,0,15.76,66.78A62.31,62.31,0,0,0,191.5,249a62.72,62.72,0,0,1-41.6-55.8,63.33,63.33,0,0,1,36-60.41,63.74,63.74,0,0,1,48.8-2.54,1.77,1.77,0,0,1-1.18,3.34Z"/><path class="cls-39" d="M216.67,257.93A67.7,67.7,0,0,0,278,214.53a68.36,68.36,0,0,0-16.82-74.07,68.89,68.89,0,0,0-49.29-18.92,69.77,69.77,0,0,1,72.58,66.73,70.66,70.66,0,0,1-40.74,67,71.06,71.06,0,0,1-26.94,6.58,2,2,0,0,1-.17-3.93Z"/><path class="cls-40" d="M210.33,123.57A67.7,67.7,0,0,0,149,167,68.36,68.36,0,0,0,165.81,241,68.82,68.82,0,0,0,215.1,260,69.64,69.64,0,0,1,149,219.79a70.25,70.25,0,0,1-2.33-53.69,70.81,70.81,0,0,1,63.51-46.46,2,2,0,1,1,.17,3.93Z"/><path class="cls-41" d="M244.72,258.64a75.23,75.23,0,0,0,45.14-70.24,76,76,0,0,0-23.14-53.22,76.51,76.51,0,0,0-83.67-15.06,77.51,77.51,0,0,1,102.54,38.53,78.59,78.59,0,0,1-39.09,104,2.19,2.19,0,0,1-1.81-4Z"/><path class="cls-42" d="M182.28,122.86a75.23,75.23,0,0,0-45.14,70.24,76,76,0,0,0,23.14,53.22A76.51,76.51,0,0,0,244,261.38a77.51,77.51,0,0,1-102.54-38.53,78.59,78.59,0,0,1,39.09-104,2.19,2.19,0,0,1,1.81,4Z"/><path class="cls-43" d="M273.93,247.7a83.69,83.69,0,0,0-1.21-118.28,84.82,84.82,0,0,0-92.48-17.5,85.59,85.59,0,0,0-27.51,18.74,86.12,86.12,0,0,1,121.68-3,87.32,87.32,0,0,1,3,123.39,2.43,2.43,0,0,1-3.52-3.34Z"/><path class="cls-44" d="M153.07,133.8A83.6,83.6,0,0,0,135.81,225a84.39,84.39,0,0,0,78.47,51.36,84.95,84.95,0,0,0,60-25.47,86.12,86.12,0,0,1-121.68,3,87.32,87.32,0,0,1-3-123.39,2.43,2.43,0,1,1,3.52,3.34Z"/><path class="cls-45" d="M299.45,224.26A93,93,0,0,0,249,102.92a94.25,94.25,0,0,0-102.55,20.46,94.92,94.92,0,0,0-20.54,30.76,95.12,95.12,0,0,1,50.67-52.46,96.36,96.36,0,0,1,126.63,50.14,97.2,97.2,0,0,1,1.27,74.47,2.7,2.7,0,1,1-5-2Z"/><path class="cls-46" d="M127.55,157.24A93,93,0,0,0,178,278.58a94.32,94.32,0,0,0,123.09-51.22,95.12,95.12,0,0,1-50.67,52.46,96.36,96.36,0,0,1-126.63-50.14,97.2,97.2,0,0,1-1.27-74.47,2.7,2.7,0,1,1,5,2Z"/><path class="cls-47" d="M316,189.5a103.16,103.16,0,0,0-62.84-95.75,104.21,104.21,0,0,0-113.73,21.68A105,105,0,0,0,108,189.5,106.17,106.17,0,0,1,172.69,91a107.2,107.2,0,0,1,117,22.33A107.93,107.93,0,0,1,322,189.5a3,3,0,1,1-6,.05Z"/><path class="cls-48" d="M111,192a103.16,103.16,0,0,0,62.84,95.75,104.21,104.21,0,0,0,113.73-21.68A105,105,0,0,0,319,192a106.17,106.17,0,0,1-64.69,98.52,107.2,107.2,0,0,1-117-22.33A107.93,107.93,0,0,1,105,192a3,3,0,1,1,6-.05Z"/><rect class="cls-49" x="130.5" y="61.5" width="147.24" height="247"/><rect class="cls-50" x="169.69" y="15" width="61.91" height="29.14"/><polygon class="cls-51" points="272.37 65.99 361.9 52.63 361.5 327 269.24 313.65 272.37 65.99"/><rect class="cls-52" x="361.5" y="52.63" width="8.5" height="274.37"/><rect class="cls-53" x="274.7" y="188" width="66.77" height="4.86"/><polyline class="cls-53" points="341.47 188 345.72 181.32 345.72 170.41 349.36 170.39 349.36 192.85 341.47 192.85"/><polygon class="cls-54" points="274.7 188 280.38 181.62 280.38 170.39 283.41 170.39 283.41 188 274.7 188"/><ellipse class="cls-55" cx="314.76" cy="120.62" rx="20.03" ry="27.92"/><rect class="cls-56" x="87" y="121" width="38" height="142"/></g></svg>