<svg xmlns="http://www.w3.org/2000/svg" viewBox="0 0 399 358"><defs><style>.cls-1{fill:#b3a0c3;}.cls-2,.cls-4,.cls-6{fill:#fff;}.cls-3{fill:#1d1e2f;}.cls-4,.cls-6{stroke:#2b2c49;}.cls-4,.cls-5,.cls-6{stroke-miterlimit:10;}.cls-4,.cls-5{stroke-width:3px;}.cls-5{fill:none;stroke:#1d1e2f;}.cls-6{stroke-width:2px;}.cls-7{fill:#909fce;}.cls-8{fill:#7d5f99;}</style></defs><g id="guy"><path class="cls-1" d="M296.25,37.88l-1.82-11.74L270.26,17.5H254.71L236.37,42.09s-4.26,23.1,0,32.42c4.49,9.8,4.73,2.93,4.73,2.93l8.1,5.18,33.41,16.54,12.77-16.54,3.9-11.7Z"/><ellipse class="cls-2" cx="276.58" cy="54.38" rx="24.26" ry="28.24"/><path class="cls-3" d="M294.19,37.44s-4.66,2-4,10,7.52,5.36,9.08,4,.48-5.34.48-5.34l-3.51-8.19Z"/><polygon class="cls-1" points="295.38 82.62 355.35 63.21 399.65 26.14 387.5 56.33 357.45 86.5 325.14 122.3 354.78 186.19 398.5 220.12 383.65 222.74 380.16 233.22 365.07 233.22 362.69 252.43 346.94 245.2 340.86 255.93 332.13 250.69 326.01 266.41 320.77 262.04 312.91 272.07 295.38 267.49 290.13 278.93 285.61 274.27 282.62 282.93 276.58 277.78 276.24 282.93 267.61 276.64 258.97 282.93 258.97 270.92 244.79 283 242.16 274.27 234.6 280.64 226.16 274.27 213.01 283 239.55 180.82 239.55 149.38 226.45 117.06 246.16 90.86 237.6 76.57 295.38 82.62"/><polygon class="cls-1" points="250.03 55.93 298.06 67.73 287.58 85.62 253.35 78.29 250.03 55.93"/><path class="cls-2" d="M289.36,49.84s19.45,6.87,23.43,23.48c0,0,3.71,7.18-9.37,0-9.1-5-15.85-6.54-24.19-6-2.42.15-5,.42-7.64.71-12,1.33-19.27-11.47-19.27-11.47"/><circle class="cls-3" cx="267.61" cy="49.4" r="8.64"/><path class="cls-4" d="M267.84,174.66a37.58,37.58,0,0,1-5.91-3.27,40.08,40.08,0,0,1,26.86-20.51,40.9,40.9,0,0,1,32.78,6.38,37.23,37.23,0,0,1-3.17,5.29S299.58,185.6,267.84,174.66Z"/><line class="cls-5" x1="251.31" y1="155.97" x2="261.37" y2="161.96"/><line class="cls-5" x1="266.99" y1="145.39" x2="271.86" y2="151.99"/><line class="cls-5" x1="284.74" y1="133.81" x2="287.78" y2="146.66"/><line class="cls-5" x1="325" y1="137.98" x2="318.69" y2="147.84"/><line class="cls-5" x1="306.24" y1="135.55" x2="304.84" y2="143.64"/><path class="cls-6" d="M294.46,174.07a7.28,7.28,0,0,1-4.95-.87,3.63,3.63,0,0,0-2-.59,4.33,4.33,0,0,1-4.95-2.76c-.88-1.93-.94-4.59.53-6.08a5.73,5.73,0,0,1,.08-3.92c1.12-3.06,2.54-3.92,4.77-4.45l.86-.19a4.83,4.83,0,0,1,3.78.79,1.48,1.48,0,0,0,1.46.3,8.48,8.48,0,0,1,6.8,1.36l.13.1.11.11a8.59,8.59,0,0,1,2.33,8.13,5.33,5.33,0,0,1-4,3.79h0l-.35.07-.27,0-.29.09a1.33,1.33,0,0,0,0,.19,4.78,4.78,0,0,1-2.92,3.51A5.84,5.84,0,0,1,294.46,174.07Z"/><path class="cls-1" d="M299.54,159.34a6.41,6.41,0,0,0-5-1c-2.86.67-3.09-1.55-5.3-1.08s-3.11.68-4.08,3.3,1.2,3.39-.38,4.53-.42,6.08,2.25,5.44,4.73,2.57,7.67,1.23.5-3.38,4-4S302.42,162.34,299.54,159.34Z"/><path class="cls-7" d="M293.48,170c-.56.14-1.2-.14-2.19-.6a7.11,7.11,0,0,0-4.68-.88,2.57,2.57,0,0,1-.45-1.79,3.29,3.29,0,0,0,1-4,1.73,1.73,0,0,1-.05-1.38c.56-1.51.75-1.55,1.78-1.8l.76-.17c.2,0,.21,0,.73.27a5.58,5.58,0,0,0,4.62.8,4.29,4.29,0,0,1,3.15.54,4.43,4.43,0,0,1,1.19,3.85,1.13,1.13,0,0,1-.88.88l-.11,0-.52.1a4.13,4.13,0,0,0-3.45,3.33c-.13.52-.13.52-.59.73A2.22,2.22,0,0,1,293.48,170Z"/><circle class="cls-3" cx="292.35" cy="164.73" r="2.11"/><polygon class="cls-8" points="365.07 233.22 399 324.04 399 335.64 331 247 365.07 233.22"/><polygon class="cls-8" points="288.13 276.71 399.65 351.53 399.65 344.98 325.73 257.79 288.13 276.71"/><path class="cls-1" d="M217.22,266.77,213,283s-3.06,20,21.47,10.49S260.09,307,274,307s21.07-5,24-17,13.22-11.67,12.94,6,33.87,22.66,32,0,14.11-31.47,26.05-29.23S393,246,390,240s9.3-6,9.65-15-11-12.54-11-12.54Z"/><path class="cls-8" d="M226.34,231.67s-9.14,52.61,8.26,49S263,280,268,287s15.1,17.86,32.55-2.57c0,0-5.39,28.1-29,22.34-9.58-1.77-9.9-8.51-15.24-11.64s-8.12-5.8-25.23-.46-19.34-5.12-18.22-13.4S226.34,231.67,226.34,231.67Z"/><path class="cls-8" d="M311.15,298.21s24.63,20.42,33.74-17.39c0,0-2.76,14-1.82,16.61s-.91,17.13-20,12.85C311,307,311.15,298.21,311.15,298.21Z"/><path class="cls-8" d="M246.16,90.86s13.63,4.18,27,6.77a1.13,1.13,0,0,1-.09,2.24c-10,1-26.25,3.56-40.86,9.58Z"/></g></svg>