<svg xmlns="http://www.w3.org/2000/svg" viewBox="0 0 1516 300"><defs><style>.cls-1,.cls-11,.cls-2,.cls-5{fill:none;}.cls-1{stroke:#020202;}.cls-1,.cls-10,.cls-11,.cls-12,.cls-2,.cls-5{stroke-miterlimit:10;}.cls-2{stroke:#161615;}.cls-3{fill:#1d1e2f;}.cls-4{fill:#f4efe4;}.cls-5{stroke:#f4efe4;}.cls-6{fill:#232858;}.cls-7{fill:#b3a0c3;}.cls-8{fill:#f2aa87;}.cls-9{fill:#f2e8c5;}.cls-10,.cls-12{fill:#fff;stroke:#2b2c49;}.cls-10{stroke-width:3px;}.cls-11{stroke:#fff;stroke-width:4px;}.cls-12{stroke-width:2px;}.cls-13{fill:#909fce;}</style></defs><g id="banner4"><rect class="cls-1" x="-0.5" y="10.5" width="681" height="285"/><rect class="cls-2" x="654.5" y="172.5" width="44" height="127"/></g><g id="geometric"><rect class="cls-3" x="-17" y="-841" width="1560" height="1352"/></g><g id="chambres"><rect class="cls-4" x="1032.04" y="68.17" width="6.92" height="6.82" transform="translate(478.58 -804.33) rotate(53.6)"/><rect class="cls-5" x="937.35" y="188.66" width="4.45" height="4.38" transform="translate(535.58 -678.64) rotate(53.6)"/><rect class="cls-5" x="1289.05" y="238.45" width="10.18" height="10.04" transform="translate(-17.77 129.65) rotate(-5.7)"/><rect class="cls-5" x="66.63" y="49.58" width="4.45" height="4.38" transform="translate(69.66 -34.37) rotate(53.6)"/><rect class="cls-4" x="587.45" y="234.81" width="6.92" height="6.82" transform="translate(431.96 -378.75) rotate(53.6)"/><rect class="cls-4" x="1082.24" y="230.82" width="6.92" height="6.82" transform="translate(629.9 -778.62) rotate(53.6)"/><rect class="cls-5" x="1248.3" y="26.62" width="10.18" height="10.04" transform="matrix(1, -0.1, 0.1, 1, 3.05, 124.56)"/><rect class="cls-4" x="547.66" y="88.35" width="4.45" height="4.38" transform="translate(296.42 -405.77) rotate(53.6)"/><rect class="cls-4" x="237.07" y="109.63" width="4.45" height="4.38" transform="translate(187.28 -147.14) rotate(53.6)"/><rect class="cls-4" x="161.44" y="178.6" width="4.45" height="4.38" transform="translate(212.05 -58.23) rotate(53.6)"/><rect class="cls-5" x="817.38" y="264.59" width="10.18" height="10.04" transform="matrix(1, -0.1, 0.1, 1, -22.7, 82.96)"/><rect class="cls-5" x="496.01" y="151.6" width="4.45" height="4.38" transform="translate(326.33 -338.49) rotate(53.6)"/><rect class="cls-4" x="796.49" y="38.44" width="6.92" height="6.82" transform="translate(358.89 -626.84) rotate(53.6)"/><rect class="cls-4" x="113.39" y="74.44" width="6.92" height="6.82" transform="translate(110.16 -62.4) rotate(53.6)"/><rect class="cls-5" x="329.7" y="199.89" width="10.18" height="10.04" transform="translate(-18.68 34.24) rotate(-5.7)"/><path class="cls-6" d="M1405.12-21a63.75,63.75,0,0,0,9.62-27.88c1.25-13.31-1.55-29-19.43-35-16.7-5.58-28.69-.2-36.51,6.58A41.86,41.86,0,0,0,1346-56.53c-4.09,15.18-18.65,52.21-57.36,14.42-4.19-7.66-11.06-21-16.89-32.52-14.41-28.36-51.64-36.14-75.85-15.5l-1.12,1c-35.73,31.54-1.67,69.24,4.31,69.95s27.93,19.88,5,36.42c-27.51,8.84-111.82,31.81-103,115s96.74,94.24,116.23,83.34,15.23-21.32,18-54.05,43.09-79.16,74.83-45A104.1,104.1,0,0,1,1330.54,158s22,78.69,80.25,57c30.79-11.46,39-33.78,39.93-52.28a67.48,67.48,0,0,0-10.55-39.28c-11.88-18.85-31.71-59,21.5-50.8,69,10.67,81.38,8.84,91-34.65s-45-70.42-83.83-54.67c-25.6,11.27-32.57,28.07-48.15,33.92C1420.68,17.23,1374.3,27.89,1405.12-21Z"/><path class="cls-7" d="M1404.78-16.07a59.25,59.25,0,0,0,8-26.23c.73-12.41-2.38-26.93-19.2-31.9-15.69-4.65-26.66.75-33.71,7.3a38.9,38.9,0,0,0-11.22,19.74c-3.31,14.24-15.64,49.13-52.85,15.26-4.14-7-11-19.2-16.75-29.67-14.31-25.89-49.17-31.91-71-11.95l-1,.94c-32.19,30.48.69,64.41,6.27,64.88S1240,9.86,1219.19,26c-25.28,9.11-102.9,33.2-92,110.21s93,84.45,110.73,73.69,13.46-20.31,15-50.82,37.48-75,68.09-44.31a96.84,96.84,0,0,1,20.29,38s23,72.41,76.44,50.37c28.24-11.66,35.17-32.67,35.41-49.89A62.78,62.78,0,0,0,1442.05,117c-11.65-17.13-31.39-53.83,18.34-47.91,64.51,7.68,75.92,5.58,83.44-35.16s-44.14-64-79.69-48.09C1440.71-2.82,1434.78,13,1420.49,19,1420.49,19,1377.73,30.39,1404.78-16.07Z"/><path class="cls-8" d="M1404.63-11.47a55.06,55.06,0,0,0,6.62-24.63c.28-11.56-3.09-24.95-18.88-29-14.73-3.81-24.76,1.56-31.1,7.88a36.12,36.12,0,0,0-9.78,18.71c-2.62,13.34-12.94,46.17-48.63,15.9-4.07-6.36-10.81-17.49-16.53-27-14.14-23.6-46.74-28.06-66.38-8.79q-.45.44-.9.9c-28.93,29.37,2.73,59.84,7.93,60.09s25.3,15.47,6.52,31.13c-23.2,9.28-94.56,34.19-82,105.41s89.15,75.47,105.31,64.9,11.85-19.32,12.3-47.73,32.41-70.9,61.85-43.38a90.09,90.09,0,0,1,20.09,34.63s23.72,66.56,72.68,44.34c25.87-11.75,31.62-31.51,31.3-47.52A58.49,58.49,0,0,0,1443.59,111c-11.39-15.54-30.92-49,15.49-45.12,60.2,5,70.74,2.72,76.41-35.38s-43.1-58-75.63-42.12c-21.4,11.27-26.4,26.18-39.49,32.17C1420.37,20.59,1381,32.59,1404.63-11.47Z"/><path class="cls-9" d="M1404.64-7.18A51.1,51.1,0,0,0,1410-30.29c-.11-10.75-3.67-23.09-18.48-26.37-13.83-3.06-23,2.25-28.65,8.33a33.59,33.59,0,0,0-8.49,17.71c-2,12.48-10.53,43.33-44.68,16.36-4-5.78-10.61-15.91-16.24-24.59-13.91-21.48-44.35-24.57-62-6l-.81.87c-25.94,28.24,4.48,55.53,9.32,55.6s24,13.55,7.07,28.71c-21.26,9.38-86.78,34.85-72.75,100.64s85.3,67.25,100,56.9,10.39-18.34,9.89-44.76,27.81-67,56.07-42.33A83.77,83.77,0,0,1,1360,142.29s24.22,61.09,69,38.85c23.67-11.76,28.38-30.31,27.55-45.19a54.36,54.36,0,0,0-11.74-30.53c-11.09-14.08-30.33-44.55,12.93-42.44,56.12,2.73,65.84.23,69.87-35.37S1485.69-24.94,1456-9.08c-19.53,11.17-23.69,25.19-35.66,31.18C1420.31,22.1,1384.11,34.54,1404.64-7.18Z"/><path class="cls-6" d="M1404.79-3.2A47.5,47.5,0,0,0,1409-24.85c-.45-10-4.16-21.34-18-23.91-13-2.4-21.27,2.84-26.36,8.68a31.23,31.23,0,0,0-7.32,16.73c-1.45,11.67-8.38,40.61-41,16.65-3.9-5.24-10.38-14.44-15.89-22.33-13.63-19.51-42-21.39-57.81-3.58l-.72.83c-23.19,27.09,6,51.46,10.47,51.37s22.76,11.82,7.5,26.46c-19.46,9.41-79.52,35.2-64.35,95.9s81.47,59.74,94.77,49.64,9.06-17.39,7.74-41.92,23.68-63.13,50.74-41.17a77.89,77.89,0,0,1,19.42,28.67s24.49,56,65.38,33.87c21.62-11.7,25.39-29.09,24.14-42.89a50.48,50.48,0,0,0-11.9-28c-10.77-12.72-29.64-40.42,10.64-39.87,52.24.72,61.2-1.92,63.79-35.13s-40.69-47.48-67.8-31.78c-17.78,11-21.2,24.19-32.13,30.14C1420.3,23.51,1387.06,36.24,1404.79-3.2Z"/><path class="cls-7" d="M1405.06.5a44.24,44.24,0,0,0,3.22-20.27c-.75-9.26-4.57-19.7-17.54-21.63-12.11-1.81-19.68,3.33-24.22,8.92a29.09,29.09,0,0,0-6.25,15.79c-1,10.89-6.47,38-37.56,16.81-3.8-4.75-10.12-13.09-15.5-20.24-13.3-17.69-39.75-18.52-53.84-1.46-.22.26-.43.53-.65.8-20.67,25.93,7.22,47.64,11.4,47.41S1285.66,36.87,1272,51c-17.78,9.38-72.76,35.31-56.7,91.22s77.66,52.88,89.7,43.06,7.86-16.44,5.83-39.21,20-59.44,45.83-39.9a72.35,72.35,0,0,1,19,26s24.57,51.25,61.87,29.36c19.71-11.58,22.65-27.86,21-40.65a47.06,47.06,0,0,0-12-25.64c-10.41-11.47-28.85-36.6,8.6-37.39,48.58-1,56.82-3.78,58.15-34.73s-39.36-42.81-64-27.33c-16.18,10.81-18.92,23.16-28.89,29.05C1420.34,24.82,1389.86,37.73,1405.06.5Z"/><path class="cls-8" d="M1405.43,3.92A41.09,41.09,0,0,0,1407.76-15c-1-8.59-4.88-18.16-17-19.54-11.32-1.29-18.18,3.73-22.22,9.08a27,27,0,0,0-5.3,14.87c-.55,10.16-4.78,35.55-34.37,16.85C1325.19,2,1319-5.59,1313.81-12.06c-12.93-16-37.54-15.93-50.08.39-.2.25-.39.51-.58.76-18.37,24.77,8.26,44.05,12.13,43.7s20.35,8.82,8.07,22.37c-16.22,9.29-66.48,35.17-49.74,86.62s73.9,46.63,84.77,37.11,6.77-15.54,4.15-36.63,16.62-55.9,41.29-38.58a67.42,67.42,0,0,1,18.49,23.57s24.5,46.83,58.45,25.27c18-11.39,20.15-26.63,18.24-38.46a43.71,43.71,0,0,0-12-23.44c-10-10.33-28-33.08,6.78-35,45.12-2.53,52.68-5.35,52.92-34.16s-38-38.51-60.41-23.33c-14.69,10.58-16.84,22.15-25.91,28C1420.42,26,1392.51,39,1405.43,3.92Z"/><path class="cls-9" d="M1405.88,7.1a38.42,38.42,0,0,0,1.56-17.68c-1.21-8-5.13-16.72-16.44-17.61-10.56-.82-16.78,4.06-20.36,9.16a25.13,25.13,0,0,0-4.44,14c-.18,9.46-3.29,33.19-31.39,16.77-3.56-3.86-9.52-10.68-14.6-16.53-12.54-14.46-35.41-13.58-46.54,2l-.51.73c-16.27,23.62,9.1,40.67,12.7,40.22s19.2,7.53,8.22,20.53c-14.77,9.16-60.65,34.85-43.41,82.12s70.19,40.94,80,31.75,5.79-14.67,2.67-34.19,13.63-52.49,37.13-37.19a62.72,62.72,0,0,1,18,21.3s24.29,42.73,55.15,21.59c16.31-11.17,17.86-25.4,15.7-36.34a40.61,40.61,0,0,0-11.88-21.39c-9.68-9.28-27.1-29.85,5.16-32.79,41.86-3.82,48.8-6.68,48.08-33.47S1464.07-14.49,1443.7.35c-13.3,10.31-14.92,21.13-23.17,26.81C1420.53,27.16,1395,40.14,1405.88,7.1Z"/><path class="cls-6" d="M1406.4,10a35.63,35.63,0,0,0,.88-16.48c-1.38-7.35-5.31-15.37-15.85-15.83-9.84-.43-15.46,4.32-18.62,9.17A23.35,23.35,0,0,0,1369.13.05c.14,8.79-2,31-28.63,16.6-3.44-3.47-9.2-9.61-14.1-14.88a27.61,27.61,0,0,0-43.19,3.36c-.16.23-.31.46-.46.69-14.35,22.48,9.78,37.5,13.11,37s18.09,6.38,8.31,18.81c-13.43,9-55.24,34.36-37.69,77.74s66.57,35.77,75.38,26.91,4.9-13.82,1.36-31.86,11-49.23,33.31-35.78a58.27,58.27,0,0,1,17.37,19.22s24,38.93,52,18.28c14.79-10.92,15.78-24.19,13.41-34.28a37.85,37.85,0,0,0-11.73-19.51c-9.3-8.3-26.16-26.85,3.73-30.64,38.78-4.9,45.14-7.79,43.6-32.67s-35.08-30.93-53.53-16.47c-12,10-13.19,20.12-20.67,25.67C1420.67,28.21,1397.37,41.1,1406.4,10Z"/><path class="cls-7" d="M1407,12.74a33,33,0,0,0,.27-15.34c-1.52-6.79-5.43-14.12-15.24-14.2-9.16-.08-14.23,4.51-17,9.13a21.74,21.74,0,0,0-3,12.34c.41,8.17-.84,28.84-26.08,16.37-3.3-3.12-8.85-8.64-13.58-13.38a25.69,25.69,0,0,0-40,4.52l-.39.66c-12.62,21.36,10.3,34.54,13.38,33.93s17,5.35,8.33,17.22c-12.19,8.8-50.23,33.73-32.5,73.48s63,31.09,70.93,22.56,4.1-13,.23-29.66,8.6-46.11,29.79-34.33a54.15,54.15,0,0,1,16.77,17.3s23.54,35.4,48.89,15.3c13.4-10.62,13.88-23,11.35-32.3a35.06,35.06,0,0,0-11.53-17.74c-8.92-7.42-25.19-24.11,2.47-28.6,35.88-5.82,41.7-8.71,39.46-31.78s-33.61-27.61-50.29-13.58c-10.85,9.69-11.6,19.13-18.37,24.53C1420.84,29.17,1399.6,41.91,1407,12.74Z"/><path class="cls-8" d="M1407.62,15.24A30.86,30.86,0,0,0,1407.38,1c-1.64-6.26-5.51-12.94-14.64-12.7-8.51.22-13.07,4.66-15.51,9a20.28,20.28,0,0,0-2.38,11.57c.65,7.58.16,26.83-23.7,16-3.17-2.79-8.51-7.74-13.06-12A23.88,23.88,0,0,0,1301,18.45c-.12.2-.24.41-.35.62-11,20.26,10.7,31.77,13.54,31.1s16,4.42,8.3,15.74c-11,8.57-45.59,33-27.83,69.34s59.6,26.85,66.66,18.67,3.4-12.22-.74-27.57,6.49-43.14,26.57-32.88A50.44,50.44,0,0,1,1403.33,109s23,32.15,45.93,12.64c12.11-10.31,12.16-21.82,9.51-30.39a32.65,32.65,0,0,0-11.3-16.11c-8.52-6.61-24.19-21.6,1.37-26.67,33.16-6.57,38.47-9.45,35.65-30.82s-32.14-24.57-47.18-11c-9.78,9.36-10.17,18.15-16.29,23.39C1421,30.06,1401.7,42.59,1407.62,15.24Z"/><path class="cls-9" d="M1408.28,17.55a28.6,28.6,0,0,0-.68-13.26c-1.72-5.76-5.54-11.85-14-11.33-7.91.49-12,4.75-14.13,8.9a18.83,18.83,0,0,0-1.84,10.83c.86,7,1,24.94-21.5,15.7-3-2.5-8.17-6.92-12.53-10.73A22.22,22.22,0,0,0,1309.32,24l-.3.6c-9.6,19.19,11,29.17,13.59,28.46s15,3.59,8.23,14.36c-10,8.32-41.3,32.13-23.62,65.35s56.27,23,62.56,15.19,2.76-11.47-1.58-25.6,4.63-40.3,23.63-31.42a46.81,46.81,0,0,1,15.51,13.91s22.45,29.13,43.1,10.26c10.92-10,10.59-20.68,7.85-28.56a30.41,30.41,0,0,0-11-14.61c-8.14-5.86-23.19-19.29.41-24.83,30.6-7.18,35.45-10,32.13-29.8S1449.14-4.5,1435.6,8.61c-8.78,9-8.86,17.21-14.37,22.28C1421.23,30.89,1403.67,43.16,1408.28,17.55Z"/><path class="cls-6" d="M1409,19.67a26.71,26.71,0,0,0-1.07-12.3c-1.79-5.3-5.53-10.84-13.39-10.08-7.33.71-11,4.81-12.84,8.73a17.54,17.54,0,0,0-1.36,10.13c1,6.5,1.76,23.14-19.48,15.28-2.9-2.21-7.81-6.16-12-9.56a20.67,20.67,0,0,0-31.65,7c-.08.19-.17.37-.26.56-8.29,18.15,11.15,26.76,13.56,26s14.06,2.84,8.12,13.07c-9,8.06-37.35,31.21-19.83,61.51s53,19.57,58.64,12.09,2.19-10.75-2.31-23.75,3-37.6,21-30a43.62,43.62,0,0,1,14.87,12.42s21.8,26.35,40.39,8.13c9.82-9.62,9.17-19.56,6.37-26.79A28.27,28.27,0,0,0,1447,68.94c-7.75-5.19-22.17-17.17-.42-23.09,28.21-7.67,32.62-10.47,28.89-28.74s-29.2-19.26-41.36-6.63c-7.87,8.66-7.68,16.27-12.64,21.16C1421.44,31.64,1405.52,43.62,1409,19.67Z"/><path class="cls-7" d="M1409.69,21.62a24.83,24.83,0,0,0-1.39-11.4c-1.83-4.87-5.5-9.89-12.77-8.93-6.8.89-10.07,4.82-11.65,8.53a16.2,16.2,0,0,0-.93,9.46c1.15,6,2.38,21.45-17.61,14.83-2.78-2-7.47-5.47-11.46-8.49a19.22,19.22,0,0,0-29.19,7.52c-.07.17-.15.35-.22.53-7.12,17.13,11.23,24.51,13.44,23.74s13.17,2.19,8,11.89c-8.12,7.78-33.7,30.21-16.43,57.81s49.93,16.47,54.89,9.33,1.69-10.06-2.91-22,1.57-35.06,18.49-28.54A40.58,40.58,0,0,1,1414.15,97s21.12,23.78,37.8,6.25c8.82-9.27,7.89-18.48,5-25.11a26.29,26.29,0,0,0-10.39-12c-7.38-4.56-21.17-15.24-1.15-21.44,26-8,30-10.79,25.93-27.65s-27.78-16.95-38.67-4.82c-7,8.31-6.6,15.38-11.06,20.08C1421.66,32.34,1407.26,44,1409.69,21.62Z"/><path class="cls-8" d="M1410.42,23.4a23,23,0,0,0-1.67-10.54c-1.86-4.47-5.42-9-12.16-7.89-6.28,1-9.2,4.81-10.55,8.31a15.17,15.17,0,0,0-.56,8.82c1.28,5.55,2.92,19.86-15.88,14.36-2.64-1.74-7.11-4.85-10.93-7.53a17.87,17.87,0,0,0-26.88,7.94c-.06.17-.13.33-.19.5-6.06,16.16,11.23,22.42,13.26,21.63s12.31,1.61,7.8,10.79c-7.3,7.5-30.34,29.18-13.4,54.27s46.94,13.68,51.32,6.89,1.25-9.41-3.42-20.35.32-32.63,16.27-27.12A37.62,37.62,0,0,1,1417,93.3s20.41,21.42,35.35,4.58c7.89-8.9,6.73-17.43,3.87-23.5a24.42,24.42,0,0,0-10-10.76c-7-4-20.16-13.48-1.76-19.89,23.89-8.33,27.52-11,23.2-26.55S1441.25,2.33,1431.52,14c-6.27,8-5.64,14.51-9.63,19C1421.89,33,1408.88,44.28,1410.42,23.4Z"/><path class="cls-9" d="M1411.15,25a21.38,21.38,0,0,0-1.89-9.75c-1.87-4.09-5.34-8.2-11.56-6.94a12,12,0,0,0-9.53,8.07,14,14,0,0,0-.24,8.22c1.37,5.11,3.36,18.36-14.29,13.86-2.51-1.53-6.77-4.28-10.4-6.64a16.62,16.62,0,0,0-24.73,8.25c0,.15-.11.31-.16.47-5.11,15.21,11.17,20.47,13,19.67s11.49,1.1,7.59,9.78c-6.53,7.21-27.25,28.1-10.69,50.87s44.08,11.19,47.93,4.74.85-8.78-3.84-18.8-.77-30.34,14.23-25.74a35.16,35.16,0,0,1,12.94,8.69s19.66,19.24,33,3.11c7-8.52,5.69-16.42,2.84-22a22.72,22.72,0,0,0-9.69-9.67c-6.64-3.5-19.18-11.87-2.28-18.43,21.92-8.51,25.22-11.13,20.7-25.43s-25-12.95-33.65-1.82c-5.57,7.59-4.77,13.66-8.33,18C1422.13,33.57,1410.4,44.49,1411.15,25Z"/><path class="cls-6" d="M1411.89,26.54a19.91,19.91,0,0,0-2.08-9c-1.87-3.74-5.22-7.45-11-6.07a11.11,11.11,0,0,0-8.61,7.8,13.2,13.2,0,0,0,0,7.65c1.44,4.71,3.72,16.95-12.84,13.35-2.38-1.35-6.42-3.76-9.88-5.84a15.45,15.45,0,0,0-22.71,8.47l-.14.44c-4.25,14.31,11,18.67,12.76,17.87s10.71.64,7.37,8.84c-5.84,6.91-24.42,27-8.28,47.62s41.32,9,44.69,2.85.51-8.19-4.18-17.35-1.69-28.17,12.4-24.38a32.7,32.7,0,0,1,12.31,7.66s18.89,17.24,30.76,1.82c6.28-8.15,4.76-15.45,1.93-20.51a21.1,21.1,0,0,0-9.32-8.68c-6.28-3-18.21-10.41-2.72-17.06,20.11-8.62,23.08-11.15,18.42-24.3s-23.65-11.23-31.34-.6c-4.93,7.23-4,12.85-7.16,17C1422.36,34.11,1411.82,44.64,1411.89,26.54Z"/><path class="cls-7" d="M1412.62,27.91a18.49,18.49,0,0,0-2.22-8.3c-1.86-3.42-5.1-6.76-10.39-5.29a10.32,10.32,0,0,0-7.74,7.54,12.2,12.2,0,0,0,.29,7.1c1.49,4.33,4,15.64-11.5,12.82-2.26-1.17-6.1-3.28-9.37-5.1a14.38,14.38,0,0,0-20.84,8.61c0,.14-.07.28-.11.42-3.49,13.43,10.87,17,12.43,16.18s10,.25,7.14,8c-5.2,6.61-21.81,25.89-6.15,44.54s38.7,7,41.63,1.19.21-7.63-4.44-16-2.49-26.12,10.72-23.06a30.33,30.33,0,0,1,11.69,6.72s18.13,15.41,28.66.69c5.57-7.78,3.92-14.51,1.13-19.12a19.72,19.72,0,0,0-9-7.77c-5.94-2.61-17.26-9.09-3.08-15.77,18.41-8.66,21.09-11.11,16.33-23.18s-22.34-9.66-29.15.46c-4.34,6.88-3.29,12.08-6.1,16C1422.6,34.61,1413.14,44.73,1412.62,27.91Z"/><path class="cls-8" d="M1413.34,29.15a17.34,17.34,0,0,0-2.33-7.64c-1.84-3.11-5-6.11-9.83-4.57a9.61,9.61,0,0,0-7,7.25,11.26,11.26,0,0,0,.51,6.59c1.52,4,4.22,14.41-10.28,12.3-2.13-1-5.77-2.86-8.87-4.44a13.37,13.37,0,0,0-19.09,8.68l-.09.39c-2.81,12.6,10.65,15.43,12.08,14.64s9.28-.09,6.89,7.18c-4.62,6.31-19.43,24.77-4.27,41.59s36.2,5.25,38.73-.24,0-7.09-4.65-14.71S1402,72,1414.42,74.38a28.27,28.27,0,0,1,11.08,5.87S1442.84,94,1452.15,80c4.93-7.41,3.18-13.61.43-17.81a18.27,18.27,0,0,0-8.56-6.93c-5.61-2.24-16.35-7.88-3.38-14.55,16.83-8.65,19.24-11,14.42-22.08S1434,10.33,1428,20c-3.82,6.54-2.67,11.33-5.15,15.1C1422.84,35.06,1414.38,44.78,1413.34,29.15Z"/><path class="cls-9" d="M1414.06,30.29a16.09,16.09,0,0,0-2.42-7c-1.81-2.84-4.81-5.53-9.28-3.94a8.93,8.93,0,0,0-6.23,7,10.51,10.51,0,0,0,.69,6.11c1.54,3.65,4.39,13.25-9.15,11.76-2-.88-5.46-2.47-8.4-3.84A12.44,12.44,0,0,0,1361.81,49c0,.12,0,.24-.07.36-2.2,11.8,10.41,14,11.7,13.22s8.63-.39,6.65,6.45c-4.09,6-17.26,23.65-2.63,38.8s33.82,3.7,36-1.48-.29-6.6-4.8-13.53-3.73-22.39,7.86-20.55A26.24,26.24,0,0,1,1427,77.38s16.57,12.21,24.77-1.13c4.33-7,2.5-12.75-.18-16.57a17.14,17.14,0,0,0-8.19-6.16c-5.28-1.89-15.44-6.79-3.61-13.41,15.36-8.59,17.52-10.87,12.69-21s-19.86-7-25.12,2.15c-3.33,6.21-2.11,10.62-4.3,14.2C1423.07,35.47,1415.52,44.78,1414.06,30.29Z"/><path class="cls-6" d="M1414.76,31.32a14.91,14.91,0,0,0-2.48-6.45c-1.77-2.57-4.64-5-8.75-3.35a8.29,8.29,0,0,0-5.56,6.67,9.76,9.76,0,0,0,.83,5.66c1.55,3.34,4.52,12.18-8.12,11.23-1.91-.75-5.15-2.12-7.93-3.3a11.56,11.56,0,0,0-15.94,8.64l-.06.34c-1.66,11.05,10.13,12.68,11.31,11.91s8-.64,6.38,5.78c-3.6,5.73-15.27,22.54-1.18,36.14s31.55,2.35,33.41-2.54-.48-6.12-4.9-12.42-4.19-20.69,6.64-19.35a24.52,24.52,0,0,1,9.92,4.39s15.79,10.81,23-1.85c3.8-6.69,1.91-11.94-.71-15.4a15.84,15.84,0,0,0-7.81-5.46c-5-1.59-14.57-5.81-3.79-12.35,14-8.48,15.94-10.66,11.11-19.92s-18.68-5.85-23.27,2.82c-2.9,5.87-1.62,9.94-3.53,13.33C1423.31,35.84,1416.59,44.74,1414.76,31.32Z"/><path class="cls-6" d="M-10.55-23.45A63.76,63.76,0,0,0-4.32-52.28c-.33-13.36-5-28.64-23.45-32.45C-45-88.28-56.27-81.51-63.23-73.85A41.8,41.8,0,0,0-73.47-51.69c-2.26,15.56-12.31,54.05-55.25,21.14-5.06-7.12-13.48-19.59-20.62-30.29C-167-87.28-204.92-90.58-226.5-67.22l-1,1.1c-31.74,35.57,6.56,68.94,12.58,68.94s30.1,16.42,9.3,35.57c-26.26,12-107.25,44.87-88.64,126.4s107.25,82.08,125.31,69,12.58-23,11.49-55.81,33.38-83.72,68.94-53.63a104,104,0,0,1,25.17,38.85s31.19,75.52,86.46,47.06c29.21-15,34.73-38.18,33.44-56.66A67.54,67.54,0,0,0,41.41,115.8c-14-17.3-38.49-54.83,15.32-53,69.81,2.39,81.85-.89,86.23-45.21S89.88-47,53.22-26.72C29.14-12.5,24.22,5,9.44,12.67,9.44,12.67-35.34,28.77-10.55-23.45Z"/><path class="cls-7" d="M-10.3-18.5a59.09,59.09,0,0,0,4.86-27C-6.18-57.91-11-71.95-28.29-74.9-44.42-77.64-54.68-71-60.9-63.64a38.89,38.89,0,0,0-8.79,20.93c-1.6,14.53-9.69,50.64-50.66,21.44-4.94-6.45-13.17-17.77-20.16-27.48-17.29-24-52.62-25.84-71.92-3.42-.29.34-.59.69-.88,1.05C-241.66-17-205,12.75-199.38,12.55s28.51,14.28,9.8,32.76c-24,12-98.22,45.18-78.29,120.36s102.35,72.8,118.71,60,10.95-21.77,8.86-52.25S-112,94.54-77.95,121.35a96.88,96.88,0,0,1,24.65,35.3s31.44,69.17,81.88,40.93c26.67-14.93,31-36.62,29.24-53.75a62.79,62.79,0,0,0-15.3-34.59C28.91,93.61,5,59.52,55,59.49c65,0,76-3.49,78.67-44.82S82.28-43.62,48.87-23.61C27-9.61,22.94,6.82,9.46,14.42,9.46,14.42-31.64,30.84-10.3-18.5Z"/><path class="cls-8" d="M-9.9-13.91A55,55,0,0,0-6.26-39.16c-1.09-11.51-6-24.41-22.19-26.58-15.09-2-24.4,4.49-29.94,11.52a36.22,36.22,0,0,0-7.5,19.74c-1,13.56-7.36,47.38-46.39,21.57-4.8-5.83-12.81-16.09-19.62-24.88-16.85-21.76-49.75-22.32-67-.85-.26.33-.53.66-.79,1-25.24,32.6,9.83,59.09,15,58.73s27,12.35,10.17,30.12c-21.93,12-89.83,45.19-68.86,114.41S-145.83,230-131,217.55s9.47-20.59,6.55-48.85,23.74-74.25,56.25-50.43a90.08,90.08,0,0,1,24.06,32s31.46,63.27,77.43,35.39c24.3-14.74,27.66-35,25.43-50.9A58.43,58.43,0,0,0,43.34,103.1c-13.16-14.08-36.52-45,10-46.64,60.37-2.15,70.56-5.71,71.66-44.22s-49.69-52.5-80.1-32.82C25-6.86,21.82,8.55,9.53,16.05,9.53,16.05-28.13,32.64-9.9-13.91Z"/><path class="cls-9" d="M-9.38-9.66A51.11,51.11,0,0,0-6.82-33.24c-1.39-10.66-6.39-22.49-21.48-24-14.09-1.39-22.54,5-27.46,11.68A33.64,33.64,0,0,0-62.08-27c-.5,12.64-5.31,44.28-42.42,21.55-4.65-5.26-12.43-14.53-19-22.49-16.36-19.67-47-19.12-62.26,1.39-.23.31-.47.63-.7,1-22.4,31.12,11,54.6,15.86,54.09s25.46,10.6,10.44,27.67c-20,11.84-82,44.91-60.29,108.57s92.7,56.64,106,44.62,8.13-19.44,4.5-45.61S-90.3,94-59.32,115.09a83.84,83.84,0,0,1,23.41,29s31.29,57.79,73.11,30.38c22.11-14.49,24.57-33.46,22-48.14A54.32,54.32,0,0,0,43.9,97.37C31.22,84.71,8.49,56.74,51.7,53.69c56-3.95,65.4-7.59,65.17-43.42S69-36.92,41.36-17.64C23.29-4.23,20.83,10.19,9.65,17.56,9.65,17.56-24.82,34.2-9.38-9.66Z"/><path class="cls-6" d="M-8.76-5.72a47.73,47.73,0,0,0,1.62-22c-1.64-9.86-6.67-20.69-20.75-21.59C-41-50.16-48.67-44-53-37.57a31.27,31.27,0,0,0-5.28,17.48C-58.36-8.33-61.8,21.23-97,1.32c-4.49-4.74-12-13.11-18.44-20.29-15.84-17.75-44.26-16.25-57.81,3.31l-.63.91c-19.8,29.66,12,50.39,16.5,49.77s24,9,10.6,25.38c-18.2,11.65-74.78,44.4-52.51,102.86s88,49.64,100,38,6.93-18.34,2.71-42.54,16-65.5,45.49-46.9A77.92,77.92,0,0,1-28.43,138s31,52.7,68.94,25.86c20.07-14.18,21.75-31.9,18.87-45.45A50.55,50.55,0,0,0,44.23,92C32,80.67,10,55.41,50.06,51.18c52-5.5,60.54-9.19,59.17-42.47s-46-42.31-71.09-23.49C21.78-1.74,20,11.74,9.81,19,9.81,19-21.68,35.55-8.76-5.72Z"/><path class="cls-7" d="M-8.06-2.08a44.19,44.19,0,0,0,.79-20.51c-1.84-9.11-6.87-19-20-19.39-12.24-.36-19.14,5.64-23,11.73a29.08,29.08,0,0,0-4.33,16.42c.33,10.93-1.91,38.52-35.3,21.16-4.33-4.27-11.6-11.79-17.79-18.26C-123-26.91-149.33-24.6-161.29-6c-.19.29-.37.58-.55.87-17.45,28.2,12.83,46.44,17,45.72s22.6,7.61,10.67,23.24c-16.54,11.42-68.06,43.7-45.46,97.31s83.39,43.28,94.18,32.1,5.84-17.27,1.13-39.63,12.75-61.39,40.76-45.07a72.51,72.51,0,0,1,21.93,23.58s30.5,48,64.92,21.8c18.2-13.84,19.18-30.36,16.07-42.86a47,47,0,0,0-14.94-24c-11.71-10.16-33-32.92,4.09-38.16,48.12-6.79,56-10.5,53.62-41.39S57.91-30.33,35.24-12C20.46.63,19.2,13.22,10,20.25,10,20.25-18.73,36.69-8.06-2.08Z"/><path class="cls-8" d="M-7.28,1.28a41.32,41.32,0,0,0,.07-19.09c-2-8.41-7-17.45-19.21-17.38-11.39.07-17.61,5.87-21,11.66a27,27,0,0,0-3.5,15.4C-50.24,2-51.42,27.73-83,12.68-87.18,8.86-94.18,2.09-100.15-3.71c-14.74-14.36-39.17-11.35-49.68,6.34l-.48.82c-15.3,26.78,13.43,42.75,17.24,41.94s21.25,6.35,10.67,21.26c-15,11.15-61.84,42.83-39.1,91.92s78.91,37.52,88.58,26.78,4.87-16.24-.24-36.87S-63.3,91-36.74,105.27a67.39,67.39,0,0,1,21.16,21.2s29.89,43.59,61,18.15C61.92,131.17,62.3,115.79,59,104.27A43.8,43.8,0,0,0,44.34,82.41C33.13,73.35,12.6,52.89,46.9,46.82,91.4,38.94,98.58,35.24,95.39,6.61s-42.28-33.73-62.76-16c-13.32,12.24-14.08,24-22.4,30.82C10.23,21.45-15.94,37.66-7.28,1.28Z"/><path class="cls-9" d="M-6.46,4.37A38.23,38.23,0,0,0-7-13.36c-2.14-7.76-7.08-16-18.42-15.53-10.58.43-16.17,6-19.12,11.51A25.1,25.1,0,0,0-47.3-3c.95,9.42.68,33.36-29.18,20.39C-80.47,14-87.2,8-92.93,2.75c-14.17-12.87-36.77-9.28-46,7.51l-.42.78c-13.35,25.39,13.87,39.3,17.38,38.42s20,5.2,10.61,19.41c-13.58,10.85-56.08,41.81-33.35,86.7s74.56,32.31,83.19,22,4-15.25-1.42-34.26,7.3-53.74,32.45-41.35a62.7,62.7,0,0,1,20.35,19s29.2,39.55,57.33,14.89c14.86-13,14.71-27.35,11.27-37.95A40.65,40.65,0,0,0,44.15,78.11C33.44,70.05,13.7,51.7,45.38,44.94,86.49,36.18,93,32.51,89.14,6S48.76-24,30.3-6.82C18.31,5,18,15.93,10.48,22.55,10.48,22.55-13.32,38.47-6.46,4.37Z"/><path class="cls-6" d="M-5.59,7.23A35.59,35.59,0,0,0-6.68-9.24c-2.24-7.14-7.1-14.64-17.62-13.84-9.82.75-14.83,6.13-17.4,11.32a23.41,23.41,0,0,0-2.08,13.5c1.18,8.72,1.71,31-26.46,19.89-3.82-3-10.27-8.46-15.77-13.11A27.62,27.62,0,0,0-128.5,17l-.36.74c-11.59,24,14.17,36.08,17.4,35.15s18.72,4.19,10.49,17.7c-12.27,10.52-50.77,40.68-28.18,81.66s70.35,27.61,78,17.76,3.23-14.3-2.42-31.79,5-50.19,28.81-39.48a58.25,58.25,0,0,1,19.53,17s28.43,35.81,53.77,12c13.39-12.6,12.79-25.89,9.24-35.63a37.72,37.72,0,0,0-14-18C33.63,67,14.68,50.56,43.91,43.25,81.83,33.77,87.8,30.15,83.32,5.63s-38.51-26.55-55.11-10C17.45,7,17.51,17.17,10.74,23.57,10.74,23.57-10.86,39.14-5.59,7.23Z"/><path class="cls-7" d="M-4.69,9.85A33.11,33.11,0,0,0-6.23-5.42C-8.55-12-13.31-18.79-23.06-17.71c-9.1,1-13.59,6.17-15.8,11.09A21.71,21.71,0,0,0-40.37,6c1.39,8.06,2.6,28.73-23.94,19.35-3.65-2.71-9.82-7.53-15.08-11.68a25.68,25.68,0,0,0-39.21,9.26c-.11.23-.22.46-.32.7-10,22.7,14.34,33.06,17.32,32.1S-84.07,59-91.28,71.82c-11.06,10.19-45.87,39.46-23.55,76.82s66.29,23.38,73.11,14,2.53-13.39-3.29-29.47,3.06-46.8,25.5-37.63A54.19,54.19,0,0,1-.8,110.69s27.58,32.36,50.36,9.39c12-12.14,11-24.48,7.44-33.42A35.23,35.23,0,0,0,43.43,70.41c-9.73-6.3-27.87-20.95-.94-28.69,34.94-10,40.37-13.6,35.4-36.24S41.24-17.94,26.35-2C16.72,8.89,17.1,18.35,11,24.51,11,24.51-8.55,39.68-4.69,9.85Z"/><path class="cls-8" d="M-3.76,12.26A30.89,30.89,0,0,0-5.7-1.89c-2.36-6-7-12.2-16-10.87-8.42,1.23-12.43,6.18-14.32,10.81A20.19,20.19,0,0,0-37,9.83c1.55,7.45,3.35,26.62-21.63,18.76-3.48-2.4-9.37-6.68-14.39-10.36a23.89,23.89,0,0,0-36.15,9.87l-.27.66C-118,50.19-95.09,59-92.35,58s16.4,2.49,10.11,14.64c-10,9.82-41.34,38.16-19.39,72.16s62.37,19.58,68.4,10.61,1.92-12.53-4-27.28,1.32-43.6,22.48-35.8a50.38,50.38,0,0,1,17.88,13.5S29.81,135,50.23,113c10.8-11.67,9.47-23.11,5.83-31.3A32.65,32.65,0,0,0,42.92,67c-9.25-5.55-26.58-18.57-1.8-26.64,32.14-10.47,37.07-14,31.73-34.84S38-15.06,24.7.21c-8.6,10.46-7.94,19.24-13.39,25.17C11.31,25.38-6.39,40.11-3.76,12.26Z"/><path class="cls-9" d="M-2.83,14.46A28.48,28.48,0,0,0-5.09,1.38C-7.48-4.14-12-9.73-20.34-8.2c-7.8,1.42-11.36,6.14-13,10.51a18.86,18.86,0,0,0-.54,11c1.68,6.87,4,24.63-19.49,18.13-3.31-2.11-8.93-5.9-13.71-9.16a22.22,22.22,0,0,0-33.28,10.35l-.23.63c-7.25,20.19,14.37,27.66,16.88,26.65s15.33,1.77,9.88,13.27C-82.73,82.61-111,110-89.48,140.86s58.6,16.17,63.92,7.64,1.37-11.71-4.62-25.23-.19-40.56,19.73-34a46.91,46.91,0,0,1,17.06,12s25.75,26.25,44,5.06C60.28,95.1,58.68,84.51,55,77a30.33,30.33,0,0,0-12.68-13.2C33.56,59,17,47.42,39.8,39.12,69.33,28.35,73.8,25,68.16,5.71s-33-18-44.93-3.36c-7.65,10-6.75,18.13-11.62,23.82C11.61,26.17-4.37,40.44-2.83,14.46Z"/><path class="cls-6" d="M-1.89,16.49A26.68,26.68,0,0,0-4.41,4.4C-6.81-.65-11.19-5.7-18.9-4-26.1-2.44-29.26,2.07-30.61,6.18a17.45,17.45,0,0,0-.14,10.22c1.78,6.33,4.49,22.77-17.53,17.49-3.15-1.86-8.49-5.2-13-8.07a20.66,20.66,0,0,0-30.59,10.7l-.19.58c-6.08,19,14.25,25.25,16.55,24.23s14.3,1.15,9.61,12c-8,9.07-33.37,35.41-12.37,63.42s55,13.13,59.65,5,.9-10.94-5.11-23.3-1.49-37.7,17.24-32.25A43.61,43.61,0,0,1,9.7,96.83s24.78,23.57,41.07,3.28c8.61-10.73,6.78-20.52,3.14-27.36A28.25,28.25,0,0,0,41.7,60.89C33.38,56.66,17.64,46.48,38.53,38c27.1-11,31.15-14.28,25.28-32S32.51-9.61,21.94,4.38c-6.78,9.54-5.68,17.07-10,22.52C11.91,26.9-2.47,40.68-1.89,16.49Z"/><path class="cls-7" d="M-.95,18.33A24.84,24.84,0,0,0-3.68,7.18C-6.08,2.57-10.31-2-17.43-.17c-6.64,1.7-9.42,6-10.55,9.86a16.19,16.19,0,0,0,.2,9.5C-25.92,25-22.86,40.21-43.5,36c-3-1.62-8.06-4.55-12.39-7.07A19.21,19.21,0,0,0-84,39.88c-.06.18-.11.36-.17.55-5,17.86,14.07,23,16.17,22s13.34.61,9.33,10.86c-7.14,8.7-29.87,34-9.45,59.36s51.54,10.41,55.61,2.74.49-10.19-5.5-21.49-2.61-35,15-30.53a40.57,40.57,0,0,1,15.44,9.29s23.8,21.1,38.28,1.72c7.66-10.25,5.64-19.29,2-25.54A26.33,26.33,0,0,0,41,58.19C33.14,54.53,18.17,45.57,37.32,37,62.15,26,65.8,22.76,59.77,6.5S30.18-7,20.81,6.31c-6,9.08-4.73,16.05-8.6,21.25C12.21,27.56-.71,40.84-.95,18.33Z"/><path class="cls-8" d="M0,20A23.13,23.13,0,0,0-2.92,9.75c-2.38-4.22-6.46-8.31-13-6.39C-22,5.15-24.5,9.23-25.42,12.87a15.18,15.18,0,0,0,.49,8.82C-23,27.05-19.67,41.06-39,37.84c-2.83-1.42-7.64-4-11.74-6.18A17.87,17.87,0,0,0-76.48,42.74c0,.17-.09.34-.13.52C-80.71,60-62.8,64.18-60.87,63.16s12.41.13,9,9.79c-6.35,8.31-26.66,32.57-6.86,55.47s48.24,8,51.78.74.12-9.49-5.81-19.79S-16.3,76.93.18,80.5a37.61,37.61,0,0,1,14.65,8.15s22.81,18.83,35.64.34c6.78-9.77,4.61-18.1,1.06-23.79a24.48,24.48,0,0,0-11.26-9.49c-7.43-3.15-21.63-11-4.11-19.55C58.88,25.06,62.17,22,56,7.05S28.09-4.57,19.82,8.14c-5.28,8.64-3.88,15.07-7.3,20C12.52,28.17.94,40.93,0,20Z"/><path class="cls-9" d="M.91,21.56a21.52,21.52,0,0,0-3-9.45C-4.47,8.27-8.4,4.59-14.43,6.59c-5.62,1.87-7.77,5.74-8.51,9.14a14.09,14.09,0,0,0,.75,8.19c2,4.92,5.51,17.83-12.55,15.46C-37.42,38.16-42,35.94-45.85,34A16.62,16.62,0,0,0-69.43,45.16c0,.16-.07.32-.1.48-3.27,15.72,13.52,19,15.28,18s11.53-.28,8.7,8.8c-5.64,7.93-23.72,31.14-4.57,51.78S-5,130.09-2,123.22s-.2-8.82-6-18.21S-12.38,75,3.05,77.77a35,35,0,0,1,13.88,7.09S38.74,101.63,50.07,84c6-9.31,3.69-17,.21-22.15a22.71,22.71,0,0,0-10.77-8.46c-7-2.68-20.46-9.51-4.46-18,20.76-11.06,23.72-14,17.53-27.7S26.24-2.2,19,9.87c-4.62,8.2-3.11,14.14-6.13,18.86C12.82,28.73,2.48,41,.91,21.56Z"/><path class="cls-6" d="M1.82,23a19.9,19.9,0,0,0-3.13-8.69c-2.31-3.49-6.08-6.78-11.61-4.72a11.07,11.07,0,0,0-7.61,8.77,13.08,13.08,0,0,0,1,7.58c2,4.51,5.7,16.4-11.16,14.78-2.52-1-6.83-3-10.5-4.62A15.46,15.46,0,0,0-62.79,47.17c0,.15-.06.3-.08.46C-65.4,62.34-49.69,64.85-48.09,63.85s10.72-.64,8.37,7.9c-5,7.56-21,29.71-2.56,48.28s42.1,4,44.71-2.49S2,109.35-3.78,100.81-8.8,73,5.63,75.13a32.68,32.68,0,0,1,13.14,6.14s20.81,14.88,30.76-1.85c5.26-8.84,2.89-15.9-.52-20.59a21.11,21.11,0,0,0-10.29-7.51C32.13,49.05,19.4,43.14,34,34.7,52.93,23.76,55.59,20.89,49.39,8.39S24.58.05,18.21,11.51c-4,7.77-2.44,13.24-5.09,17.73C13.12,29.24,3.9,40.94,1.82,23Z"/><path class="cls-7" d="M2.71,24.23a18.62,18.62,0,0,0-3.19-8c-2.26-3.17-5.87-6.1-10.95-4a10.33,10.33,0,0,0-6.79,8.4,12.16,12.16,0,0,0,1.14,7c2,4.12,5.83,15.06-9.9,14.1-2.38-.89-6.44-2.53-9.91-3.95a14.38,14.38,0,0,0-19.67,11l-.06.43C-58.49,63-43.8,64.83-42.35,63.85s9.94-.93,8,7.08c-4.38,7.18-18.59,28.29-.82,44.95s39.26,2.35,41.48-3.76S5.64,104.52,0,96.77-5.54,71.12,8,72.6a30.31,30.31,0,0,1,12.4,5.28S40.18,91,48.89,75.16c4.6-8.39,2.16-14.87-1.16-19.12a19.63,19.63,0,0,0-9.8-6.65c-6.21-1.89-18.22-7-4.93-15.29,17.24-10.79,19.61-13.54,13.45-25S23.12,2.2,17.57,13.06c-3.5,7.35-1.83,12.38-4.15,16.64C13.42,29.7,5.23,40.88,2.71,24.23Z"/><path class="cls-8" d="M3.57,25.39A17.09,17.09,0,0,0,.35,18.08C-1.85,15.2-5.3,12.6-9.95,14.7a9.59,9.59,0,0,0-6,8,11.31,11.31,0,0,0,1.28,6.48C-12.73,33-8.8,43-23.45,42.64c-2.24-.75-6.07-2.15-9.34-3.35A13.37,13.37,0,0,0-50.71,50.17c0,.13,0,.27,0,.4C-52,63.42-38.34,64.63-37,63.67s9.21-1.19,7.7,6.32c-3.84,6.82-16.35,26.9.7,41.8S8,112.7,9.81,107s-.9-7-6.37-14.06-6-23.65,6.57-22.72a28.09,28.09,0,0,1,11.7,4.5s18.86,11.58,26.44-3.45c4-7.94,1.53-13.89-1.69-17.74a18.39,18.39,0,0,0-9.33-5.86c-5.83-1.55-17.17-5.88-5.08-14C47.72,23,49.84,20.35,43.74,9.94S21.84,4.25,17,14.52c-3,7-1.31,11.57-3.32,15.6C13.71,30.12,6.46,40.77,3.57,25.39Z"/><path class="cls-9" d="M4.42,26.43a16.1,16.1,0,0,0-3.23-6.69c-2.14-2.6-5.43-4.91-9.69-2.8a8.92,8.92,0,0,0-5.35,7.66,10.47,10.47,0,0,0,1.4,6c2,3.44,5.94,12.64-7.69,12.76-2.1-.62-5.71-1.79-8.79-2.81a12.43,12.43,0,0,0-16.3,10.7l0,.37c-.78,12,12,12.67,13.19,11.73s8.52-1.41,7.36,5.62C-28,75.41-39,94.49-22.7,107.78s34-.34,35.56-5.74S11.8,95.52,6.49,89.18.13,67.38,11.86,67.84a26.24,26.24,0,0,1,11,3.81s17.9,10.15,24.45-4.07c3.47-7.51,1-13-2.15-16.43A17,17,0,0,0,36.33,46c-5.47-1.26-16.15-4.91-5.18-12.89,14.23-10.35,16.11-12.87,10.1-22.35S20.7,6.19,16.57,15.89C14,22.45,15.73,26.69,14,30.5,14,30.5,7.6,40.64,4.42,26.43Z"/><path class="cls-6" d="M5.24,27.37A14.85,14.85,0,0,0,2,21.26C-.06,18.91-3.19,16.87-7.08,19a8.32,8.32,0,0,0-4.73,7.29,9.88,9.88,0,0,0,1.5,5.52C-8.37,34.91-4.38,43.33-17,43.89c-2-.51-5.36-1.49-8.26-2.33A11.56,11.56,0,0,0-40.1,52c0,.12,0,.23,0,.35-.34,11.16,11.56,11.38,12.64,10.48s7.87-1.59,7,5c-2.9,6.11-12.49,24.2,3.12,36s31.61-1.42,32.87-6.5-1.2-6-6.34-11.75-6.62-20,4.29-20A24.43,24.43,0,0,1,23.86,68.8s17,8.86,22.6-4.57c3-7.1.48-12.08-2.53-15.2a15.76,15.76,0,0,0-8.4-4.49c-5.13-1-15.17-4-5.23-11.82C43.18,22.64,44.85,20.24,39,11.62S19.72,8,16.19,17.18c-2.18,6.18-.43,10.06-1.93,13.66C14.26,30.84,8.65,40.47,5.24,27.37Z"/><path class="cls-6" d="M418.19,77.5A63.63,63.63,0,0,0,412,106.33c.33,13.36,5,28.64,23.45,32.45,17.24,3.55,28.51-3.22,35.46-10.88a41.73,41.73,0,0,0,10.24-22.16c2.26-15.55,12.32-54,55.25-21.13,5.06,7.11,13.48,19.58,20.63,30.28,17.67,26.45,55.57,29.74,77.15,6.38l1-1.1c31.73-35.56-6.57-68.94-12.59-68.94s-30.1-16.42-9.3-35.57c26.26-12,107.25-44.87,88.64-126.4s-107.25-82.08-125.3-68.95-12.59,23-11.49,55.81-33.38,83.72-69,53.63A104,104,0,0,1,471-109.1s-31.19-75.51-86.46-47.06c-29.21,15-34.73,38.18-33.44,56.66a67.61,67.61,0,0,0,15.15,37.75c14,17.3,38.5,54.83-15.32,53-69.81-2.39-81.85.89-86.22,45.21S317.75,101,354.42,80.77c24.07-14.22,29-31.73,43.77-39.39C398.19,41.38,443,25.28,418.19,77.5Z"/><path class="cls-7" d="M417.93,72.56a59.18,59.18,0,0,0-4.86,27c.74,12.41,5.56,26.45,22.85,29.4,16.13,2.74,26.39-3.92,32.61-11.26a38.89,38.89,0,0,0,8.79-20.93C478.92,82.23,487,46.12,528,75.32c4.94,6.45,13.17,17.77,20.16,27.48,17.29,24,52.62,25.84,71.92,3.42.3-.34.59-.69.89-1C649.29,71.08,612.61,41.3,607,41.5s-28.5-14.28-9.8-32.76c24-12,98.23-45.18,78.29-120.36s-102.35-72.8-118.7-60-11,21.77-8.87,52.25S519.62-40.49,485.59-67.3a96.85,96.85,0,0,1-24.66-35.29s-31.44-69.18-81.88-40.94c-26.66,14.93-31,36.62-29.24,53.75a62.86,62.86,0,0,0,15.3,34.59C378.72-39.56,402.67-5.47,352.6-5.44c-65,0-76.05,3.49-78.68,44.82s51.43,58.29,84.85,38.29c21.91-14,25.92-30.44,39.4-38C398.17,39.63,439.27,23.21,417.93,72.56Z"/><path class="cls-8" d="M417.53,68a55,55,0,0,0-3.64,25.25c1.1,11.51,6,24.41,22.19,26.58,15.09,2,24.4-4.49,29.94-11.52a36.22,36.22,0,0,0,7.5-19.74c1-13.56,7.36-47.38,46.39-21.57,4.8,5.83,12.81,16.09,19.63,24.89,16.84,21.75,49.74,22.31,67,.84.26-.33.53-.66.79-1,25.24-32.6-9.82-59.09-15-58.73s-27-12.34-10.17-30.12C604-9.13,671.92-42.35,651-111.57s-97.49-64.35-112.28-51.93-9.47,20.59-6.54,48.85S508.38-40.4,475.87-64.22a90.08,90.08,0,0,1-24.06-32s-31.46-63.27-77.43-35.39c-24.3,14.74-27.66,35-25.43,50.91A58.44,58.44,0,0,0,364.29-49c13.16,14.08,36.53,45-10,46.65C293.9-.26,283.71,3.3,282.61,41.81s49.69,52.5,80.1,32.82C382.62,60.91,385.82,45.5,398.1,38,398.1,38,435.76,21.41,417.53,68Z"/><path class="cls-9" d="M417,63.71a51.25,51.25,0,0,0-2.56,23.58c1.39,10.67,6.39,22.49,21.49,24,14.08,1.39,22.53-5,27.45-11.68A33.7,33.7,0,0,0,469.72,81c.5-12.63,5.3-44.27,42.41-21.55,4.65,5.26,12.43,14.53,19,22.49,16.37,19.67,47,19.12,62.26-1.39.23-.31.47-.63.7-1,22.4-31.12-11-54.6-15.86-54.09s-25.46-10.6-10.43-27.67c20-11.84,82-44.91,60.28-108.57s-92.7-56.64-106-44.62-8.13,19.44-4.5,45.62S497.93-40,467-61a83.73,83.73,0,0,1-23.4-29s-31.3-57.79-73.12-30.38c-22.1,14.49-24.57,33.47-22,48.14a54.32,54.32,0,0,0,15.29,28.92C376.42-30.66,399.14-2.69,355.94.36c-56.05,4-65.4,7.59-65.18,43.42S338.65,91,366.28,71.69c18.06-13.41,20.53-27.83,31.7-35.2C398,36.49,432.45,19.85,417,63.71Z"/><path class="cls-6" d="M416.39,59.77a47.73,47.73,0,0,0-1.62,22c1.64,9.86,6.68,20.69,20.75,21.59,13.14.84,20.78-5.35,25.14-11.75a31.27,31.27,0,0,0,5.28-17.48c.05-11.76,3.49-41.32,38.72-21.41,4.5,4.74,12,13.11,18.44,20.29,15.84,17.75,44.26,16.25,57.82-3.31l.62-.91C601.35,39.14,569.5,18.41,565,19s-24-9-10.6-25.38C572.65-18,629.22-50.75,607-109.21s-88-49.64-100-38-6.93,18.34-2.7,42.54-16,65.5-45.49,46.91a77.87,77.87,0,0,1-22.7-26.16s-31-52.69-68.94-25.86c-20.07,14.18-21.75,31.9-18.87,45.45A50.55,50.55,0,0,0,363.4-38c12.2,11.35,34.23,36.61-5.83,40.85-52,5.49-60.54,9.18-59.17,42.47s46,42.3,71.09,23.49c16.36-13.05,18.18-26.53,28.33-33.75C397.82,35.09,429.31,18.5,416.39,59.77Z"/><path class="cls-7" d="M415.69,56.13a44.19,44.19,0,0,0-.79,20.51c1.84,9.11,6.87,19,20,19.39,12.24.36,19.15-5.64,23-11.73a29.08,29.08,0,0,0,4.33-16.42c-.33-10.93,1.91-38.52,35.3-21.15C501.83,51,509.1,58.52,515.29,65,530.6,81,557,78.65,568.93,60l.54-.87c17.45-28.2-12.82-46.44-17-45.72S529.92,5.83,541.85-9.8c16.54-11.42,68.06-43.7,45.46-97.31s-83.39-43.28-94.18-32.1-5.84,17.27-1.13,39.63-12.75,61.39-40.75,45.07a72.47,72.47,0,0,1-21.94-23.58s-30.49-48-64.92-21.8C346.19-86,345.21-69.53,348.33-57a47,47,0,0,0,14.93,24c11.71,10.15,33,32.91-4.09,38.15-48.12,6.79-56,10.5-53.61,41.39s44.16,37.83,66.83,19.53c14.78-12.66,16-25.25,25.24-32.28C397.63,33.8,426.36,17.36,415.69,56.13Z"/><path class="cls-8" d="M414.92,52.78a41,41,0,0,0-.07,19.08c2,8.41,7,17.45,19.2,17.38,11.39-.07,17.61-5.87,21-11.66a27,27,0,0,0,3.5-15.4c-.66-10.15.52-35.86,32.12-20.81,4.16,3.82,11.17,10.59,17.13,16.39,14.74,14.36,39.17,11.35,49.69-6.34l.48-.82c15.3-26.78-13.43-42.75-17.24-41.94S519.45,2.32,530-12.6c15-11.15,61.83-42.82,39.09-91.92S490.22-142,480.56-131.3s-4.88,16.24.23,36.87S470.93-37,444.37-51.22a67.29,67.29,0,0,1-21.15-21.2S393.32-116,362.17-90.57c-16.46,13.45-16.84,28.84-13.54,40.35A43.75,43.75,0,0,0,363.3-28.36C374.51-19.3,395,1.16,360.73,7.23c-44.5,7.88-51.68,11.58-48.49,40.21s42.28,33.73,62.76,16c13.32-12.24,14.08-24,22.4-30.82C397.4,32.6,423.57,16.39,414.92,52.78Z"/><path class="cls-9" d="M414.09,49.68a38.36,38.36,0,0,0,.55,17.73c2.14,7.76,7.08,16,18.42,15.54,10.58-.44,16.17-6,19.12-11.52A25.1,25.1,0,0,0,454.93,57c-.94-9.42-.68-33.35,29.18-20.39,4,3.42,10.72,9.48,16.45,14.68,14.17,12.87,36.77,9.28,46-7.51.15-.25.29-.52.43-.78,13.35-25.39-13.87-39.3-17.39-38.42s-20-5.2-10.61-19.41c13.58-10.85,56.09-41.81,33.36-86.7s-74.57-32.31-83.2-22-4,15.25,1.42,34.26-7.3,53.74-32.45,41.35a62.7,62.7,0,0,1-20.35-19s-29.2-39.55-57.33-14.89c-14.86,13-14.71,27.35-11.27,38a40.67,40.67,0,0,0,14.34,19.83C374.19-16,393.94,2.35,362.25,9.11c-41.11,8.76-47.66,12.43-43.76,39s40.39,30,58.84,12.81c12-11.81,12.32-22.75,19.83-29.37C397.16,31.5,421,15.58,414.09,49.68Z"/><path class="cls-6" d="M413.22,46.83a35.56,35.56,0,0,0,1.09,16.46c2.24,7.14,7.1,14.64,17.62,13.84,9.82-.75,14.84-6.13,17.4-11.32a23.41,23.41,0,0,0,2.09-13.5c-1.19-8.72-1.72-31,26.45-19.89,3.83,3,10.28,8.46,15.77,13.11a27.62,27.62,0,0,0,42.49-8.47l.36-.74c11.59-24-14.16-36.08-17.4-35.15S500.37-3,508.6-16.53C520.87-27,559.37-57.2,536.79-98.19s-70.35-27.61-78-17.76-3.23,14.3,2.43,31.79S456.13-34,432.36-44.68a58.25,58.25,0,0,1-19.53-17s-28.43-35.81-53.77-12c-13.39,12.6-12.79,25.9-9.24,35.64a37.71,37.71,0,0,0,14,18C374-12.92,393,3.49,363.72,10.8c-37.92,9.48-43.89,13.1-39.41,37.62s38.51,26.55,55.11,10c10.76-11.37,10.71-21.54,17.47-27.94C396.89,30.48,418.49,14.91,413.22,46.83Z"/><path class="cls-7" d="M412.32,44.2a33,33,0,0,0,1.55,15.27c2.31,6.56,7.07,13.38,16.82,12.29,9.1-1,13.59-6.17,15.81-11.08A21.83,21.83,0,0,0,448,48.06c-1.38-8.06-2.6-28.73,23.94-19.34,3.65,2.7,9.83,7.52,15.08,11.67a25.7,25.7,0,0,0,39.22-9.25c.1-.24.21-.47.31-.71,10-22.7-14.34-33.06-17.31-32.1s-17.54-3.28-10.33-16.1C510-28,544.78-57.23,522.46-94.59s-66.28-23.38-73.11-14-2.53,13.39,3.29,29.47-3.06,46.8-25.5,37.63a54.31,54.31,0,0,1-18.71-15.18S380.85-89,358.07-66c-12,12.14-11,24.48-7.43,33.42A35.15,35.15,0,0,0,364.2-16.36c9.73,6.3,27.87,21,.94,28.69-34.93,10-40.36,13.6-35.4,36.24S366.39,72,381.28,56.08c9.63-10.92,9.25-20.37,15.33-26.54C396.61,29.54,416.19,14.37,412.32,44.2Z"/><path class="cls-8" d="M411.4,41.8a30.72,30.72,0,0,0,1.93,14.14c2.37,6,7,12.2,16,10.87C437.8,65.58,441.8,60.63,443.7,56a20.27,20.27,0,0,0,1-11.78c-1.54-7.45-3.34-26.62,21.63-18.75,3.48,2.39,9.37,6.67,14.4,10.35A23.88,23.88,0,0,0,516.85,26l.27-.66C525.67,3.86,502.72-5,500-4s-16.41-2.49-10.12-14.64c9.95-9.82,41.35-38.16,19.39-72.16s-62.36-19.58-68.4-10.61-1.92,12.53,4,27.28-1.32,43.6-22.48,35.8a50.38,50.38,0,0,1-17.88-13.5S377.83-81,357.4-58.9c-10.79,11.68-9.47,23.11-5.83,31.3a32.65,32.65,0,0,0,13.14,14.66C374-7.39,391.3,5.63,366.52,13.7c-32.15,10.47-37.08,14-31.74,34.84s34.83,20.58,48.15,5.3c8.6-10.46,7.94-19.24,13.39-25.17C396.32,28.67,414,13.94,411.4,41.8Z"/><path class="cls-9" d="M410.46,39.59a28.74,28.74,0,0,0,2.26,13.08c2.39,5.52,6.91,11.11,15.26,9.59,7.79-1.43,11.35-6.15,13-10.52a18.77,18.77,0,0,0,.54-11c-1.68-6.87-4-24.63,19.49-18.13,3.31,2.11,8.93,5.9,13.72,9.16A22.22,22.22,0,0,0,508,21.44l.23-.62C515.44.62,493.82-6.85,491.31-5.84S476-7.61,481.43-19.11c8.94-9.45,37.2-36.81,15.69-67.7S438.52-103,433.2-94.45s-1.38,11.71,4.61,25.23.19,40.56-19.73,34a46.91,46.91,0,0,1-17.06-12s-25.74-26.25-44-5.06C347.35-41,349-30.46,352.61-23a30.33,30.33,0,0,0,12.68,13.2c8.78,4.86,25.31,16.4,2.55,24.7-29.54,10.77-34,14.17-28.37,33.41s33,18,44.93,3.36c7.65-10,6.75-18.13,11.62-23.82C396,27.88,412,13.61,410.46,39.59Z"/><path class="cls-6" d="M409.52,37.56A26.65,26.65,0,0,0,412,49.65c2.41,5.05,6.78,10.1,14.49,8.42,7.2-1.58,10.36-6.09,11.71-10.2a17.53,17.53,0,0,0,.15-10.22c-1.79-6.33-4.5-22.77,17.52-17.49,3.15,1.86,8.49,5.2,13,8.07a20.66,20.66,0,0,0,30.59-10.7c.07-.19.13-.39.19-.58,6.08-19-14.25-25.25-16.55-24.23s-14.3-1.15-9.61-12c8-9.08,33.37-35.42,12.38-63.43s-55-13.13-59.66-5-.9,10.93,5.11,23.3,1.49,37.69-17.24,32.24a43.61,43.61,0,0,1-16.24-10.57s-24.78-23.57-41.07-3.28c-8.61,10.73-6.78,20.52-3.14,27.36A28.27,28.27,0,0,0,365.94-6.84C374.25-2.61,390,7.58,369.1,16,342,27,338,30.31,343.83,48s31.29,15.66,41.86,1.67c6.78-9.54,5.69-17.07,10-22.52C395.72,27.15,410.1,13.37,409.52,37.56Z"/><path class="cls-7" d="M408.58,35.72a24.72,24.72,0,0,0,2.74,11.15c2.39,4.61,6.63,9.17,13.74,7.35,6.64-1.7,9.42-6,10.55-9.86a16.19,16.19,0,0,0-.2-9.5c-1.86-5.83-4.91-21,15.73-16.82,3,1.62,8.05,4.55,12.38,7.07a19.21,19.21,0,0,0,28.09-10.93c.05-.19.1-.37.16-.56,5-17.86-14.07-23-16.17-22S462.27-9,466.27-19.21c7.14-8.69,29.87-34,9.45-59.36S424.18-89,420.11-81.3s-.48,10.18,5.5,21.49,2.61,35-15,30.52a40.57,40.57,0,0,1-15.44-9.29s-23.8-21.1-38.28-1.72c-7.65,10.25-5.63,19.29-2,25.54A26.33,26.33,0,0,0,366.63-4.14C374.5-.48,389.46,8.48,370.32,17c-24.84,11.08-28.49,14.28-22.46,30.54s29.59,13.53,39,.19c6-9.08,4.74-16,8.6-21.25C395.42,26.49,408.34,13.21,408.58,35.72Z"/><path class="cls-8" d="M407.65,34a23,23,0,0,0,2.9,10.27c2.38,4.22,6.46,8.31,13,6.39,6.12-1.79,8.57-5.87,9.49-9.5a15.21,15.21,0,0,0-.49-8.83C430.64,27,427.31,13,446.62,16.21c2.83,1.42,7.64,4,11.75,6.18a17.86,17.86,0,0,0,25.74-11.08c.05-.17.09-.34.14-.52C488.35-6,470.43-10.13,468.5-9.11s-12.41-.13-9-9.78c6.35-8.32,26.65-32.58,6.85-55.48s-48.24-8-51.78-.74-.11,9.49,5.82,19.8,3.56,32.43-12.93,28.86a37.67,37.67,0,0,1-14.65-8.14s-22.8-18.84-35.63-.35c-6.79,9.77-4.62,18.11-1.06,23.79a24.48,24.48,0,0,0,11.25,9.5c7.43,3.14,21.63,11,4.11,19.54C348.75,29,345.46,32.08,351.6,47s27.94,11.62,36.22-1.09c5.27-8.64,3.87-15.07,7.29-20C395.11,25.88,406.69,13.12,407.65,34Z"/><path class="cls-9" d="M406.72,32.49a21.49,21.49,0,0,0,3,9.46c2.34,3.84,6.27,7.51,12.3,5.51,5.62-1.87,7.77-5.74,8.51-9.14a14.09,14.09,0,0,0-.75-8.19c-2-4.91-5.51-17.83,12.55-15.46,2.68,1.22,7.23,3.44,11.12,5.36A16.63,16.63,0,0,0,477.06,8.9c0-.16.07-.33.1-.49,3.27-15.71-13.52-19-15.27-18s-11.54.28-8.7-8.8c5.63-7.93,23.72-31.14,4.57-51.78s-45.1-5.88-48.15,1,.2,8.82,6,18.21,4.37,30-11.07,27.24a35,35,0,0,1-13.88-7.09s-21.81-16.77-33.13.83c-6,9.31-3.7,17-.22,22.16A22.77,22.77,0,0,0,368.13.63c7,2.68,20.45,9.51,4.45,18-20.76,11.06-23.72,14-17.53,27.7s26.35,9.9,33.63-2.18c4.62-8.2,3.11-14.14,6.13-18.86C394.81,25.32,405.16,13.09,406.72,32.49Z"/><path class="cls-6" d="M405.82,31.09a19.76,19.76,0,0,0,3.12,8.69c2.31,3.49,6.08,6.78,11.61,4.72a11.1,11.1,0,0,0,7.62-8.77,13.08,13.08,0,0,0-1-7.58c-2-4.51-5.7-16.4,11.16-14.78,2.53,1.05,6.83,3,10.5,4.62A15.46,15.46,0,0,0,470.42,6.88c0-.15.06-.3.08-.46C473-8.29,457.32-10.8,455.72-9.8s-10.71.64-8.37-7.9c5-7.55,21-29.71,2.56-48.27s-42.1-4-44.71,2.48.47,8.19,6.21,16.73,5,27.77-9.41,25.68a32.6,32.6,0,0,1-13.13-6.14S368.05-42.1,358.1-25.37c-5.26,8.84-2.89,15.9.52,20.59a21.15,21.15,0,0,0,10.29,7.51c6.6,2.27,19.32,8.18,4.72,16.62-18.93,11-21.58,13.81-15.39,26.31s24.81,8.34,31.18-3.12c4-7.77,2.44-13.24,5.09-17.73C394.51,24.81,403.73,13.11,405.82,31.09Z"/><path class="cls-7" d="M404.93,29.82a18.43,18.43,0,0,0,3.18,8c2.26,3.17,5.87,6.11,10.95,4a10.33,10.33,0,0,0,6.79-8.4,12.08,12.08,0,0,0-1.14-7c-2-4.12-5.83-15,9.9-14.1,2.38.89,6.44,2.53,9.91,3.95a14.37,14.37,0,0,0,19.67-11l.06-.43C466.12-9,451.44-10.78,450-9.8s-9.94.93-8-7.08c4.38-7.18,18.58-28.29.81-44.95s-39.26-2.35-41.48,3.76.71,7.6,6.32,15.35,5.57,25.65-7.91,24.17a30.32,30.32,0,0,1-12.41-5.28S367.45-37,358.75-21.11C354.14-12.72,356.58-6.24,359.9-2a19.68,19.68,0,0,0,9.8,6.65c6.21,1.89,18.23,7,4.93,15.29-17.24,10.79-19.61,13.54-13.45,25s23.33,6.94,28.88-3.92c3.5-7.35,1.84-12.38,4.16-16.64C394.22,24.35,402.4,13.17,404.93,29.82Z"/><path class="cls-8" d="M404.06,28.67a17.23,17.23,0,0,0,3.22,7.3c2.2,2.88,5.65,5.49,10.3,3.38a9.58,9.58,0,0,0,6-8,11.23,11.23,0,0,0-1.28-6.48c-2-3.77-5.91-13.81,8.74-13.43,2.24.75,6.07,2.15,9.34,3.35A13.37,13.37,0,0,0,458.34,3.88c0-.13,0-.27,0-.4,1.3-12.85-12.41-14.06-13.73-13.1s-9.21,1.19-7.7-6.32c3.84-6.81,16.36-26.9-.7-41.8s-36.56-.91-38.43,4.84.9,7,6.37,14.06,6,23.65-6.57,22.72a28.17,28.17,0,0,1-11.7-4.5s-18.86-11.58-26.44,3.45c-4,7.94-1.53,13.89,1.7,17.74a18.32,18.32,0,0,0,9.32,5.86c5.83,1.55,17.17,5.88,5.08,14-15.67,10.59-17.79,13.23-11.69,23.64s21.91,5.7,26.72-4.58c3-7,1.3-11.57,3.32-15.6C393.93,23.93,401.17,13.28,404.06,28.67Z"/><path class="cls-9" d="M403.22,27.62a15.86,15.86,0,0,0,3.23,6.69c2.14,2.6,5.43,4.91,9.68,2.8a8.92,8.92,0,0,0,5.36-7.65,10.57,10.57,0,0,0-1.41-6c-2-3.44-5.94-12.64,7.69-12.76,2.11.62,5.71,1.8,8.79,2.81a12.43,12.43,0,0,0,16.3-10.7l0-.37c.78-12-12-12.67-13.19-11.73s-8.52,1.41-7.36-5.62c3.34-6.46,14.33-25.54-2-38.83s-34,.34-35.56,5.74,1.07,6.52,6.37,12.86,6.36,21.8-5.37,21.34a26.24,26.24,0,0,1-11-3.81s-17.9-10.15-24.45,4.07c-3.47,7.51-1,13,2.15,16.43A17,17,0,0,0,371.31,8c5.47,1.26,16.14,4.91,5.17,12.89-14.22,10.35-16.1,12.87-10.1,22.35s20.55,4.58,24.69-5.12c2.57-6.56.83-10.8,2.57-14.61C393.64,23.55,400,13.41,403.22,27.62Z"/><path class="cls-6" d="M402.4,26.68a14.83,14.83,0,0,0,3.22,6.11c2.07,2.35,5.2,4.39,9.09,2.29a8.32,8.32,0,0,0,4.73-7.29,9.9,9.9,0,0,0-1.5-5.52C416,19.14,412,10.72,424.67,10.16c2,.52,5.37,1.49,8.26,2.33A11.57,11.57,0,0,0,447.74,2c0-.12,0-.23,0-.35.34-11.16-11.56-11.38-12.64-10.47s-7.87,1.58-7-5C431-19.9,440.57-38,425-49.81s-31.6,1.42-32.87,6.49,1.21,6,6.35,11.75,6.61,20-4.3,20a24.43,24.43,0,0,1-10.37-3.18s-17-8.86-22.6,4.57c-3,7.1-.48,12.08,2.53,15.2a15.85,15.85,0,0,0,8.4,4.5c5.13,1,15.17,4,5.24,11.81-12.89,10.08-14.56,12.48-8.67,21.1s19.25,3.59,22.78-5.56c2.17-6.18.42-10.06,1.92-13.66C393.37,23.21,399,13.58,402.4,26.68Z"/><rect class="cls-4" x="1470.79" y="237.78" width="10.96" height="10.81" transform="translate(795.89 -1089.33) rotate(53.6)"/><path class="cls-10" d="M721,161.77c-2.65-1.67-7.08-6.44-7.08-6.44a56.78,56.78,0,0,1,43.73-19.49c28.3.43,43.09,19.49,43.09,19.49s-3.92,4.68-6.09,6.26C794.61,161.59,761.13,187.21,721,161.77Z"/><line class="cls-11" x1="704.27" y1="130.61" x2="716.19" y2="142.15"/><line class="cls-11" x1="729.34" y1="121.15" x2="733.91" y2="131.83"/><line class="cls-11" x1="757.59" y1="110.97" x2="757.59" y2="129.69"/><line class="cls-11" x1="811.73" y1="129.87" x2="799.81" y2="141.41"/><line class="cls-11" x1="786.66" y1="120.4" x2="782.09" y2="131.09"/><path class="cls-12" d="M757.84,169.65c-2.93,0-4.93-1.57-6.53-2.82-1.16-.92-1.91-1.47-2.6-1.47-3,0-5.27-2.13-5.92-5.43-.58-2.94.2-6.62,2.72-8.19a8.13,8.13,0,0,1,1.39-5.39c2.55-3.85,4.78-4.57,8-4.57.38,0,.8,0,1.25,0a6.84,6.84,0,0,1,5,2.32A2.1,2.1,0,0,0,763,145,12,12,0,0,1,772,149.1l.14.18.12.2c2.28,3.87,2.5,8.57.56,12a7.58,7.58,0,0,1-6.7,3.93h0l-.5,0h-.4l-.42,0-.13.24a6.76,6.76,0,0,1-5.17,3.89A8.33,8.33,0,0,1,757.84,169.65Z"/><path class="cls-7" d="M769.65,151a9.09,9.09,0,0,0-6.61-3c-4.16,0-3.75-3.14-6.95-3.21s-4.52-.08-6.7,3.21.55,5.08-2,6.13-2.56,8.23,1.33,8.23,5.68,5.09,10.17,4.19,1.8-4.48,6.88-4.19S772.64,156.08,769.65,151Z"/><path class="cls-13" d="M757.84,163.67c-.82,0-1.61-.59-2.84-1.55-1.53-1.2-3.43-2.7-6.15-2.75a3.63,3.63,0,0,1,0-2.6,4.66,4.66,0,0,0,2.69-5.19,2.42,2.42,0,0,1,.39-1.93c1.25-1.89,1.52-1.89,3-1.89l1.1,0c.29,0,.3,0,.91.61A8,8,0,0,0,763,151a6.1,6.1,0,0,1,4.17,1.77,6.26,6.26,0,0,1,.38,5.71,1.57,1.57,0,0,1-1.5.91h-.15l-.75,0c-4,0-5.25,2.34-5.84,3.46-.36.67-.36.67-1.06.81A2.48,2.48,0,0,1,757.84,163.67Z"/><circle class="cls-3" cx="757.98" cy="156.08" r="2.99"/></g></svg>