<svg xmlns="http://www.w3.org/2000/svg" viewBox="0 0 399 358"><defs><style>.cls-1{fill:none;stroke:#f4efe4;stroke-miterlimit:10;}.cls-2{fill:#f4efe4;}.cls-3{fill:#f2e8c5;}.cls-4{fill:#b3a0c3;}.cls-5{fill:#232858;}</style></defs><g id="deco"><rect class="cls-1" x="16.05" y="329.39" width="17" height="17" transform="translate(360.6 380.79) rotate(101.43)"/><rect class="cls-1" x="50.19" y="109.62" width="11.48" height="11.48" transform="translate(178.05 76.34) rotate(98.15)"/><rect class="cls-2" x="117.21" y="193.23" width="17" height="17" transform="translate(347.29 287.74) rotate(143.15)"/><path class="cls-3" d="M275.45,283.05c-14.89,0-26.52-4.62-34.57-13.72-15.75-17.82-12.28-45.92-8.93-73.1.85-6.86,1.65-13.33,2.09-19.33,2-26.62-8.54-43-32.1-50.16-27.56-8.35-45-34.63-41.37-62.51,4.19-32.66,33-55.47,70.08-55.47,1.89,0,3.81.06,5.71.18,26.57,1.7,54.1,18.76,77.54,48,22.69,28.35,39.55,65.84,47.48,105.56,8.06,40.34,4,70-12.26,90.79-14.61,18.59-37.67,28.29-70.5,29.66-1.08,0-2.13.06-3.16.06Z"/><path class="cls-4" d="M175.44,66.14C172.77,87,186.2,106.3,206.28,112.38c19.37,5.87,45.94,21.89,42.72,65.62-2.81,38.22-19,92,29,90s84.35-24,68.67-102.52S280.8,26.82,235.4,23.91C204.5,21.93,178.89,39.36,175.44,66.14Z"/><path class="cls-5" d="M275.45,253.05c-5.91,0-10-1.21-12.09-3.59-6.8-7.69-3.93-30.91-1.63-49.55.85-6.92,1.73-14.07,2.23-20.81,3-40.36-16.47-69.91-53.33-81.07-13.48-4.08-22-16.69-20.31-30,2.22-17.26,18.8-29.3,40.33-29.3,1.25,0,2.53,0,3.79.12,17.78,1.14,38.2,14.57,56,36.85C310.22,100.4,325,133.32,332,168.42c6.15,30.78,4,53.12-6.43,66.37C316.66,246.07,300.91,252,277.38,253c-.66,0-1.3,0-1.92,0Z"/><path class="cls-3" d="M275.45,238.05c-.08,0-.32-.37-.64-.94a22.06,22.06,0,0,1-2.51-14.29c1.1-6.84,3.52-14.68,4.31-21.07.88-7.1,1.79-14.44,2.31-21.55,3.47-47.27-20.43-83.35-63.94-96.53-6.44-2-10.55-7.71-9.78-13.7,1.23-9.55,11.69-16.21,25.45-16.21.93,0,1.89,0,2.83.09,13.38.86,30.3,12.54,45.28,31.25,18.28,22.83,31.95,53.47,38.49,86.26,5.11,25.55,3.86,44.78-3.52,54.16C307.82,233,299.63,237.22,281,238c-.44,0-2,0-5.54.05Z"/><path class="cls-4" d="M185.52,296.37a15.5,15.5,0,0,0-19.68-3.49c-6.34,3.58-17.11,6.49-27.67-5.21-9.23-10.24-19.17-27.81-30.59-14.84s-14.72,27.88,9.56,43.32,52.4,17.36,64.44,6.29C189.78,314.91,191.62,303.92,185.52,296.37Z"/><path class="cls-5" d="M112.1,275.88c1.47-1.54,2.8-2.29,3.94-2.25,3.69.15,9,6.66,13.28,11.9,1.58,1.94,3.22,4,4.85,5.75,9.74,10.8,22.25,13.1,34.32,6.3a10.05,10.05,0,0,1,12.83,2.18c3.93,4.86,2.94,12.16-2.42,17.76-.31.32-.63.64-1,1-4.71,4.34-13.28,6.3-23.5,5.4-11.32-1-23.53-5.37-34.39-12.27-9.53-6.06-14.79-12.17-15.64-18.17-.73-5.11,1.64-10.68,7.23-17,.16-.18.31-.35.47-.51Z"/><path class="cls-4" d="M116,279.61a1.06,1.06,0,0,1,.4.07,7.89,7.89,0,0,1,4.34,2.9c1.5,2,2.93,4.56,4.4,6.36,1.63,2,3.31,4.05,5,5.95,11.42,12.66,26.73,15.42,41,7.39a4.68,4.68,0,0,1,6,.87c2.18,2.69,1.31,7.06-2.11,10.64-.23.24-.48.48-.73.71-3.55,3.26-10.79,4.75-19.37,4-10.48-.93-21.83-5-32-11.44-7.9-5-12.59-10.14-13.2-14.38-.48-3.41.47-6.57,4.9-11.61l1.37-1.45Z"/></g></svg>