<svg xmlns="http://www.w3.org/2000/svg" viewBox="0 0 1516 300"><defs><style>.cls-1{fill:#1d1e2f;}.cls-2{fill:#fff;}.cls-3,.cls-4,.cls-8{fill:#f4efe4;}.cls-3{stroke:#0f0e0d;}.cls-3,.cls-4,.cls-5,.cls-6,.cls-8{stroke-miterlimit:10;}.cls-4{stroke:#1c1b19;}.cls-5{fill:#1c1b19;}.cls-5,.cls-6{stroke:#f4efe4;}.cls-6{fill:#020202;}.cls-7{fill:#fcfcfc;}.cls-8{stroke:#111110;}</style></defs><g id="chambres"><rect class="cls-1" x="-32.5" y="-20.55" width="1576" height="346"/><rect class="cls-2" x="1454.07" y="268.95" width="7.76" height="7.65" transform="translate(812.26 -1062.56) rotate(53.6)"/><rect class="cls-3" x="1232.82" y="122.15" width="4.99" height="4.92" transform="translate(602.5 -943.6) rotate(53.6)"/><rect class="cls-4" x="95.72" y="60.82" width="11.42" height="11.26" transform="translate(-6.09 10.4) rotate(-5.7)"/><rect class="cls-5" x="1408.94" y="200.71" width="4.99" height="4.92" transform="translate(737.33 -1053.41) rotate(53.6)"/><rect class="cls-6" x="178.81" y="80.24" width="7.76" height="7.65" transform="translate(141.93 -112.87) rotate(53.6)"/><rect class="cls-7" x="1317.95" y="56.42" width="7.76" height="7.65" transform="translate(585.87 -1039.4) rotate(53.6)"/><rect class="cls-8" x="1315.92" y="166.76" width="11.42" height="11.26" transform="translate(-10.58 132.02) rotate(-5.7)"/><rect class="cls-6" x="210.54" y="243.6" width="4.99" height="4.92" transform="translate(284.65 -71.43) rotate(53.6)"/><rect class="cls-6" x="53.68" y="106.38" width="4.99" height="4.92" transform="translate(110.44 -0.97) rotate(53.6)"/><rect class="cls-4" x="236.2" y="144.36" width="11.42" height="11.26" transform="translate(-13.69 24.75) rotate(-5.7)"/><rect class="cls-4" x="1341.26" y="277.8" width="11.42" height="11.26" transform="translate(-21.48 135.09) rotate(-5.7)"/><rect class="cls-4" x="1452.26" y="80.8" width="11.42" height="11.26" transform="translate(-1.38 145.13) rotate(-5.7)"/><rect class="cls-4" x="89.53" y="265.82" width="11.42" height="11.26" transform="translate(-26.47 10.79) rotate(-5.7)"/><rect class="cls-6" x="301.87" y="77.63" width="7.76" height="7.65" transform="translate(189.86 -212.97) rotate(53.6)"/><rect class="cls-4" x="122.26" y="170" width="4.99" height="4.92" transform="translate(189.52 -30.3) rotate(53.6)"/></g></svg>