<svg xmlns="http://www.w3.org/2000/svg" viewBox="0 0 768 300"><defs><style>.cls-1{fill:#1d1e2f;}.cls-2{fill:#f9f7f4;stroke:#161615;stroke-width:3px;}.cls-2,.cls-3,.cls-4,.cls-5,.cls-6,.cls-7,.cls-8{stroke-miterlimit:10;}.cls-3{fill:none;stroke:#232221;}.cls-4,.cls-5,.cls-8{fill:#f4efe4;}.cls-4{stroke:#0f0e0d;}.cls-5{stroke:#1c1b19;}.cls-6{fill:#1c1b19;}.cls-6,.cls-7{stroke:#f4efe4;}.cls-7{fill:#020202;}.cls-8{stroke:#111110;}</style></defs><g id="banner_light" data-name="banner light"><path class="cls-1" d="M288.55,308.78s-48.38,30.84-40.14,96,15.8,125.86-47,129.2S103.51,548.7,86.46,547.49c-6.79-.49-48.64-12.87-46.52-46.28s27.08-59.34,68-49.43,85.27,22.26,90.94-31.36-19.21-76.12-22-93.45,29.89-62.07,49.8-71.47Z"/><path class="cls-2" d="M256.56,323.83s-25.68,35.42-19.81,88.74S249.5,517.91,193.85,522,123,533.31,107.92,532.69c-6-.26-42.74-9.51-40.14-37s21.12-35.47,57.07-28.22,78.48,10.32,84.68-33.87-5.49-64.84-7.53-79,18.54-56.7,36.36-64.86Z"/><rect class="cls-3" x="318.59" y="275" width="152.96" height="120.39" transform="matrix(0.84, -0.54, 0.54, 0.84, -118.82, 269.24)"/></g><g id="chambres"><rect class="cls-1" x="-645.5" y="-15" width="1461" height="327"/><rect class="cls-4" x="565.16" y="120.71" width="4.99" height="4.92" transform="translate(329.91 -406.81) rotate(53.6)"/><rect class="cls-5" x="44.06" y="83.37" width="11.42" height="11.26" transform="translate(-8.59 5.38) rotate(-5.7)"/><rect class="cls-6" x="741.28" y="199.26" width="4.99" height="4.92" transform="translate(464.73 -516.63) rotate(53.6)"/><rect class="cls-7" x="650.29" y="54.98" width="7.76" height="7.65" transform="translate(313.27 -502.61) rotate(53.6)"/><rect class="cls-8" x="648.26" y="165.31" width="11.42" height="11.26" transform="translate(-13.74 65.75) rotate(-5.7)"/><rect class="cls-7" x="67.88" y="224.15" width="4.99" height="4.92" transform="translate(211 35.48) rotate(53.6)"/><rect class="cls-5" x="96.53" y="154.91" width="11.42" height="11.26" transform="translate(-15.43 10.94) rotate(-5.7)"/><rect class="cls-5" x="673.59" y="276.35" width="11.42" height="11.26" transform="translate(-24.63 68.81) rotate(-5.7)"/><rect class="cls-7" x="159.21" y="58.18" width="7.76" height="7.65" transform="translate(116.21 -106.06) rotate(53.6)"/><rect class="cls-7" x="31.6" y="157.55" width="4.99" height="4.92" transform="translate(142.64 37.61) rotate(53.6)"/></g></svg>