<svg xmlns="http://www.w3.org/2000/svg" viewBox="0 0 958 436"><defs><style>.cls-1,.cls-10,.cls-11{fill:#fff;}.cls-2{fill:#f2e8c5;}.cls-3{fill:#d8ca9a;}.cls-14,.cls-15,.cls-4{fill:#1d1e2f;}.cls-5{fill:#2d2f3d;}.cls-12,.cls-6{fill:#b3a0c3;}.cls-7{fill:#9470b7;}.cls-8{fill:none;stroke:#9470b7;}.cls-10,.cls-11,.cls-14,.cls-15,.cls-8{stroke-miterlimit:10;}.cls-10,.cls-15,.cls-8{stroke-width:3px;}.cls-9{fill:#292a3a;}.cls-10,.cls-11,.cls-12,.cls-13,.cls-14,.cls-15{stroke:#191918;}.cls-11{stroke-width:2px;}.cls-12,.cls-13{stroke-width:0;}.cls-13{fill:#909fce;}.cls-16{fill:#f2aa87;}</style></defs><g id="guy"><path class="cls-1" d="M375,204.77l92.64-28.85a82.31,82.31,0,0,1-14.57-22.64,60.1,60.1,0,0,1-4.76-23.22c0-63.64,105.08-115.22,234.7-115.22s234.7,51.58,234.7,115.22S812.63,245.28,683,245.28c-67.2,0-127.79-13.86-170.58-36.08h0Z"/><polygon class="cls-2" points="294.65 400.23 119.2 400.23 66.22 429.62 340 429.62 294.65 400.23"/><rect class="cls-2" x="119.2" y="51.02" width="175.45" height="343.38"/><rect class="cls-3" x="124.9" y="63.13" width="157.22" height="331.27"/><rect class="cls-4" x="140.85" y="73.03" width="131.02" height="314.76"/><polyline class="cls-5" points="140.85 100.11 250.78 121.72 255.34 361.98 140.85 356.55 140.85 100.11"/><ellipse class="cls-2" cx="53.02" cy="225.81" rx="9.21" ry="9.1" transform="translate(-177 195.96) rotate(-69.39)"/><polygon class="cls-6" points="74.77 7 140.85 64.25 140.85 392.54 74.77 429.51 74.77 7"/><rect class="cls-7" x="57.68" y="7" width="17.09" height="422.62"/><polygon class="cls-8" points="86.3 45.52 86.3 134.64 124.9 149.04 124.9 73.03 86.3 45.52"/><polygon class="cls-8" points="86.3 157.49 124.9 170.72 124.9 274.61 86.3 280.28 86.3 157.49"/><polygon class="cls-8" points="86.3 299.17 124.9 293.5 124.9 373.12 86.3 394.99 86.3 299.17"/><ellipse class="cls-2" cx="91.86" cy="227.78" rx="9.21" ry="9.1" transform="translate(-153.68 233.59) rotate(-69.39)"/><rect class="cls-9" x="61.1" y="231.57" width="9.11" height="23.81"/><ellipse class="cls-2" cx="81.61" cy="227.78" rx="3.42" ry="3.79"/><path class="cls-4" d="M220.6,114.68l-14.82-6.42-14.73,6.42-10.33,13-1.14,16.87,9.12,11.27-11.4,10.82-12.52,13.73L175,231.57l-21.64,55.19s-5.32,19.73,21.26,12,23.17-.12,17.47,5.29,28.49,11.9,26.21,2.16,9.11-14.07,12.53-10.82-.56,26,13.39,21.1,13.95-12.44,6-30.84l-18.41-50.86,14.92-54.46-10.19-13.73-14.81-11.9,5.7-11.91-1.14-19.48Z"/><path class="cls-1" d="M220,134.71c0,7.16-3.39,9.85-12.84,6.84a8.43,8.43,0,0,0-5.07,0c-9.63,3-14,.34-14-6.83,0-7.77,7.14-14.07,16-14.07S220,126.94,220,134.71Z"/><polygon class="cls-1" points="188.13 118.36 185.28 106.03 186.7 93.97 183.49 100.11 183.49 80.99 180.01 102.81 186.09 120.91 188.13 118.36"/><polygon class="cls-1" points="222.19 117.1 225.99 97.25 222.19 87.36 227.43 96.29 227.43 86.18 224.81 78.97 229.71 86.55 229.71 99.17 223.55 119.18 222.19 117.1"/><polygon class="cls-4" points="174.64 298.79 184.07 378.51 192.68 378.21 198.09 293.5 186.37 282.17 174.64 298.79"/><polygon class="cls-4" points="211.99 293.5 225.95 280.28 235.97 290.55 226.26 365.76 215.47 365.23 211.99 293.5"/><ellipse class="cls-4" cx="212.62" cy="132" rx="3.99" ry="3.79"/><ellipse class="cls-4" cx="195.53" cy="132" rx="3.99" ry="3.79"/><path class="cls-10" d="M185,210.57a30.22,30.22,0,0,1-4-3.86,33,33,0,0,1,25.77-10.59A33.71,33.71,0,0,1,231.5,208.2a31.07,31.07,0,0,1-3.66,3.54S207.93,226.07,185,210.57Z"/><path class="cls-11" d="M206.31,215.8a6.05,6.05,0,0,1-3.75-1.76c-.66-.55-1.08-.89-1.49-.9a3.58,3.58,0,0,1-3.35-3.26c-.28-1.72.24-3.85,1.73-4.72a4.74,4.74,0,0,1,.9-3.11c1.55-2.19,2.86-2.58,4.75-2.52l.72,0a4,4,0,0,1,2.85,1.44,1.22,1.22,0,0,0,1.1.55,7,7,0,0,1,5.12,2.53l.08.11.06.12a7.06,7.06,0,0,1,.12,7,4.39,4.39,0,0,1-4,2.17h-.3l-.23,0h-.24a.64.64,0,0,0-.08.14,4,4,0,0,1-3.08,2.17A6.16,6.16,0,0,1,206.31,215.8Z"/><path class="cls-12" d="M213.51,205.14a5.28,5.28,0,0,0-3.8-1.85c-2.42-.07-2.12-1.89-4-2s-2.63-.12-4,1.75.23,3-1.27,3.53-1.64,4.75.63,4.82,3.22,3.06,5.84,2.61,1.12-2.58,4.08-2.32S215.16,208.15,213.51,205.14Z"/><path class="cls-13" d="M206.42,212.31c-.48,0-.93-.37-1.63-.95a5.92,5.92,0,0,0-3.53-1.7,2.15,2.15,0,0,1,0-1.52,2.72,2.72,0,0,0,1.66-3,1.4,1.4,0,0,1,.25-1.11c.77-1.08.93-1.08,1.8-1.05l.64,0c.17,0,.18,0,.52.37a4.62,4.62,0,0,0,3.51,1.62,3.56,3.56,0,0,1,2.4,1.1,3.67,3.67,0,0,1,.12,3.33.91.91,0,0,1-.89.5h-.09l-.43,0a3.4,3.4,0,0,0-3.46,1.91c-.22.38-.22.38-.63.45A.78.78,0,0,1,206.42,212.31Z"/><circle class="cls-14" cx="206.63" cy="207.9" r="1.74"/><line class="cls-15" x1="175.82" y1="192.16" x2="182.55" y2="199.08"/><line class="cls-15" x1="190.57" y1="187.08" x2="193.04" y2="193.38"/><line class="cls-15" x1="207.18" y1="181.65" x2="206.86" y2="192.54"/><line class="cls-15" x1="238.35" y1="193.58" x2="231.22" y2="200.09"/><line class="cls-15" x1="223.93" y1="187.64" x2="221.09" y2="193.78"/></g><g id="door"><path class="cls-16" d="M1359.69-100.33l-1.31,3.56c-.48,1.23-1,2.46-1.48,3.68-1,2.44-2.16,4.85-3.4,7.21a63.38,63.38,0,0,1-4.12,6.92,29.85,29.85,0,0,1-5.52,6.22,13.83,13.83,0,0,1-3.9,2.27,9.14,9.14,0,0,1-4.94.4,10.52,10.52,0,0,1-4.43-2.13,18.18,18.18,0,0,1-3.14-3.26,30,30,0,0,1-2.35-3.6q-.52-.93-1-1.86l-.87-1.75a31.32,31.32,0,0,1-1.84-3.9,17.83,17.83,0,0,1-.62-2.29l-.42-1.92a300.5,300.5,0,0,0-8.24-30.12c-3.34-9.74-7.26-19.34-12.63-27.55a40.81,40.81,0,0,0-9.16-10.31,16.83,16.83,0,0,0-5.19-2.71,11.24,11.24,0,0,0-5.1-.36c-3.38.53-6.93,2.73-10.13,5.8a56.48,56.48,0,0,0-8.6,11c-5.06,8.31-8.93,17.68-12.2,27.27l-10,30c-3.4,10-6.89,20.09-10.76,30.13a238.9,238.9,0,0,1-13.57,29.94,103,103,0,0,1-9.63,14.57,59.52,59.52,0,0,1-6.49,6.89,41.3,41.3,0,0,1-8.52,5.94,34.41,34.41,0,0,1-5.2,2.16,31.27,31.27,0,0,1-5.72,1.21,31.52,31.52,0,0,1-11.47-.78A41,41,0,0,1,1158-1.6a57.49,57.49,0,0,1-8-5.35c-.63-.51-1.49-1.21-2.12-1.83s-1.32-1.3-1.94-2a44.35,44.35,0,0,1-3.25-4,64.93,64.93,0,0,1-4.94-8,122.94,122.94,0,0,1-6.85-15.83c-3.76-10.5-6.62-20.91-9.32-31.26s-5.13-20.66-7.55-30.89-4.9-20.38-7.6-30.37-5.6-19.84-9-29.29-7.42-18.52-12.49-25.94a39,39,0,0,0-8.22-9.05,16.71,16.71,0,0,0-8.84-3.63,23.11,23.11,0,0,0-10.51,2,56.52,56.52,0,0,0-11.47,6.61,146.52,146.52,0,0,0-21.56,20l-5.37,5.89-5.47,5.89c-3.69,3.9-7.42,7.77-11.24,11.56-7.65,7.58-15.59,14.94-24,21.91a193.5,193.5,0,0,1-27,19.19,108.12,108.12,0,0,1-15.55,7.44,64.33,64.33,0,0,1-17.75,4.14,41.28,41.28,0,0,1-19.34-3,41.21,41.21,0,0,1-15.44-11.75,62.61,62.61,0,0,1-9.22-15.37,105.12,105.12,0,0,1-5.35-16.1A190.22,190.22,0,0,1,863.69-173c-.39-5.38-.62-10.75-.73-16.11-.05-2.66-.09-5.39-.07-8l0-7.86c0-5.24-.07-10.47-.21-15.71s-.29-10.46-.58-15.68c-.6-10.42-1.36-20.88-3.33-31.08-.49-2.55-1.09-5.07-1.76-7.56a47.65,47.65,0,0,0-2.55-7.26,16.7,16.7,0,0,0-4.34-6.12,6.14,6.14,0,0,0-3.37-1.42,5.57,5.57,0,0,0-3.65,1,5.92,5.92,0,0,1,3.65-1.59,6.79,6.79,0,0,1,4,1.06,18.06,18.06,0,0,1,5.58,6,64.06,64.06,0,0,1,6.39,14.85c1.6,5.13,2.87,10.33,4,15.56s2.07,10.48,2.86,15.75c1.62,10.53,2.78,21.11,3.7,31.7l.66,7.94.55,7.81c.41,5.17.93,10.32,1.6,15.43a188,188,0,0,0,6.1,29.85,91.26,91.26,0,0,0,5.3,13.64A48.41,48.41,0,0,0,895-119.42a25.19,25.19,0,0,0,9.77,6.87,25.17,25.17,0,0,0,11.69,1.22,47.4,47.4,0,0,0,12.82-3.55A89.51,89.51,0,0,0,942-121.55c4.17-2.58,8.23-5.47,12.22-8.52s7.89-6.28,11.72-9.63c7.65-6.72,15-13.92,22.13-21.38q5.36-5.58,10.58-11.34l5.18-5.8,5.17-5.9c7.26-8.25,15-16.31,24.41-23.33a77.62,77.62,0,0,1,15.8-9.27,50.44,50.44,0,0,1,9.57-3,40.59,40.59,0,0,1,10.75-.73,37.37,37.37,0,0,1,10.85,2.47,41,41,0,0,1,9.36,5.23,59.07,59.07,0,0,1,13.17,14.07,108.72,108.72,0,0,1,8.68,15.27c2.44,5.15,4.55,10.33,6.46,15.52,3.82,10.36,6.87,20.76,9.62,31.15,5.47,20.75,9.93,41.43,14.85,61.65,2.49,10.07,5.13,20,8.38,29.45a111.66,111.66,0,0,0,5.47,13.27c2,4,4.41,7.58,6.61,9.35a28.23,28.23,0,0,0,9.87,5.67,11.32,11.32,0,0,0,4.2.43,11.44,11.44,0,0,0,4.13-1.2,29.07,29.07,0,0,0,8.95-7.47,84.76,84.76,0,0,0,8.1-11.58,241.89,241.89,0,0,0,13.34-27.26c4.06-9.5,7.83-19.25,11.56-29.06l11.29-29.58a145.36,145.36,0,0,1,15-29.68A69.65,69.65,0,0,1,1261-166a40.09,40.09,0,0,1,7.82-5.35,27.76,27.76,0,0,1,9.81-2.94,23.75,23.75,0,0,1,10.48,1.39,28.67,28.67,0,0,1,8.5,5,50.44,50.44,0,0,1,11,13.84,103.35,103.35,0,0,1,6.89,15.13c1.89,5.13,3.48,10.31,4.83,15.52a271.71,271.71,0,0,1,6.1,31.47l.27,2a10.13,10.13,0,0,0,.27,1.55,26.36,26.36,0,0,0,1.27,3.37l.4,1,.34.88c.23.57.46,1.15.72,1.7a25.43,25.43,0,0,0,1.69,3.19c1.24,2,2.82,3.64,4.59,4.17s3.91-.09,5.9-1.42a27.17,27.17,0,0,0,5.49-5.06,62.78,62.78,0,0,0,4.65-6.24c1.44-2.18,2.79-4.43,4.07-6.73.64-1.14,1.27-2.3,1.89-3.47l.9-1.75.44-.89.22-.44.11-.22C1359.65-100.35,1359.75-100.47,1359.69-100.33Z"/></g></svg>