<svg xmlns="http://www.w3.org/2000/svg" viewBox="0 0 958 436"><defs><style>.cls-1,.cls-10{fill:#1d1e2f;}.cls-2,.cls-6,.cls-7{fill:#fff;}.cls-3{fill:none;stroke:#fff;stroke-width:3px;}.cls-10,.cls-3,.cls-6,.cls-7{stroke-miterlimit:10;}.cls-4{fill:#e0d3ad;}.cls-5{fill:#f2e8c5;}.cls-10,.cls-6,.cls-7,.cls-8,.cls-9{stroke:#191918;}.cls-7{stroke-width:2px;}.cls-8{fill:#b3a0c3;}.cls-8,.cls-9{stroke-width:0;}.cls-9{fill:#909fce;}</style></defs><g id="Calque_1" data-name="Calque 1"><rect class="cls-1" x="-9" y="-8" width="975" height="466"/></g><g id="guy"><path class="cls-2" d="M496.46,170.87l-82.32-24a68.05,68.05,0,0,0,12.95-18.79,47.12,47.12,0,0,0,4.23-19.28C431.32,56,338,13.21,222.78,13.21S14.23,56,14.23,108.85,107.6,204.5,222.78,204.5c59.7,0,113.54-11.51,151.56-29.95h0Z"/><ellipse class="cls-3" cx="700" cy="65.5" rx="183.5" ry="23"/><path class="cls-3" d="M773,85.5V391.69s85.5,8.81,37.5,13.81-46,14-32,16"/><circle class="cls-2" cx="774" cy="389" r="5.5"/><path class="cls-2" d="M658.18,234.28V284s-21.19-50.53-13-62.76l7.79,7.21Z"/><polygon class="cls-4" points="658.18 234.28 658.18 284 653 228.65 658.18 234.28"/><polyline class="cls-5" points="673.35 41 704.49 41 724.87 142.25 713.27 165.02 690.95 177.03 700.63 191.01 703.17 213.98 689.11 231.66 669.04 240.41 651.6 231.66 641.12 219.88 642.29 193.35 652.77 177.14 627.16 167.74 616.02 142.25 641.86 42.36"/><path class="cls-2" d="M648.92,206.13c0-9.75,4.61-13.42,17.48-9.32a11.49,11.49,0,0,0,6.89,0c13.12-4.13,19.06-.47,19.06,9.3,0,10.58-9.72,19.15-21.71,19.15S648.92,216.71,648.92,206.13Z"/><polygon class="cls-2" points="683.61 195.15 670.45 185.75 657.07 195.15 666.35 200.15 678.06 200.15 683.61 195.15"/><circle class="cls-1" cx="682.01" cy="207.64" r="4.77"/><circle class="cls-1" cx="658.86" cy="207.64" r="4.77"/><line class="cls-6" x1="697.07" y1="200.15" x2="712.52" y2="202.88"/><line class="cls-6" x1="693.91" y1="195.15" x2="710.15" y2="192.95"/><line class="cls-6" x1="647.17" y1="202.88" x2="631.63" y2="204.92"/><line class="cls-6" x1="647.17" y1="196.84" x2="636.47" y2="195.15"/><path class="cls-2" d="M682,234.76v47.88s19.24-45.63,15.06-61l-8,10Z"/><path class="cls-4" d="M688.14,232.68s-2.73,38.77-6.13,46.69V234.76Z"/><path class="cls-6" d="M693.5,117.7a31.84,31.84,0,0,1,4.06,3.92,33.48,33.48,0,0,1-26.11,10.73A34.11,34.11,0,0,1,646.4,120.1a31.1,31.1,0,0,1,3.7-3.57S670.27,102,693.5,117.7Z"/><path class="cls-7" d="M671.91,112.42a6,6,0,0,1,3.79,1.78c.67.55,1.1.89,1.51.91a3.6,3.6,0,0,1,3.39,3.3c.3,1.74-.23,3.89-1.74,4.78a4.81,4.81,0,0,1-.91,3.15c-1.57,2.22-2.9,2.61-4.81,2.55l-.74,0a4,4,0,0,1-2.88-1.46c-.41-.42-.52-.54-1.11-.55a7.09,7.09,0,0,1-5.19-2.57l-.08-.11-.07-.12A7.2,7.2,0,0,1,663,117a4.47,4.47,0,0,1,4-2.19h.29l.24,0h.25l.08-.14a4,4,0,0,1,3.11-2.2A5.32,5.32,0,0,1,671.91,112.42Z"/><path class="cls-8" d="M664.62,123.2a5.34,5.34,0,0,0,3.84,1.88c2.45.08,2.16,1.92,4,2s2.66.12,4-1.78-.23-3,1.3-3.57,1.65-4.81-.64-4.88-3.26-3.1-5.92-2.65-1.14,2.62-4.13,2.35S662.94,120.15,664.62,123.2Z"/><path class="cls-9" d="M671.8,115.94c.49,0,.94.38,1.64,1a6,6,0,0,0,3.58,1.73,2.1,2.1,0,0,1,0,1.54,2.77,2.77,0,0,0-1.68,3,1.37,1.37,0,0,1-.26,1.13c-.77,1.1-.93,1.09-1.82,1.07l-.65,0c-.17,0-.17,0-.52-.38a4.68,4.68,0,0,0-3.56-1.64,3.59,3.59,0,0,1-2.42-1.11,3.72,3.72,0,0,1-.13-3.37,1,1,0,0,1,.9-.52H667l.44,0a3.46,3.46,0,0,0,3.51-1.94c.22-.39.22-.39.63-.46Z"/><circle class="cls-10" cx="671.58" cy="120.41" r="1.76"/><line class="cls-3" x1="772.5" y1="86.5" x2="772.5" y2="43.37"/><path class="cls-5" d="M641.35,41.4l27.57-.71a74.48,74.48,0,0,1,9.33,0l26.55-.3,1,6H640.49Z"/></g><g id="deco"><path class="cls-4" d="M652.5,41.14s-47.35,113.58,9.07,136.79c0,0-9.79,4.22-15.68,9.71l6.37-9.86-25.61-9.4-11.14-24.49L641.35,42Z"/></g></svg>