<svg xmlns="http://www.w3.org/2000/svg" viewBox="0 0 577.24 420.16"><defs><style>.cls-1,.cls-10,.cls-7{fill:#1d1e2f;}.cls-2{fill:#f2e8c5;}.cls-3{fill:#f2aa87;}.cls-4{fill:#b3a0c3;}.cls-5{fill:#232858;}.cls-6{fill:#f4efe4;}.cls-7,.cls-9{stroke:#fff;}.cls-10,.cls-11,.cls-12,.cls-7,.cls-8,.cls-9{stroke-miterlimit:10;}.cls-10,.cls-12,.cls-7{stroke-width:3px;}.cls-8{fill:#3c4375;}.cls-10,.cls-11,.cls-12,.cls-8{stroke:#fcfcfc;}.cls-11,.cls-12,.cls-9{fill:none;}.cls-13{fill:#fff;}</style></defs><g id="fonds"><rect class="cls-1" x="-627.24" y="-25" width="1868" height="461.16"/></g><g id="door"><path class="cls-2" d="M385.85,295.09s12.55,14.35,34.23,3.7,40.27-15.91,53-11,16.83,9.64,16.83,9.64S473.1,287.8,447.1,300s-40.4,22.2-56.72,14.44-11.73-6.72-11.73-6.72Z"/><path class="cls-3" d="M365.34,329.9S387,349,416,336.2s40-18.46,49.63-21.68,24.33-16.08,47.85-.44c0,0-22.36-3.26-79.54,31.6s-81.66-7-81.66-7Z"/><path class="cls-4" d="M372.37,317.62s22,20.2,49.05,8.41,23.14-15.6,44.37-20.94a66.18,66.18,0,0,1,39.2,2.57s-10.27-8.27-15.06-10.22-16.33-9.66-47.49,4C411,315.3,403.34,325,378.65,307.67Z"/><path class="cls-5" d="M365.34,329.9s22.51,20.54,57.33,6.62,44.62-24.25,57.86-26.59,20.86-3.54,32.9,4.15c0,0-6.83-11.93-39.25-11.38a73.12,73.12,0,0,0-29.25,9.61c-14.12,8.53-41.87,29.28-72.56,5.31Z"/><path class="cls-3" d="M495.54,316.69s5.37-3.42,7,10.27,6.51,28.61,16.6,35.18c0,0-11.71-37.42-10.76-50.71C496.89,313.66,497.79,316.26,495.54,316.69Z"/><path class="cls-3" d="M530.35,369.12s9.67,10.31,19.28-6.46,12.92-26.33,17.59-24.29c0,0-4.17-6-11.72,7.19s-14.65,21-18,23.16c-5.08-1.62-6.25-2.48-9.38-5.38S528.4,368,530.35,369.12Z"/><path class="cls-4" d="M508.7,314s8.65,9.12,7.82,16.6-1.29,30.9,12.39,38.56l-4.6-32.51S522.93,311.79,508.7,314Z"/><path class="cls-5" d="M508.81,314.13s6,1.57,7.74,14.28-2.15,18,4.53,32c2.22,6.64,9.92,9.06,9.92,9.06s-10.43-.13-17.79-17-2.07-32.15-10.19-37.6A14.29,14.29,0,0,1,508.81,314.13Z"/><path class="cls-2" d="M512.77,313.71s15.16.72,15.43,33.49,18.62-2.09,18.62-2.09,14.42-35.24,25.07,5.07l-.76,4.34s-1.43-19.34-8.67-20.3-21.2,28.64-24.22,30.89-4.74,1.65-10.17-1.77c0,0,.26,2.45,2.93,6.15,0,0-8,3.79-8.7-33A30,30,0,0,0,512.77,313.71Z"/><path class="cls-4" d="M528.07,363.34s4.82,5.07,15.59-7.3c9.6-12.75,11.42-25.7,21.08-21.34a2.87,2.87,0,0,1,1.41,1.38l1.07,2.29s-2.88-4.21-6.27-.82-11.32,19.76-13,22.76S534.85,369.53,528.07,363.34Z"/><path class="cls-5" d="M528.75,363.84s4.91,4.91,12.54-.92,6.08-8.05,11.68-16.11c5.32-7.67,8.74-13.6,13.78-9.4a.18.18,0,0,1-.16.31c-2.11-.65-7.44-.7-12.86,11.76,0,0-10.07,24.3-19.84,18.7A16.4,16.4,0,0,1,528.75,363.84Z"/><polygon class="cls-6" points="354.7 257.76 354.11 254 357.94 253.71 358.53 257.47 354.7 257.76"/><path class="cls-2" d="M423.22,162.25s-37.87,13.06-66.27-29-56.8-71.08-85.2-75.43-40.75,0-40.75,0,40.75,0,75.47,49.32,50.48,82.68,88.35,85.58,28.4,0,28.4,0Z"/><path class="cls-3" d="M424.27,247.16s-59.43,12.28-98.87-41.39-53.65-75.43-67.85-91.39S230,59.66,170.77,63.61c0,0,44.18,17.41,112,140.71S439,276.84,439,276.84Z"/><path class="cls-4" d="M424.27,217.41S363,231.24,326.06,181.52,300.15,128.89,267,97s-74.16-36.27-74.16-36.27,27.37-4.35,38.14-2.9,39.86-.55,82.36,57c42.86,58,46.75,83.72,109.86,77.92Z"/><path class="cls-5" d="M424.27,247.16s-62.51,13.93-111.46-47.82-56-90.84-77.72-108.93-34.34-28.25-64.32-26.8c0,0,24.91-14.63,83.46,20.25,0,0,26.46,17.75,43.29,48.07s45.76,97.12,126.75,85.48Z"/><path class="cls-3" d="M200.67,87.05s-6.23-11.83-23.58,11.38-41.76,45.36-67,46.81c0,0,60.42-56,72.58-81.23C201.37,80.12,197,83.92,200.67,87.05Z"/><path class="cls-3" d="M82.42,146.29S54,155,54,114.38,58,52.87,47.31,51.72c0,0,13.87-6.57,13.87,25.34s4.73,53.67,8.72,61.09c10.94,2.34,14,2,22.72,0S87.15,146.29,82.42,146.29Z"/><path class="cls-4" d="M179.51,68.36s-25.3,7.58-31.61,22.09S118,148.14,85,147.82l42.35-54.47S155.84,49.5,179.51,68.36Z"/><path class="cls-5" d="M179.13,68.53s-12.62-3.43-29,18-14.94,35.15-41.71,53.65c-11,9.79-27.56,6.16-27.56,6.16S100,157,131.05,133.86s37.36-56.47,57.87-57.92A30.1,30.1,0,0,0,179.13,68.53Z"/><path class="cls-2" d="M172.35,63.61s-28.4-14.5-63.11,45S77.47,85.32,77.47,85.32,88,6,26.46,68.36l-3.15,8.7s22.82-33.75,37-27.95,8.73,74.37,11.89,81.62,6.93,8,20.4,7.42c0,0-3,4.19-11.78,8.14,0,0,10.73,15.33,50.33-51.08C131.17,95.21,142.37,70.87,172.35,63.61Z"/><path class="cls-4" d="M92.62,138.15s-14.09,4.19-20.8-29.61c-4.19-33.27,6-58.79-16.16-60.93a6,6,0,0,0-4,1l-4.34,3.07S57,47,59.6,56.76s0,47.86,0,55.12S73.8,142.34,92.62,138.15Z"/><path class="cls-5" d="M90.86,138.33s-14.09,3.83-21.92-14.77-2.67-21-4.46-41.57c-1.7-19.55-1.73-33.93-15.31-31.54a.37.37,0,0,0,0,.73c4.52,1,14.29,6.49,11.17,34.89,0,0-7,54.82,16.64,54.82A34.58,34.58,0,0,0,90.86,138.33Z"/><polygon class="cls-6" points="519.03 126.72 524.04 120.49 517.35 115.95 512.35 122.19 519.03 126.72"/><polygon class="cls-6" points="106.67 304.46 109.88 300.45 105.58 297.54 102.36 301.55 106.67 304.46"/><rect class="cls-7" x="370.81" y="299.5" width="80.66" height="67.14"/><polygon class="cls-8" points="239.31 299.5 212.88 299.5 213.11 322.5 185.01 322.5 185.01 344.2 157 344.2 157 366.64 370.81 366.64 370.81 344.82 397.82 344.82 397.53 323.5 426 323.5 426 300 239.31 299.5"/><line class="cls-9" x1="226.5" y1="322.5" x2="382.47" y2="322.5"/><line class="cls-9" x1="197.5" y1="343.5" x2="350.4" y2="343.5"/><rect class="cls-10" x="239.76" y="20" width="212" height="280"/><rect class="cls-11" x="215.76" y="64" width="260" height="192" transform="translate(505.76 -185.76) rotate(90)"/><circle class="cls-12" cx="344.26" cy="93.5" r="32.5"/><rect class="cls-12" x="273.76" y="196" width="131" height="21"/><rect class="cls-12" x="273.76" y="236" width="131" height="44.5"/><circle class="cls-13" cx="423.76" cy="168" r="9"/></g></svg>